<svg width="194" height="87" viewBox="0 0 194 87" fill="none" xmlns="http://www.w3.org/2000/svg">
<g filter="url(#filter0_b_2499_805)">
<rect width="193.593" height="86.0466" rx="6.71632" fill="white"/>
<rect x="6.125" y="6.125" width="181.341" height="26.8653" rx="6.71632" fill="#EDEDED"/>
<path d="M30.4728 24.1953V15.7953H31.4328V23.0793L31.3848 24.1953H30.4728ZM33.4608 24.3393C32.9568 24.3393 32.5128 24.2073 32.1288 23.9433C31.7528 23.6793 31.4608 23.3113 31.2528 22.8393C31.0448 22.3593 30.9408 21.8113 30.9408 21.1953C30.9408 20.5713 31.0448 20.0233 31.2528 19.5513C31.4608 19.0793 31.7528 18.7113 32.1288 18.4473C32.5128 18.1833 32.9568 18.0513 33.4608 18.0513C33.9968 18.0513 34.4688 18.1833 34.8768 18.4473C35.2848 18.7113 35.6008 19.0793 35.8248 19.5513C36.0568 20.0233 36.1728 20.5713 36.1728 21.1953C36.1728 21.8113 36.0568 22.3593 35.8248 22.8393C35.6008 23.3113 35.2848 23.6793 34.8768 23.9433C34.4688 24.2073 33.9968 24.3393 33.4608 24.3393ZM33.2448 23.4633C33.6208 23.4633 33.9528 23.3673 34.2408 23.1753C34.5368 22.9833 34.7688 22.7153 34.9368 22.3713C35.1128 22.0273 35.2008 21.6353 35.2008 21.1953C35.2008 20.7553 35.1168 20.3633 34.9488 20.0193C34.7888 19.6753 34.5608 19.4073 34.2648 19.2153C33.9688 19.0233 33.6328 18.9273 33.2568 18.9273C32.9048 18.9273 32.5888 19.0233 32.3088 19.2153C32.0368 19.4073 31.8208 19.6753 31.6608 20.0193C31.5088 20.3633 31.4328 20.7553 31.4328 21.1953C31.4328 21.6353 31.5088 22.0273 31.6608 22.3713C31.8208 22.7153 32.0368 22.9833 32.3088 23.1753C32.5808 23.3673 32.8928 23.4633 33.2448 23.4633ZM41.3801 24.1953L41.3201 23.0913V18.1953H42.2801V24.1953H41.3801ZM37.1081 21.2673V18.1953H38.0681V21.2673H37.1081ZM38.0681 21.2673C38.0681 21.8593 38.1361 22.3113 38.2721 22.6233C38.4081 22.9353 38.5961 23.1513 38.8361 23.2713C39.0841 23.3833 39.3601 23.4393 39.6641 23.4393C40.1841 23.4393 40.5881 23.2513 40.8761 22.8753C41.1721 22.4993 41.3201 21.9753 41.3201 21.3033H41.7881C41.7881 21.9353 41.6961 22.4793 41.5121 22.9353C41.3281 23.3913 41.0601 23.7393 40.7081 23.9793C40.3641 24.2193 39.9401 24.3393 39.4361 24.3393C38.9721 24.3393 38.5641 24.2473 38.2121 24.0633C37.8601 23.8713 37.5881 23.5713 37.3961 23.1633C37.2041 22.7473 37.1081 22.2113 37.1081 21.5553V21.2673H38.0681ZM44.2555 26.7393C44.1035 26.7393 43.9275 26.7073 43.7275 26.6433C43.5275 26.5873 43.3155 26.5113 43.0915 26.4153L43.4515 25.6113C43.6355 25.6913 43.7955 25.7513 43.9315 25.7913C44.0755 25.8313 44.1875 25.8513 44.2675 25.8513C44.4835 25.8513 44.6595 25.7913 44.7955 25.6713C44.9395 25.5593 45.0595 25.3953 45.1555 25.1793L45.8395 23.5473L48.0595 18.1953H49.0915L46.2115 25.0353C46.0595 25.3873 45.8995 25.6913 45.7315 25.9473C45.5715 26.2033 45.3755 26.3993 45.1435 26.5353C44.9115 26.6713 44.6155 26.7393 44.2555 26.7393ZM45.5755 24.1953L42.9835 18.1953H44.0035L46.2355 23.5353L46.5235 24.1953H45.5755ZM54.6167 24.3393C54.1767 24.3393 53.7927 24.2753 53.4647 24.1473C53.1367 24.0113 52.8607 23.8353 52.6367 23.6193C52.4207 23.4033 52.2647 23.1673 52.1687 22.9113L53.0087 22.5633C53.1447 22.8353 53.3487 23.0553 53.6207 23.2233C53.8927 23.3913 54.1927 23.4753 54.5207 23.4753C54.8967 23.4753 55.2127 23.4033 55.4687 23.2593C55.7247 23.1073 55.8527 22.8953 55.8527 22.6233C55.8527 22.3753 55.7567 22.1753 55.5647 22.0233C55.3807 21.8713 55.1047 21.7473 54.7367 21.6513L54.1607 21.4953C53.6167 21.3513 53.1927 21.1353 52.8887 20.8473C52.5847 20.5513 52.4327 20.2193 52.4327 19.8513C52.4327 19.2833 52.6167 18.8433 52.9847 18.5313C53.3607 18.2113 53.9167 18.0513 54.6527 18.0513C55.0047 18.0513 55.3247 18.1033 55.6127 18.2073C55.9007 18.3113 56.1487 18.4593 56.3567 18.6513C56.5647 18.8353 56.7167 19.0553 56.8127 19.3113L55.9727 19.6833C55.8687 19.4113 55.6967 19.2153 55.4567 19.0953C55.2167 18.9753 54.9247 18.9153 54.5807 18.9153C54.2127 18.9153 53.9247 18.9953 53.7167 19.1553C53.5087 19.3073 53.4047 19.5233 53.4047 19.8033C53.4047 19.9633 53.4887 20.1153 53.6567 20.2593C53.8327 20.3953 54.0887 20.5073 54.4247 20.5953L55.0247 20.7513C55.4167 20.8473 55.7447 20.9913 56.0087 21.1833C56.2727 21.3673 56.4727 21.5793 56.6087 21.8193C56.7447 22.0593 56.8127 22.3153 56.8127 22.5873C56.8127 22.9473 56.7167 23.2593 56.5247 23.5233C56.3327 23.7873 56.0727 23.9913 55.7447 24.1353C55.4167 24.2713 55.0407 24.3393 54.6167 24.3393ZM57.9266 26.5953V18.1953H58.8266L58.8866 19.2993V26.5953H57.9266ZM60.9146 24.3393C60.4106 24.3393 59.9666 24.2073 59.5826 23.9433C59.2066 23.6793 58.9146 23.3113 58.7066 22.8393C58.4986 22.3593 58.3946 21.8113 58.3946 21.1953C58.3946 20.5713 58.4986 20.0233 58.7066 19.5513C58.9146 19.0793 59.2066 18.7113 59.5826 18.4473C59.9666 18.1833 60.4106 18.0513 60.9146 18.0513C61.4506 18.0513 61.9226 18.1833 62.3306 18.4473C62.7386 18.7113 63.0546 19.0793 63.2786 19.5513C63.5106 20.0233 63.6266 20.5713 63.6266 21.1953C63.6266 21.8113 63.5106 22.3593 63.2786 22.8393C63.0546 23.3113 62.7386 23.6793 62.3306 23.9433C61.9226 24.2073 61.4506 24.3393 60.9146 24.3393ZM60.6986 23.4633C61.0746 23.4633 61.4066 23.3673 61.6946 23.1753C61.9906 22.9833 62.2226 22.7153 62.3906 22.3713C62.5666 22.0273 62.6546 21.6353 62.6546 21.1953C62.6546 20.7553 62.5706 20.3633 62.4026 20.0193C62.2426 19.6753 62.0146 19.4073 61.7186 19.2153C61.4226 19.0233 61.0866 18.9273 60.7106 18.9273C60.3586 18.9273 60.0426 19.0233 59.7626 19.2153C59.4906 19.4073 59.2746 19.6753 59.1146 20.0193C58.9626 20.3633 58.8866 20.7553 58.8866 21.1953C58.8866 21.6353 58.9626 22.0273 59.1146 22.3713C59.2746 22.7153 59.4906 22.9833 59.7626 23.1753C60.0346 23.3673 60.3466 23.4633 60.6986 23.4633ZM67.3684 24.3393C66.7844 24.3393 66.2644 24.2073 65.8084 23.9433C65.3604 23.6713 65.0084 23.2993 64.7524 22.8273C64.4964 22.3553 64.3684 21.8113 64.3684 21.1953C64.3684 20.5793 64.4924 20.0353 64.7404 19.5633C64.9964 19.0913 65.3484 18.7233 65.7964 18.4593C66.2524 18.1873 66.7684 18.0513 67.3444 18.0513C67.9364 18.0513 68.4564 18.1873 68.9044 18.4593C69.3604 18.7233 69.7124 19.0913 69.9604 19.5633C70.2164 20.0353 70.3444 20.5793 70.3444 21.1953C70.3444 21.8113 70.2164 22.3553 69.9604 22.8273C69.7124 23.2993 69.3644 23.6713 68.9164 23.9433C68.4684 24.2073 67.9524 24.3393 67.3684 24.3393ZM67.3684 23.4513C67.7684 23.4513 68.1164 23.3553 68.4124 23.1633C68.7084 22.9713 68.9404 22.7073 69.1084 22.3713C69.2844 22.0353 69.3724 21.6433 69.3724 21.1953C69.3724 20.7473 69.2844 20.3553 69.1084 20.0193C68.9404 19.6833 68.7044 19.4193 68.4004 19.2273C68.0964 19.0353 67.7444 18.9393 67.3444 18.9393C66.9524 18.9393 66.6044 19.0353 66.3004 19.2273C66.0044 19.4193 65.7684 19.6833 65.5924 20.0193C65.4244 20.3553 65.3404 20.7473 65.3404 21.1953C65.3404 21.6353 65.4244 22.0273 65.5924 22.3713C65.7684 22.7073 66.0084 22.9713 66.3124 23.1633C66.6244 23.3553 66.9764 23.4513 67.3684 23.4513ZM72.3733 22.2633L71.7613 21.6033L74.9533 18.1953H76.1653L72.3733 22.2633ZM71.4373 24.1953V15.7953H72.3973V24.1953H71.4373ZM75.2173 24.1953L72.9373 20.7513L73.5613 20.0793L76.4053 24.1953H75.2173ZM80.5887 24.1953L80.5407 23.2113V21.0273C80.5407 20.5553 80.4887 20.1673 80.3847 19.8633C80.2807 19.5513 80.1167 19.3153 79.8927 19.1553C79.6687 18.9953 79.3767 18.9153 79.0167 18.9153C78.6887 18.9153 78.4047 18.9833 78.1647 19.1193C77.9327 19.2473 77.7407 19.4553 77.5887 19.7433L76.7247 19.4073C76.8767 19.1273 77.0607 18.8873 77.2767 18.6873C77.4927 18.4793 77.7447 18.3233 78.0327 18.2193C78.3207 18.1073 78.6487 18.0513 79.0167 18.0513C79.5767 18.0513 80.0367 18.1633 80.3967 18.3873C80.7647 18.6033 81.0407 18.9273 81.2247 19.3593C81.4087 19.7833 81.4967 20.3113 81.4887 20.9433L81.4767 24.1953H80.5887ZM78.7887 24.3393C78.0847 24.3393 77.5327 24.1793 77.1327 23.8593C76.7407 23.5313 76.5447 23.0793 76.5447 22.5033C76.5447 21.8953 76.7447 21.4313 77.1447 21.1113C77.5527 20.7833 78.1207 20.6193 78.8487 20.6193H80.5647V21.4233H79.0647C78.5047 21.4233 78.1047 21.5153 77.8647 21.6993C77.6327 21.8833 77.5167 22.1473 77.5167 22.4913C77.5167 22.8033 77.6327 23.0513 77.8647 23.2353C78.0967 23.4113 78.4207 23.4993 78.8367 23.4993C79.1807 23.4993 79.4807 23.4273 79.7367 23.2833C79.9927 23.1313 80.1887 22.9193 80.3247 22.6473C80.4687 22.3673 80.5407 22.0393 80.5407 21.6633H80.9487C80.9487 22.4793 80.7647 23.1313 80.3967 23.6193C80.0287 24.0993 79.4927 24.3393 78.7887 24.3393ZM82.7698 24.1953V18.1953H83.6698L83.7298 19.2993V24.1953H82.7698ZM86.9818 24.1953V21.1233H87.9418V24.1953H86.9818ZM86.9818 21.1233C86.9818 20.5313 86.9138 20.0793 86.7778 19.7673C86.6418 19.4553 86.4538 19.2433 86.2138 19.1313C85.9738 19.0113 85.7018 18.9513 85.3978 18.9513C84.8698 18.9513 84.4578 19.1393 84.1618 19.5153C83.8738 19.8833 83.7298 20.4073 83.7298 21.0873H83.2618C83.2618 20.4553 83.3538 19.9113 83.5378 19.4553C83.7218 18.9993 83.9898 18.6513 84.3418 18.4113C84.6938 18.1713 85.1178 18.0513 85.6138 18.0513C86.0858 18.0513 86.4938 18.1473 86.8378 18.3393C87.1898 18.5233 87.4618 18.8193 87.6538 19.2273C87.8538 19.6353 87.9498 20.1713 87.9418 20.8353V21.1233H86.9818ZM91.8492 24.3393C91.2652 24.3393 90.7492 24.2073 90.3012 23.9433C89.8532 23.6713 89.5012 23.2993 89.2452 22.8273C88.9972 22.3553 88.8732 21.8113 88.8732 21.1953C88.8732 20.5793 88.9972 20.0353 89.2452 19.5633C89.5012 19.0913 89.8492 18.7233 90.2892 18.4593C90.7372 18.1873 91.2492 18.0513 91.8252 18.0513C92.3852 18.0513 92.8692 18.1913 93.2772 18.4713C93.6852 18.7433 94.0012 19.1273 94.2252 19.6233C94.4492 20.1193 94.5612 20.7033 94.5612 21.3753H89.6052L89.8452 21.1713C89.8452 21.6513 89.9292 22.0633 90.0972 22.4073C90.2732 22.7513 90.5172 23.0153 90.8292 23.1993C91.1412 23.3753 91.4972 23.4633 91.8972 23.4633C92.3212 23.4633 92.6772 23.3633 92.9652 23.1633C93.2612 22.9633 93.4892 22.6993 93.6492 22.3713L94.4772 22.7913C94.3252 23.1033 94.1212 23.3753 93.8652 23.6073C93.6172 23.8393 93.3212 24.0193 92.9772 24.1473C92.6412 24.2753 92.2652 24.3393 91.8492 24.3393ZM89.9052 20.7633L89.6532 20.5713H93.7932L93.5412 20.7753C93.5412 20.3913 93.4652 20.0593 93.3132 19.7793C93.1612 19.4993 92.9572 19.2833 92.7012 19.1313C92.4452 18.9793 92.1492 18.9033 91.8132 18.9033C91.4852 18.9033 91.1732 18.9793 90.8772 19.1313C90.5892 19.2833 90.3532 19.4993 90.1692 19.7793C89.9932 20.0513 89.9052 20.3793 89.9052 20.7633ZM100.657 26.7393C100.273 26.7393 99.9209 26.6993 99.6009 26.6193C99.2889 26.5473 99.0209 26.4633 98.7969 26.3673C98.5809 26.2793 98.4249 26.2033 98.3289 26.1393L98.6889 25.3593C98.7929 25.4153 98.9409 25.4833 99.1329 25.5633C99.3249 25.6513 99.5489 25.7233 99.8049 25.7793C100.069 25.8433 100.349 25.8753 100.645 25.8753C101.029 25.8753 101.373 25.7953 101.677 25.6353C101.989 25.4833 102.229 25.2393 102.397 24.9033C102.573 24.5753 102.661 24.1513 102.661 23.6313V18.1953H103.621V23.6193C103.621 24.3073 103.493 24.8833 103.237 25.3473C102.981 25.8113 102.629 26.1593 102.181 26.3913C101.733 26.6233 101.225 26.7393 100.657 26.7393ZM100.621 24.1473C100.085 24.1473 99.6129 24.0193 99.2049 23.7633C98.7969 23.5073 98.4769 23.1513 98.2449 22.6953C98.0209 22.2313 97.9089 21.7033 97.9089 21.1113C97.9089 20.5033 98.0209 19.9713 98.2449 19.5153C98.4769 19.0513 98.7969 18.6913 99.2049 18.4353C99.6129 18.1793 100.085 18.0513 100.621 18.0513C101.125 18.0513 101.565 18.1793 101.941 18.4353C102.317 18.6913 102.609 19.0513 102.817 19.5153C103.033 19.9713 103.141 20.5033 103.141 21.1113C103.141 21.7113 103.033 22.2393 102.817 22.6953C102.609 23.1513 102.317 23.5073 101.941 23.7633C101.565 24.0193 101.125 24.1473 100.621 24.1473ZM100.849 23.3193C101.201 23.3193 101.513 23.2233 101.785 23.0313C102.057 22.8393 102.269 22.5793 102.421 22.2513C102.573 21.9153 102.649 21.5273 102.649 21.0873C102.649 20.6633 102.569 20.2873 102.409 19.9593C102.257 19.6233 102.045 19.3633 101.773 19.1793C101.509 18.9873 101.197 18.8913 100.837 18.8913C100.461 18.8913 100.125 18.9873 99.8289 19.1793C99.5409 19.3633 99.3129 19.6233 99.1449 19.9593C98.9849 20.2873 98.9049 20.6633 98.9049 21.0873C98.9049 21.5273 98.9889 21.9153 99.1569 22.2513C99.3249 22.5793 99.5529 22.8393 99.8409 23.0313C100.137 23.2233 100.473 23.3193 100.849 23.3193ZM105.12 24.1953V18.1953H106.08V24.1953H105.12ZM105.612 16.8033C105.452 16.8033 105.312 16.7433 105.192 16.6233C105.072 16.5033 105.012 16.3633 105.012 16.2033C105.012 16.0353 105.072 15.8953 105.192 15.7833C105.312 15.6633 105.452 15.6033 105.612 15.6033C105.78 15.6033 105.92 15.6633 106.032 15.7833C106.152 15.8953 106.212 16.0353 106.212 16.2033C106.212 16.3633 106.152 16.5033 106.032 16.6233C105.92 16.7433 105.78 16.8033 105.612 16.8033ZM108.209 24.1953V17.5113C108.209 16.8873 108.353 16.4193 108.641 16.1073C108.937 15.7873 109.385 15.6273 109.985 15.6273C110.145 15.6273 110.325 15.6553 110.525 15.7113C110.725 15.7673 110.937 15.8473 111.161 15.9513L110.801 16.7073C110.617 16.6353 110.461 16.5793 110.333 16.5393C110.205 16.4993 110.097 16.4793 110.009 16.4793C109.729 16.4793 109.517 16.5713 109.373 16.7553C109.237 16.9313 109.169 17.2073 109.169 17.5833V24.1953H108.209ZM107.105 19.0233V18.1953H110.909V19.0233H107.105ZM114.055 24.3393C113.471 24.3393 113.019 24.1873 112.699 23.8833C112.379 23.5793 112.219 23.1513 112.219 22.5993V16.3233H113.179V22.5033C113.179 22.8073 113.259 23.0433 113.419 23.2113C113.587 23.3713 113.819 23.4513 114.115 23.4513C114.211 23.4513 114.303 23.4393 114.391 23.4153C114.487 23.3833 114.611 23.3113 114.763 23.1993L115.135 23.9793C114.927 24.1153 114.739 24.2073 114.571 24.2553C114.403 24.3113 114.231 24.3393 114.055 24.3393ZM111.175 19.0473V18.1953H114.979V19.0473H111.175ZM118.194 24.3393C117.754 24.3393 117.37 24.2753 117.042 24.1473C116.714 24.0113 116.438 23.8353 116.214 23.6193C115.998 23.4033 115.842 23.1673 115.746 22.9113L116.586 22.5633C116.722 22.8353 116.926 23.0553 117.198 23.2233C117.47 23.3913 117.77 23.4753 118.098 23.4753C118.474 23.4753 118.79 23.4033 119.046 23.2593C119.302 23.1073 119.43 22.8953 119.43 22.6233C119.43 22.3753 119.334 22.1753 119.142 22.0233C118.958 21.8713 118.682 21.7473 118.314 21.6513L117.738 21.4953C117.194 21.3513 116.77 21.1353 116.466 20.8473C116.162 20.5513 116.01 20.2193 116.01 19.8513C116.01 19.2833 116.194 18.8433 116.562 18.5313C116.938 18.2113 117.494 18.0513 118.23 18.0513C118.582 18.0513 118.902 18.1033 119.19 18.2073C119.478 18.3113 119.726 18.4593 119.934 18.6513C120.142 18.8353 120.294 19.0553 120.39 19.3113L119.55 19.6833C119.446 19.4113 119.274 19.2153 119.034 19.0953C118.794 18.9753 118.502 18.9153 118.158 18.9153C117.79 18.9153 117.502 18.9953 117.294 19.1553C117.086 19.3073 116.982 19.5233 116.982 19.8033C116.982 19.9633 117.066 20.1153 117.234 20.2593C117.41 20.3953 117.666 20.5073 118.002 20.5953L118.602 20.7513C118.994 20.8473 119.322 20.9913 119.586 21.1833C119.85 21.3673 120.05 21.5793 120.186 21.8193C120.322 22.0593 120.39 22.3153 120.39 22.5873C120.39 22.9473 120.294 23.2593 120.102 23.5233C119.91 23.7873 119.65 23.9913 119.322 24.1353C118.994 24.2713 118.618 24.3393 118.194 24.3393Z" fill="black"/>
<path d="M22.8645 22.4296L25.1397 24.7048L24.3884 25.4562L22.1131 23.1809C21.295 23.8354 20.2575 24.2269 19.1291 24.2269C16.4897 24.2269 14.3477 22.0849 14.3477 19.4455C14.3477 16.8061 16.4897 14.6641 19.1291 14.6641C21.7685 14.6641 23.9105 16.8061 23.9105 19.4455C23.9105 20.5739 23.519 21.6114 22.8645 22.4296ZM21.7986 22.0353C22.4482 21.3658 22.848 20.4526 22.848 19.4455C22.848 17.3908 21.1838 15.7266 19.1291 15.7266C17.0744 15.7266 15.4102 17.3908 15.4102 19.4455C15.4102 21.5002 17.0744 23.1644 19.1291 23.1644C20.1362 23.1644 21.0494 22.7646 21.7189 22.115L21.7986 22.0353Z" fill="black"/>
<path d="M7.121 55.2461V46.8461H10.085C10.661 46.8461 11.169 46.9621 11.609 47.1941C12.049 47.4261 12.393 47.7501 12.641 48.1661C12.889 48.5741 13.013 49.0501 13.013 49.5941C13.013 50.1221 12.897 50.5941 12.665 51.0101C12.433 51.4261 12.109 51.7541 11.693 51.9941C11.285 52.2261 10.809 52.3421 10.265 52.3421H8.513V55.2461H7.121ZM8.513 51.0581H10.241C10.641 51.0581 10.969 50.9221 11.225 50.6501C11.481 50.3781 11.609 50.0261 11.609 49.5941C11.609 49.1541 11.465 48.7981 11.177 48.5261C10.889 48.2541 10.517 48.1181 10.061 48.1181H8.513V51.0581ZM14.6068 52.0541C14.6068 51.4061 14.7308 50.8741 14.9788 50.4581C15.2268 50.0421 15.5468 49.7341 15.9388 49.5341C16.3388 49.3261 16.7548 49.2221 17.1868 49.2221V50.5061C16.8188 50.5061 16.4708 50.5581 16.1428 50.6621C15.8228 50.7581 15.5628 50.9181 15.3628 51.1421C15.1628 51.3661 15.0628 51.6621 15.0628 52.0301L14.6068 52.0541ZM13.7188 55.2461V49.2461H15.0628V55.2461H13.7188ZM17.9222 55.2461V49.2461H19.2542V55.2461H17.9222ZM18.5942 48.1061C18.3782 48.1061 18.1902 48.0301 18.0302 47.8781C17.8782 47.7181 17.8022 47.5301 17.8022 47.3141C17.8022 47.0981 17.8782 46.9141 18.0302 46.7621C18.1902 46.6101 18.3782 46.5341 18.5942 46.5341C18.8102 46.5341 18.9942 46.6101 19.1462 46.7621C19.3062 46.9141 19.3862 47.0981 19.3862 47.3141C19.3862 47.5301 19.3062 47.7181 19.1462 47.8781C18.9942 48.0301 18.8102 48.1061 18.5942 48.1061ZM20.5982 55.2461V49.2461H21.8582L21.9182 50.0501C22.1022 49.7381 22.3382 49.5021 22.6262 49.3421C22.9142 49.1821 23.2422 49.1021 23.6102 49.1021C24.0902 49.1021 24.4982 49.2101 24.8342 49.4261C25.1702 49.6421 25.4142 49.9701 25.5662 50.4101C25.7422 49.9861 25.9902 49.6621 26.3102 49.4381C26.6302 49.2141 27.0062 49.1021 27.4382 49.1021C28.1342 49.1021 28.6702 49.3261 29.0462 49.7741C29.4222 50.2141 29.6062 50.8941 29.5982 51.8141V55.2461H28.2662V52.1741C28.2662 51.6941 28.2142 51.3261 28.1102 51.0701C28.0062 50.8061 27.8662 50.6221 27.6902 50.5181C27.5142 50.4141 27.3102 50.3621 27.0782 50.3621C26.6622 50.3541 26.3382 50.5021 26.1062 50.8061C25.8822 51.1101 25.7702 51.5461 25.7702 52.1141V55.2461H24.4262V52.1741C24.4262 51.6941 24.3742 51.3261 24.2702 51.0701C24.1742 50.8061 24.0382 50.6221 23.8622 50.5181C23.6862 50.4141 23.4822 50.3621 23.2502 50.3621C22.8342 50.3541 22.5102 50.5021 22.2782 50.8061C22.0542 51.1101 21.9422 51.5461 21.9422 52.1141V55.2461H20.5982ZM33.4053 55.3901C32.8213 55.3901 32.3013 55.2581 31.8453 54.9941C31.3973 54.7221 31.0413 54.3501 30.7773 53.8781C30.5213 53.4061 30.3933 52.8621 30.3933 52.2461C30.3933 51.6301 30.5253 51.0861 30.7893 50.6141C31.0533 50.1421 31.4133 49.7741 31.8693 49.5101C32.3333 49.2381 32.8613 49.1021 33.4533 49.1021C33.9893 49.1021 34.4733 49.2421 34.9053 49.5221C35.3373 49.7941 35.6773 50.1901 35.9253 50.7101C36.1813 51.2301 36.3093 51.8501 36.3093 52.5701H31.5933L31.7733 52.4021C31.7733 52.7701 31.8533 53.0901 32.0133 53.3621C32.1733 53.6261 32.3853 53.8301 32.6493 53.9741C32.9133 54.1181 33.2053 54.1901 33.5253 54.1901C33.8933 54.1901 34.1973 54.1101 34.4373 53.9501C34.6773 53.7821 34.8653 53.5661 35.0013 53.3021L36.1893 53.8061C36.0213 54.1261 35.8053 54.4061 35.5413 54.6461C35.2853 54.8861 34.9773 55.0701 34.6173 55.1981C34.2653 55.3261 33.8613 55.3901 33.4053 55.3901ZM31.8573 51.7061L31.6653 51.5381H35.0493L34.8693 51.7061C34.8693 51.3781 34.7973 51.1101 34.6533 50.9021C34.5093 50.6861 34.3253 50.5261 34.1013 50.4221C33.8853 50.3101 33.6573 50.2541 33.4173 50.2541C33.1773 50.2541 32.9373 50.3101 32.6973 50.4221C32.4573 50.5261 32.2573 50.6861 32.0973 50.9021C31.9373 51.1101 31.8573 51.3781 31.8573 51.7061ZM43.8572 55.3901C43.0092 55.3901 42.2532 55.2061 41.5892 54.8381C40.9332 54.4621 40.4172 53.9501 40.0412 53.3021C39.6652 52.6461 39.4772 51.8981 39.4772 51.0581C39.4772 50.2021 39.6652 49.4501 40.0412 48.8021C40.4172 48.1461 40.9332 47.6341 41.5892 47.2661C42.2532 46.8901 43.0092 46.7021 43.8572 46.7021C44.3452 46.7021 44.8012 46.7781 45.2252 46.9301C45.6572 47.0821 46.0452 47.2901 46.3892 47.5541C46.7332 47.8101 47.0132 48.1101 47.2292 48.4541L46.1012 49.1741C45.9492 48.9421 45.7532 48.7341 45.5132 48.5501C45.2732 48.3661 45.0092 48.2261 44.7212 48.1301C44.4412 48.0261 44.1532 47.9741 43.8572 47.9741C43.2812 47.9741 42.7692 48.1061 42.3212 48.3701C41.8812 48.6341 41.5332 48.9981 41.2772 49.4621C41.0212 49.9181 40.8932 50.4501 40.8932 51.0581C40.8932 51.6501 41.0172 52.1781 41.2652 52.6421C41.5212 53.1061 41.8732 53.4701 42.3212 53.7341C42.7772 53.9981 43.3012 54.1301 43.8932 54.1301C44.3572 54.1301 44.7732 54.0341 45.1412 53.8421C45.5092 53.6501 45.7972 53.3821 46.0052 53.0381C46.2212 52.6941 46.3292 52.2981 46.3292 51.8501L47.6612 51.6821C47.6612 52.4421 47.4972 53.1021 47.1692 53.6621C46.8492 54.2141 46.4012 54.6421 45.8252 54.9461C45.2572 55.2421 44.6012 55.3901 43.8572 55.3901ZM44.3132 51.9581V50.8301H47.6612V51.7661L46.9172 51.9581H44.3132ZM48.5972 55.2461V49.2461H49.9292V55.2461H48.5972ZM49.2692 48.1061C49.0532 48.1061 48.8652 48.0301 48.7052 47.8781C48.5532 47.7181 48.4772 47.5301 48.4772 47.3141C48.4772 47.0981 48.5532 46.9141 48.7052 46.7621C48.8652 46.6101 49.0532 46.5341 49.2692 46.5341C49.4852 46.5341 49.6692 46.6101 49.8212 46.7621C49.9812 46.9141 50.0612 47.0981 50.0612 47.3141C50.0612 47.5301 49.9812 47.7181 49.8212 47.8781C49.6692 48.0301 49.4852 48.1061 49.2692 48.1061ZM51.8732 55.2461V48.6101C51.8732 47.9781 52.0292 47.4941 52.3412 47.1581C52.6612 46.8141 53.1412 46.6421 53.7812 46.6421C53.9892 46.6421 54.2092 46.6781 54.4412 46.7501C54.6812 46.8141 54.9092 46.9021 55.1252 47.0141L54.6332 48.0101C54.4812 47.9381 54.3452 47.8861 54.2252 47.8541C54.1132 47.8221 54.0132 47.8061 53.9252 47.8061C53.6852 47.8061 53.5052 47.8861 53.3852 48.0461C53.2732 48.1981 53.2172 48.4501 53.2172 48.8021V55.2461H51.8732ZM50.8412 50.3501V49.2461H54.7892V50.3501H50.8412ZM58.0267 55.3901C57.3947 55.3901 56.9107 55.2341 56.5747 54.9221C56.2467 54.6021 56.0827 54.1461 56.0827 53.5541V47.3741H57.4147V53.3021C57.4147 53.5821 57.4787 53.7941 57.6067 53.9381C57.7427 54.0821 57.9387 54.1541 58.1947 54.1541C58.2747 54.1541 58.3627 54.1381 58.4587 54.1061C58.5547 54.0741 58.6627 54.0141 58.7827 53.9261L59.2747 54.9461C59.0667 55.0901 58.8587 55.1981 58.6507 55.2701C58.4427 55.3501 58.2347 55.3901 58.0267 55.3901ZM55.0867 50.3981V49.2461H59.0347V50.3981H55.0867ZM62.2936 55.3901C61.8936 55.3901 61.5256 55.3301 61.1896 55.2101C60.8536 55.0901 60.5656 54.9221 60.3256 54.7061C60.0856 54.4821 59.9016 54.2221 59.7736 53.9261L60.9376 53.4101C61.0576 53.6341 61.2336 53.8221 61.4656 53.9741C61.7056 54.1261 61.9696 54.2021 62.2576 54.2021C62.5696 54.2021 62.8176 54.1501 63.0016 54.0461C63.1936 53.9341 63.2896 53.7821 63.2896 53.5901C63.2896 53.4061 63.2176 53.2661 63.0736 53.1701C62.9296 53.0661 62.7256 52.9821 62.4616 52.9181L61.8976 52.7621C61.3296 52.6181 60.8856 52.3901 60.5656 52.0781C60.2456 51.7581 60.0856 51.3941 60.0856 50.9861C60.0856 50.3861 60.2776 49.9221 60.6616 49.5941C61.0536 49.2661 61.6136 49.1021 62.3416 49.1021C62.7096 49.1021 63.0456 49.1581 63.3496 49.2701C63.6616 49.3741 63.9296 49.5261 64.1536 49.7261C64.3776 49.9181 64.5336 50.1461 64.6216 50.4101L63.5056 50.9141C63.4256 50.7141 63.2736 50.5621 63.0496 50.4581C62.8256 50.3461 62.5776 50.2901 62.3056 50.2901C62.0336 50.2901 61.8216 50.3501 61.6696 50.4701C61.5176 50.5821 61.4416 50.7421 61.4416 50.9501C61.4416 51.0701 61.5096 51.1821 61.6456 51.2861C61.7816 51.3821 61.9776 51.4621 62.2336 51.5261L62.9416 51.6941C63.3336 51.7901 63.6536 51.9421 63.9016 52.1501C64.1496 52.3501 64.3336 52.5781 64.4536 52.8341C64.5736 53.0821 64.6336 53.3341 64.6336 53.5901C64.6336 53.9501 64.5296 54.2661 64.3216 54.5381C64.1216 54.8101 63.8456 55.0221 63.4936 55.1741C63.1416 55.3181 62.7416 55.3901 62.2936 55.3901ZM69.974 56.4461C69.606 55.9581 69.27 55.4301 68.966 54.8621C68.662 54.2861 68.422 53.6781 68.246 53.0381C68.07 52.3981 67.982 51.7341 67.982 51.0461C67.982 50.3501 68.07 49.6861 68.246 49.0541C68.422 48.4141 68.662 47.8101 68.966 47.2421C69.27 46.6661 69.606 46.1341 69.974 45.6461H71.318C70.95 46.1581 70.614 46.7061 70.31 47.2901C70.006 47.8741 69.766 48.4821 69.59 49.1141C69.414 49.7381 69.326 50.3821 69.326 51.0461C69.326 51.7021 69.414 52.3461 69.59 52.9781C69.766 53.6101 70.006 54.2181 70.31 54.8021C70.614 55.3781 70.95 55.9261 71.318 56.4461H69.974ZM72.5674 55.2461V46.8461H75.5314C76.1074 46.8461 76.6154 46.9581 77.0554 47.1821C77.4954 47.4061 77.8394 47.7181 78.0874 48.1181C78.3354 48.5101 78.4594 48.9661 78.4594 49.4861C78.4594 50.0061 78.3274 50.4661 78.0634 50.8661C77.8074 51.2661 77.4514 51.5821 76.9954 51.8141C76.5394 52.0381 76.0234 52.1501 75.4474 52.1501H73.9594V55.2461H72.5674ZM77.2234 55.2461L75.2554 51.8381L76.3354 51.0941L78.7954 55.2461H77.2234ZM73.9594 50.8661H75.5914C75.8634 50.8661 76.1034 50.8061 76.3114 50.6861C76.5274 50.5661 76.6994 50.4021 76.8274 50.1941C76.9634 49.9861 77.0314 49.7501 77.0314 49.4861C77.0314 49.0861 76.8874 48.7581 76.5994 48.5021C76.3114 48.2461 75.9394 48.1181 75.4834 48.1181H73.9594V50.8661ZM82.392 55.3901C81.808 55.3901 81.288 55.2581 80.832 54.9941C80.384 54.7221 80.028 54.3501 79.764 53.8781C79.508 53.4061 79.38 52.8621 79.38 52.2461C79.38 51.6301 79.512 51.0861 79.776 50.6141C80.04 50.1421 80.4 49.7741 80.856 49.5101C81.32 49.2381 81.848 49.1021 82.44 49.1021C82.976 49.1021 83.46 49.2421 83.892 49.5221C84.324 49.7941 84.664 50.1901 84.912 50.7101C85.168 51.2301 85.296 51.8501 85.296 52.5701H80.58L80.76 52.4021C80.76 52.7701 80.84 53.0901 81 53.3621C81.16 53.6261 81.372 53.8301 81.636 53.9741C81.9 54.1181 82.192 54.1901 82.512 54.1901C82.88 54.1901 83.184 54.1101 83.424 53.9501C83.664 53.7821 83.852 53.5661 83.988 53.3021L85.176 53.8061C85.008 54.1261 84.792 54.4061 84.528 54.6461C84.272 54.8861 83.964 55.0701 83.604 55.1981C83.252 55.3261 82.848 55.3901 82.392 55.3901ZM80.844 51.7061L80.652 51.5381H84.036L83.856 51.7061C83.856 51.3781 83.784 51.1101 83.64 50.9021C83.496 50.6861 83.312 50.5261 83.088 50.4221C82.872 50.3101 82.644 50.2541 82.404 50.2541C82.164 50.2541 81.924 50.3101 81.684 50.4221C81.444 50.5261 81.244 50.6861 81.084 50.9021C80.924 51.1101 80.844 51.3781 80.844 51.7061ZM88.4734 55.3901C87.8414 55.3901 87.3574 55.2341 87.0214 54.9221C86.6934 54.6021 86.5294 54.1461 86.5294 53.5541V47.3741H87.8614V53.3021C87.8614 53.5821 87.9254 53.7941 88.0534 53.9381C88.1894 54.0821 88.3854 54.1541 88.6414 54.1541C88.7214 54.1541 88.8094 54.1381 88.9054 54.1061C89.0014 54.0741 89.1094 54.0141 89.2294 53.9261L89.7214 54.9461C89.5134 55.0901 89.3054 55.1981 89.0974 55.2701C88.8894 55.3501 88.6814 55.3901 88.4734 55.3901ZM85.5334 50.3981V49.2461H89.4814V50.3981H85.5334ZM94.1343 55.2461L94.0743 54.1181V52.1621C94.0743 51.7541 94.0303 51.4141 93.9423 51.1421C93.8623 50.8621 93.7263 50.6501 93.5343 50.5061C93.3503 50.3541 93.1023 50.2781 92.7903 50.2781C92.5023 50.2781 92.2503 50.3381 92.0343 50.4581C91.8183 50.5781 91.6343 50.7661 91.4823 51.0221L90.3063 50.5901C90.4343 50.3261 90.6023 50.0821 90.8103 49.8581C91.0263 49.6261 91.2943 49.4421 91.6143 49.3061C91.9423 49.1701 92.3343 49.1021 92.7903 49.1021C93.3743 49.1021 93.8623 49.2181 94.2543 49.4501C94.6463 49.6741 94.9343 49.9981 95.1183 50.4221C95.3103 50.8461 95.4063 51.3581 95.4063 51.9581L95.3703 55.2461H94.1343ZM92.4063 55.3901C91.6863 55.3901 91.1263 55.2301 90.7263 54.9101C90.3343 54.5901 90.1383 54.1381 90.1383 53.5541C90.1383 52.9301 90.3463 52.4541 90.7623 52.1261C91.1863 51.7981 91.7743 51.6341 92.5263 51.6341H94.1343V52.6661H92.9583C92.4223 52.6661 92.0463 52.7421 91.8303 52.8941C91.6143 53.0381 91.5063 53.2461 91.5063 53.5181C91.5063 53.7501 91.5983 53.9341 91.7823 54.0701C91.9743 54.1981 92.2383 54.2621 92.5743 54.2621C92.8783 54.2621 93.1423 54.1941 93.3663 54.0581C93.5903 53.9221 93.7623 53.7421 93.8823 53.5181C94.0103 53.2941 94.0743 53.0421 94.0743 52.7621H94.4703C94.4703 53.5781 94.3063 54.2221 93.9783 54.6941C93.6503 55.1581 93.1263 55.3901 92.4063 55.3901ZM96.6113 55.2461V49.2461H97.9433V55.2461H96.6113ZM97.2833 48.1061C97.0673 48.1061 96.8793 48.0301 96.7193 47.8781C96.5673 47.7181 96.4913 47.5301 96.4913 47.3141C96.4913 47.0981 96.5673 46.9141 96.7193 46.7621C96.8793 46.6101 97.0673 46.5341 97.2833 46.5341C97.4993 46.5341 97.6833 46.6101 97.8353 46.7621C97.9953 46.9141 98.0753 47.0981 98.0753 47.3141C98.0753 47.5301 97.9953 47.7181 97.8353 47.8781C97.6833 48.0301 97.4993 48.1061 97.2833 48.1061ZM99.2873 55.2461V46.8461H100.631V55.2461H99.2873ZM102.975 56.4461H101.631C102.007 55.9261 102.343 55.3781 102.639 54.8021C102.943 54.2181 103.183 53.6101 103.359 52.9781C103.535 52.3461 103.623 51.7021 103.623 51.0461C103.623 50.3821 103.535 49.7381 103.359 49.1141C103.183 48.4821 102.943 47.8741 102.639 47.2901C102.343 46.7061 102.007 46.1581 101.631 45.6461H102.975C103.351 46.1341 103.687 46.6661 103.983 47.2421C104.287 47.8101 104.527 48.4141 104.703 49.0541C104.879 49.6861 104.967 50.3501 104.967 51.0461C104.967 51.7341 104.879 52.3981 104.703 53.0381C104.527 53.6781 104.287 54.2861 103.983 54.8621C103.687 55.4301 103.351 55.9581 102.975 56.4461Z" fill="#292929"/>
<path d="M12.125 64.2461L13.4721 68.392H17.8313L14.3046 70.9543L15.6517 75.1002L12.125 72.5379L8.59829 75.1002L9.94537 70.9543L6.41866 68.392H10.7779L12.125 64.2461Z" fill="#FABD05"/>
<path d="M27.125 64.2461L28.4721 68.392H32.8313L29.3046 70.9543L30.6517 75.1002L27.125 72.5379L23.5983 75.1002L24.9454 70.9543L21.4187 68.392H25.7779L27.125 64.2461Z" fill="#FABD05"/>
<path d="M42.125 64.2461L43.4721 68.392H47.8313L44.3046 70.9543L45.6517 75.1002L42.125 72.5379L38.5983 75.1002L39.9454 70.9543L36.4187 68.392H40.7779L42.125 64.2461Z" fill="#FABD05"/>
<path d="M57.125 64.2461L58.4721 68.392H62.8313L59.3046 70.9543L60.6517 75.1002L57.125 72.5379L53.5983 75.1002L54.9454 70.9543L51.4187 68.392H55.7779L57.125 64.2461Z" fill="#FABD05"/>
<path d="M72.125 64.2461L73.4721 68.392H77.8313L74.3046 70.9543L75.6517 75.1002L72.125 72.5379L68.5983 75.1002L69.9454 70.9543L66.4187 68.392H70.7779L72.125 64.2461Z" fill="#FABD05"/>
</g>
<defs>
<filter id="filter0_b_2499_805" x="-5" y="-5" width="203.594" height="96.0469" filterUnits="userSpaceOnUse" color-interpolation-filters="sRGB">
<feFlood flood-opacity="0" result="BackgroundImageFix"/>
<feGaussianBlur in="BackgroundImageFix" stdDeviation="2.5"/>
<feComposite in2="SourceAlpha" operator="in" result="effect1_backgroundBlur_2499_805"/>
<feBlend mode="normal" in="SourceGraphic" in2="effect1_backgroundBlur_2499_805" result="shape"/>
</filter>
</defs>
</svg>
