<svg width="194" height="87" viewBox="0 0 194 87" fill="none" xmlns="http://www.w3.org/2000/svg">
<g filter="url(#filter0_b_2499_791)">
<rect width="193.593" height="86.0466" rx="6.71632" fill="white"/>
<rect x="6.125" y="6.125" width="181.341" height="26.8653" rx="6.71632" fill="#EDEDED"/>
<path d="M31.0728 24.1953V17.5113C31.0728 16.8873 31.2168 16.4193 31.5048 16.1073C31.8008 15.7873 32.2488 15.6273 32.8488 15.6273C33.0088 15.6273 33.1888 15.6553 33.3888 15.7113C33.5888 15.7673 33.8008 15.8473 34.0248 15.9513L33.6648 16.7073C33.4808 16.6353 33.3248 16.5793 33.1968 16.5393C33.0688 16.4993 32.9608 16.4793 32.8728 16.4793C32.5928 16.4793 32.3808 16.5713 32.2368 16.7553C32.1008 16.9313 32.0328 17.2073 32.0328 17.5833V24.1953H31.0728ZM29.9688 19.0233V18.1953H33.7728V19.0233H29.9688ZM38.7785 24.1953L38.7185 23.0913V18.1953H39.6785V24.1953H38.7785ZM34.5065 21.2673V18.1953H35.4665V21.2673H34.5065ZM35.4665 21.2673C35.4665 21.8593 35.5345 22.3113 35.6705 22.6233C35.8065 22.9353 35.9945 23.1513 36.2345 23.2713C36.4825 23.3833 36.7585 23.4393 37.0625 23.4393C37.5825 23.4393 37.9865 23.2513 38.2745 22.8753C38.5705 22.4993 38.7185 21.9753 38.7185 21.3033H39.1865C39.1865 21.9353 39.0945 22.4793 38.9105 22.9353C38.7265 23.3913 38.4585 23.7393 38.1065 23.9793C37.7625 24.2193 37.3385 24.3393 36.8345 24.3393C36.3705 24.3393 35.9625 24.2473 35.6105 24.0633C35.2585 23.8713 34.9865 23.5713 34.7945 23.1633C34.6025 22.7473 34.5065 22.2113 34.5065 21.5553V21.2673H35.4665ZM41.1139 24.1953V18.1953H42.0139L42.0739 19.2993V24.1953H41.1139ZM45.3259 24.1953V21.1233H46.2859V24.1953H45.3259ZM45.3259 21.1233C45.3259 20.5313 45.2579 20.0793 45.1219 19.7673C44.9859 19.4553 44.7979 19.2433 44.5579 19.1313C44.3179 19.0113 44.0459 18.9513 43.7419 18.9513C43.2139 18.9513 42.8019 19.1393 42.5059 19.5153C42.2179 19.8833 42.0739 20.4073 42.0739 21.0873H41.6059C41.6059 20.4553 41.6979 19.9113 41.8819 19.4553C42.0659 18.9993 42.3339 18.6513 42.6859 18.4113C43.0379 18.1713 43.4619 18.0513 43.9579 18.0513C44.4299 18.0513 44.8379 18.1473 45.1819 18.3393C45.5339 18.5233 45.8059 18.8193 45.9979 19.2273C46.1979 19.6353 46.2939 20.1713 46.2859 20.8353V21.1233H45.3259ZM53.9862 24.1953L53.9382 23.2113V21.0273C53.9382 20.5553 53.8862 20.1673 53.7822 19.8633C53.6782 19.5513 53.5142 19.3153 53.2902 19.1553C53.0662 18.9953 52.7742 18.9153 52.4142 18.9153C52.0862 18.9153 51.8022 18.9833 51.5622 19.1193C51.3302 19.2473 51.1382 19.4553 50.9862 19.7433L50.1222 19.4073C50.2742 19.1273 50.4582 18.8873 50.6742 18.6873C50.8902 18.4793 51.1422 18.3233 51.4302 18.2193C51.7182 18.1073 52.0462 18.0513 52.4142 18.0513C52.9742 18.0513 53.4342 18.1633 53.7942 18.3873C54.1622 18.6033 54.4382 18.9273 54.6222 19.3593C54.8062 19.7833 54.8942 20.3113 54.8862 20.9433L54.8742 24.1953H53.9862ZM52.1862 24.3393C51.4822 24.3393 50.9302 24.1793 50.5302 23.8593C50.1382 23.5313 49.9422 23.0793 49.9422 22.5033C49.9422 21.8953 50.1422 21.4313 50.5422 21.1113C50.9502 20.7833 51.5182 20.6193 52.2462 20.6193H53.9622V21.4233H52.4622C51.9022 21.4233 51.5022 21.5153 51.2622 21.6993C51.0302 21.8833 50.9142 22.1473 50.9142 22.4913C50.9142 22.8033 51.0302 23.0513 51.2622 23.2353C51.4942 23.4113 51.8182 23.4993 52.2342 23.4993C52.5782 23.4993 52.8782 23.4273 53.1342 23.2833C53.3902 23.1313 53.5862 22.9193 53.7222 22.6473C53.8662 22.3673 53.9382 22.0393 53.9382 21.6633H54.3462C54.3462 22.4793 54.1622 23.1313 53.7942 23.6193C53.4262 24.0993 52.8902 24.3393 52.1862 24.3393ZM58.4233 24.3393C57.8393 24.3393 57.3873 24.1873 57.0673 23.8833C56.7473 23.5793 56.5873 23.1513 56.5873 22.5993V16.3233H57.5473V22.5033C57.5473 22.8073 57.6273 23.0433 57.7873 23.2113C57.9553 23.3713 58.1873 23.4513 58.4833 23.4513C58.5793 23.4513 58.6713 23.4393 58.7593 23.4153C58.8553 23.3833 58.9793 23.3113 59.1313 23.1993L59.5033 23.9793C59.2953 24.1153 59.1073 24.2073 58.9393 24.2553C58.7713 24.3113 58.5993 24.3393 58.4233 24.3393ZM55.5433 19.0473V18.1953H59.3473V19.0473H55.5433ZM62.7185 24.3393C62.1345 24.3393 61.6825 24.1873 61.3625 23.8833C61.0425 23.5793 60.8825 23.1513 60.8825 22.5993V16.3233H61.8425V22.5033C61.8425 22.8073 61.9225 23.0433 62.0825 23.2113C62.2505 23.3713 62.4825 23.4513 62.7785 23.4513C62.8745 23.4513 62.9665 23.4393 63.0545 23.4153C63.1505 23.3833 63.2745 23.3113 63.4265 23.1993L63.7985 23.9793C63.5905 24.1153 63.4025 24.2073 63.2345 24.2553C63.0665 24.3113 62.8945 24.3393 62.7185 24.3393ZM59.8385 19.0473V18.1953H63.6425V19.0473H59.8385ZM65.2857 20.9433C65.2857 20.2953 65.4097 19.7713 65.6577 19.3713C65.9057 18.9633 66.2217 18.6633 66.6057 18.4713C66.9977 18.2713 67.4097 18.1713 67.8417 18.1713V19.0713C67.4897 19.0713 67.1497 19.1313 66.8217 19.2513C66.5017 19.3633 66.2377 19.5513 66.0297 19.8153C65.8217 20.0793 65.7177 20.4393 65.7177 20.8953L65.2857 20.9433ZM64.7577 24.1953V18.1953H65.7177V24.1953H64.7577ZM72.2683 24.1953L72.2203 23.2113V21.0273C72.2203 20.5553 72.1683 20.1673 72.0643 19.8633C71.9603 19.5513 71.7963 19.3153 71.5723 19.1553C71.3483 18.9953 71.0563 18.9153 70.6963 18.9153C70.3683 18.9153 70.0843 18.9833 69.8443 19.1193C69.6123 19.2473 69.4203 19.4553 69.2683 19.7433L68.4043 19.4073C68.5563 19.1273 68.7403 18.8873 68.9563 18.6873C69.1723 18.4793 69.4243 18.3233 69.7123 18.2193C70.0003 18.1073 70.3283 18.0513 70.6963 18.0513C71.2563 18.0513 71.7163 18.1633 72.0763 18.3873C72.4443 18.6033 72.7203 18.9273 72.9043 19.3593C73.0883 19.7833 73.1763 20.3113 73.1683 20.9433L73.1563 24.1953H72.2683ZM70.4683 24.3393C69.7643 24.3393 69.2123 24.1793 68.8123 23.8593C68.4203 23.5313 68.2243 23.0793 68.2243 22.5033C68.2243 21.8953 68.4243 21.4313 68.8243 21.1113C69.2323 20.7833 69.8003 20.6193 70.5283 20.6193H72.2443V21.4233H70.7443C70.1843 21.4233 69.7843 21.5153 69.5443 21.6993C69.3123 21.8833 69.1963 22.1473 69.1963 22.4913C69.1963 22.8033 69.3123 23.0513 69.5443 23.2353C69.7763 23.4113 70.1003 23.4993 70.5163 23.4993C70.8603 23.4993 71.1603 23.4273 71.4163 23.2833C71.6723 23.1313 71.8683 22.9193 72.0043 22.6473C72.1483 22.3673 72.2203 22.0393 72.2203 21.6633H72.6283C72.6283 22.4793 72.4443 23.1313 72.0763 23.6193C71.7083 24.0993 71.1723 24.3393 70.4683 24.3393ZM77.1255 24.3393C76.5335 24.3393 76.0095 24.2073 75.5535 23.9433C75.0975 23.6713 74.7415 23.2993 74.4855 22.8273C74.2295 22.3553 74.1015 21.8113 74.1015 21.1953C74.1015 20.5793 74.2255 20.0353 74.4735 19.5633C74.7295 19.0913 75.0855 18.7233 75.5415 18.4593C75.9975 18.1873 76.5175 18.0513 77.1015 18.0513C77.6775 18.0513 78.1935 18.1833 78.6495 18.4473C79.1055 18.7113 79.4535 19.0833 79.6935 19.5633L78.8175 19.9593C78.6575 19.6393 78.4255 19.3913 78.1215 19.2153C77.8175 19.0313 77.4695 18.9393 77.0775 18.9393C76.6855 18.9393 76.3375 19.0353 76.0335 19.2273C75.7375 19.4193 75.5015 19.6873 75.3255 20.0313C75.1575 20.3673 75.0735 20.7553 75.0735 21.1953C75.0735 21.6353 75.1575 22.0273 75.3255 22.3713C75.5015 22.7073 75.7415 22.9713 76.0455 23.1633C76.3575 23.3553 76.7095 23.4513 77.1015 23.4513C77.4935 23.4513 77.8415 23.3513 78.1455 23.1513C78.4575 22.9513 78.6935 22.6713 78.8535 22.3113L79.7295 22.7073C79.4895 23.2193 79.1415 23.6193 78.6855 23.9073C78.2295 24.1953 77.7095 24.3393 77.1255 24.3393ZM82.9577 24.3393C82.3737 24.3393 81.9217 24.1873 81.6017 23.8833C81.2817 23.5793 81.1217 23.1513 81.1217 22.5993V16.3233H82.0817V22.5033C82.0817 22.8073 82.1617 23.0433 82.3217 23.2113C82.4897 23.3713 82.7217 23.4513 83.0177 23.4513C83.1137 23.4513 83.2057 23.4393 83.2937 23.4153C83.3897 23.3833 83.5137 23.3113 83.6657 23.1993L84.0377 23.9793C83.8297 24.1153 83.6417 24.2073 83.4737 24.2553C83.3057 24.3113 83.1337 24.3393 82.9577 24.3393ZM80.0777 19.0473V18.1953H83.8817V19.0473H80.0777ZM85.0569 24.1953V18.1953H86.0169V24.1953H85.0569ZM85.5489 16.8033C85.3889 16.8033 85.2489 16.7433 85.1289 16.6233C85.0089 16.5033 84.9489 16.3633 84.9489 16.2033C84.9489 16.0353 85.0089 15.8953 85.1289 15.7833C85.2489 15.6633 85.3889 15.6033 85.5489 15.6033C85.7169 15.6033 85.8569 15.6633 85.9689 15.7833C86.0889 15.8953 86.1489 16.0353 86.1489 16.2033C86.1489 16.3633 86.0889 16.5033 85.9689 16.6233C85.8569 16.7433 85.7169 16.8033 85.5489 16.8033ZM90.1979 24.3393C89.6139 24.3393 89.0939 24.2073 88.6379 23.9433C88.1899 23.6713 87.8379 23.2993 87.5819 22.8273C87.3259 22.3553 87.1979 21.8113 87.1979 21.1953C87.1979 20.5793 87.3219 20.0353 87.5699 19.5633C87.8259 19.0913 88.1779 18.7233 88.6259 18.4593C89.0819 18.1873 89.5979 18.0513 90.1739 18.0513C90.7659 18.0513 91.2859 18.1873 91.7339 18.4593C92.1899 18.7233 92.5419 19.0913 92.7899 19.5633C93.0459 20.0353 93.1739 20.5793 93.1739 21.1953C93.1739 21.8113 93.0459 22.3553 92.7899 22.8273C92.5419 23.2993 92.1939 23.6713 91.7459 23.9433C91.2979 24.2073 90.7819 24.3393 90.1979 24.3393ZM90.1979 23.4513C90.5979 23.4513 90.9459 23.3553 91.2419 23.1633C91.5379 22.9713 91.7699 22.7073 91.9379 22.3713C92.1139 22.0353 92.2019 21.6433 92.2019 21.1953C92.2019 20.7473 92.1139 20.3553 91.9379 20.0193C91.7699 19.6833 91.5339 19.4193 91.2299 19.2273C90.9259 19.0353 90.5739 18.9393 90.1739 18.9393C89.7819 18.9393 89.4339 19.0353 89.1299 19.2273C88.8339 19.4193 88.5979 19.6833 88.4219 20.0193C88.2539 20.3553 88.1699 20.7473 88.1699 21.1953C88.1699 21.6353 88.2539 22.0273 88.4219 22.3713C88.5979 22.7073 88.8379 22.9713 89.1419 23.1633C89.4539 23.3553 89.8059 23.4513 90.1979 23.4513ZM94.2669 24.1953V18.1953H95.1669L95.2269 19.2993V24.1953H94.2669ZM98.4789 24.1953V21.1233H99.4389V24.1953H98.4789ZM98.4789 21.1233C98.4789 20.5313 98.4109 20.0793 98.2749 19.7673C98.1389 19.4553 97.9509 19.2433 97.7109 19.1313C97.4709 19.0113 97.1989 18.9513 96.8949 18.9513C96.3669 18.9513 95.9549 19.1393 95.6589 19.5153C95.3709 19.8833 95.2269 20.4073 95.2269 21.0873H94.7589C94.7589 20.4553 94.8509 19.9113 95.0349 19.4553C95.2189 18.9993 95.4869 18.6513 95.8389 18.4113C96.1909 18.1713 96.6149 18.0513 97.1109 18.0513C97.5829 18.0513 97.9909 18.1473 98.3349 18.3393C98.6869 18.5233 98.9589 18.8193 99.1509 19.2273C99.3509 19.6353 99.4469 20.1713 99.4389 20.8353V21.1233H98.4789ZM102.818 24.3393C102.378 24.3393 101.994 24.2753 101.666 24.1473C101.338 24.0113 101.062 23.8353 100.838 23.6193C100.622 23.4033 100.466 23.1673 100.37 22.9113L101.21 22.5633C101.346 22.8353 101.55 23.0553 101.822 23.2233C102.094 23.3913 102.394 23.4753 102.722 23.4753C103.098 23.4753 103.414 23.4033 103.67 23.2593C103.926 23.1073 104.054 22.8953 104.054 22.6233C104.054 22.3753 103.958 22.1753 103.766 22.0233C103.582 21.8713 103.306 21.7473 102.938 21.6513L102.362 21.4953C101.818 21.3513 101.394 21.1353 101.09 20.8473C100.786 20.5513 100.634 20.2193 100.634 19.8513C100.634 19.2833 100.818 18.8433 101.186 18.5313C101.562 18.2113 102.118 18.0513 102.854 18.0513C103.206 18.0513 103.526 18.1033 103.814 18.2073C104.102 18.3113 104.35 18.4593 104.558 18.6513C104.766 18.8353 104.918 19.0553 105.014 19.3113L104.174 19.6833C104.07 19.4113 103.898 19.2153 103.658 19.0953C103.418 18.9753 103.126 18.9153 102.782 18.9153C102.414 18.9153 102.126 18.9953 101.918 19.1553C101.71 19.3073 101.606 19.5233 101.606 19.8033C101.606 19.9633 101.69 20.1153 101.858 20.2593C102.034 20.3953 102.29 20.5073 102.626 20.5953L103.226 20.7513C103.618 20.8473 103.946 20.9913 104.21 21.1833C104.474 21.3673 104.674 21.5793 104.81 21.8193C104.946 22.0593 105.014 22.3153 105.014 22.5873C105.014 22.9473 104.918 23.2593 104.726 23.5233C104.534 23.7873 104.274 23.9913 103.946 24.1353C103.618 24.2713 103.242 24.3393 102.818 24.3393ZM108.853 24.1953V18.1953H109.813V24.1953H108.853ZM109.345 16.8033C109.185 16.8033 109.045 16.7433 108.925 16.6233C108.805 16.5033 108.745 16.3633 108.745 16.2033C108.745 16.0353 108.805 15.8953 108.925 15.7833C109.045 15.6633 109.185 15.6033 109.345 15.6033C109.513 15.6033 109.653 15.6633 109.765 15.7833C109.885 15.8953 109.945 16.0353 109.945 16.2033C109.945 16.3633 109.885 16.5033 109.765 16.6233C109.653 16.7433 109.513 16.8033 109.345 16.8033ZM111.342 24.1953V18.1953H112.242L112.302 19.2993V24.1953H111.342ZM115.554 24.1953V21.1233H116.514V24.1953H115.554ZM115.554 21.1233C115.554 20.5313 115.486 20.0793 115.35 19.7673C115.214 19.4553 115.026 19.2433 114.786 19.1313C114.546 19.0113 114.274 18.9513 113.97 18.9513C113.442 18.9513 113.03 19.1393 112.734 19.5153C112.446 19.8833 112.302 20.4073 112.302 21.0873H111.834C111.834 20.4553 111.926 19.9113 112.11 19.4553C112.294 18.9993 112.562 18.6513 112.914 18.4113C113.266 18.1713 113.69 18.0513 114.186 18.0513C114.658 18.0513 115.066 18.1473 115.41 18.3393C115.762 18.5233 116.034 18.8193 116.226 19.2273C116.426 19.6353 116.522 20.1713 116.514 20.8353V21.1233H115.554ZM122.618 24.3393C122.178 24.3393 121.794 24.2753 121.466 24.1473C121.138 24.0113 120.862 23.8353 120.638 23.6193C120.422 23.4033 120.266 23.1673 120.17 22.9113L121.01 22.5633C121.146 22.8353 121.35 23.0553 121.622 23.2233C121.894 23.3913 122.194 23.4753 122.522 23.4753C122.898 23.4753 123.214 23.4033 123.47 23.2593C123.726 23.1073 123.854 22.8953 123.854 22.6233C123.854 22.3753 123.758 22.1753 123.566 22.0233C123.382 21.8713 123.106 21.7473 122.738 21.6513L122.162 21.4953C121.618 21.3513 121.194 21.1353 120.89 20.8473C120.586 20.5513 120.434 20.2193 120.434 19.8513C120.434 19.2833 120.618 18.8433 120.986 18.5313C121.362 18.2113 121.918 18.0513 122.654 18.0513C123.006 18.0513 123.326 18.1033 123.614 18.2073C123.902 18.3113 124.15 18.4593 124.358 18.6513C124.566 18.8353 124.718 19.0553 124.814 19.3113L123.974 19.6833C123.87 19.4113 123.698 19.2153 123.458 19.0953C123.218 18.9753 122.926 18.9153 122.582 18.9153C122.214 18.9153 121.926 18.9953 121.718 19.1553C121.51 19.3073 121.406 19.5233 121.406 19.8033C121.406 19.9633 121.49 20.1153 121.658 20.2593C121.834 20.3953 122.09 20.5073 122.426 20.5953L123.026 20.7513C123.418 20.8473 123.746 20.9913 124.01 21.1833C124.274 21.3673 124.474 21.5793 124.61 21.8193C124.746 22.0593 124.814 22.3153 124.814 22.5873C124.814 22.9473 124.718 23.2593 124.526 23.5233C124.334 23.7873 124.074 23.9913 123.746 24.1353C123.418 24.2713 123.042 24.3393 122.618 24.3393ZM125.928 26.5953V18.1953H126.828L126.888 19.2993V26.5953H125.928ZM128.916 24.3393C128.412 24.3393 127.968 24.2073 127.584 23.9433C127.208 23.6793 126.916 23.3113 126.708 22.8393C126.5 22.3593 126.396 21.8113 126.396 21.1953C126.396 20.5713 126.5 20.0233 126.708 19.5513C126.916 19.0793 127.208 18.7113 127.584 18.4473C127.968 18.1833 128.412 18.0513 128.916 18.0513C129.452 18.0513 129.924 18.1833 130.332 18.4473C130.74 18.7113 131.056 19.0793 131.28 19.5513C131.512 20.0233 131.628 20.5713 131.628 21.1953C131.628 21.8113 131.512 22.3593 131.28 22.8393C131.056 23.3113 130.74 23.6793 130.332 23.9433C129.924 24.2073 129.452 24.3393 128.916 24.3393ZM128.7 23.4633C129.076 23.4633 129.408 23.3673 129.696 23.1753C129.992 22.9833 130.224 22.7153 130.392 22.3713C130.568 22.0273 130.656 21.6353 130.656 21.1953C130.656 20.7553 130.572 20.3633 130.404 20.0193C130.244 19.6753 130.016 19.4073 129.72 19.2153C129.424 19.0233 129.088 18.9273 128.712 18.9273C128.36 18.9273 128.044 19.0233 127.764 19.2153C127.492 19.4073 127.276 19.6753 127.116 20.0193C126.964 20.3633 126.888 20.7553 126.888 21.1953C126.888 21.6353 126.964 22.0273 127.116 22.3713C127.276 22.7153 127.492 22.9833 127.764 23.1753C128.036 23.3673 128.348 23.4633 128.7 23.4633ZM135.37 24.3393C134.786 24.3393 134.266 24.2073 133.81 23.9433C133.362 23.6713 133.01 23.2993 132.754 22.8273C132.498 22.3553 132.37 21.8113 132.37 21.1953C132.37 20.5793 132.494 20.0353 132.742 19.5633C132.998 19.0913 133.35 18.7233 133.798 18.4593C134.254 18.1873 134.77 18.0513 135.346 18.0513C135.938 18.0513 136.458 18.1873 136.906 18.4593C137.362 18.7233 137.714 19.0913 137.962 19.5633C138.218 20.0353 138.346 20.5793 138.346 21.1953C138.346 21.8113 138.218 22.3553 137.962 22.8273C137.714 23.2993 137.366 23.6713 136.918 23.9433C136.47 24.2073 135.954 24.3393 135.37 24.3393ZM135.37 23.4513C135.77 23.4513 136.118 23.3553 136.414 23.1633C136.71 22.9713 136.942 22.7073 137.11 22.3713C137.286 22.0353 137.374 21.6433 137.374 21.1953C137.374 20.7473 137.286 20.3553 137.11 20.0193C136.942 19.6833 136.706 19.4193 136.402 19.2273C136.098 19.0353 135.746 18.9393 135.346 18.9393C134.954 18.9393 134.606 19.0353 134.302 19.2273C134.006 19.4193 133.77 19.6833 133.594 20.0193C133.426 20.3553 133.342 20.7473 133.342 21.1953C133.342 21.6353 133.426 22.0273 133.594 22.3713C133.77 22.7073 134.01 22.9713 134.314 23.1633C134.626 23.3553 134.978 23.4513 135.37 23.4513ZM140.375 22.2633L139.763 21.6033L142.955 18.1953H144.167L140.375 22.2633ZM139.439 24.1953V15.7953H140.399V24.1953H139.439ZM143.219 24.1953L140.939 20.7513L141.563 20.0793L144.407 24.1953H143.219ZM148.59 24.1953L148.542 23.2113V21.0273C148.542 20.5553 148.49 20.1673 148.386 19.8633C148.282 19.5513 148.118 19.3153 147.894 19.1553C147.67 18.9953 147.378 18.9153 147.018 18.9153C146.69 18.9153 146.406 18.9833 146.166 19.1193C145.934 19.2473 145.742 19.4553 145.59 19.7433L144.726 19.4073C144.878 19.1273 145.062 18.8873 145.278 18.6873C145.494 18.4793 145.746 18.3233 146.034 18.2193C146.322 18.1073 146.65 18.0513 147.018 18.0513C147.578 18.0513 148.038 18.1633 148.398 18.3873C148.766 18.6033 149.042 18.9273 149.226 19.3593C149.41 19.7833 149.498 20.3113 149.49 20.9433L149.478 24.1953H148.59ZM146.79 24.3393C146.086 24.3393 145.534 24.1793 145.134 23.8593C144.742 23.5313 144.546 23.0793 144.546 22.5033C144.546 21.8953 144.746 21.4313 145.146 21.1113C145.554 20.7833 146.122 20.6193 146.85 20.6193H148.566V21.4233H147.066C146.506 21.4233 146.106 21.5153 145.866 21.6993C145.634 21.8833 145.518 22.1473 145.518 22.4913C145.518 22.8033 145.634 23.0513 145.866 23.2353C146.098 23.4113 146.422 23.4993 146.838 23.4993C147.182 23.4993 147.482 23.4273 147.738 23.2833C147.994 23.1313 148.19 22.9193 148.326 22.6473C148.47 22.3673 148.542 22.0393 148.542 21.6633H148.95C148.95 22.4793 148.766 23.1313 148.398 23.6193C148.03 24.0993 147.494 24.3393 146.79 24.3393ZM150.771 24.1953V18.1953H151.671L151.731 19.2993V24.1953H150.771ZM154.983 24.1953V21.1233H155.943V24.1953H154.983ZM154.983 21.1233C154.983 20.5313 154.915 20.0793 154.779 19.7673C154.643 19.4553 154.455 19.2433 154.215 19.1313C153.975 19.0113 153.703 18.9513 153.399 18.9513C152.871 18.9513 152.459 19.1393 152.163 19.5153C151.875 19.8833 151.731 20.4073 151.731 21.0873H151.263C151.263 20.4553 151.355 19.9113 151.539 19.4553C151.723 18.9993 151.991 18.6513 152.343 18.4113C152.695 18.1713 153.119 18.0513 153.615 18.0513C154.087 18.0513 154.495 18.1473 154.839 18.3393C155.191 18.5233 155.463 18.8193 155.655 19.2273C155.855 19.6353 155.951 20.1713 155.943 20.8353V21.1233H154.983ZM159.851 24.3393C159.267 24.3393 158.751 24.2073 158.303 23.9433C157.855 23.6713 157.503 23.2993 157.247 22.8273C156.999 22.3553 156.875 21.8113 156.875 21.1953C156.875 20.5793 156.999 20.0353 157.247 19.5633C157.503 19.0913 157.851 18.7233 158.291 18.4593C158.739 18.1873 159.251 18.0513 159.827 18.0513C160.387 18.0513 160.871 18.1913 161.279 18.4713C161.687 18.7433 162.003 19.1273 162.227 19.6233C162.451 20.1193 162.563 20.7033 162.563 21.3753H157.607L157.847 21.1713C157.847 21.6513 157.931 22.0633 158.099 22.4073C158.275 22.7513 158.519 23.0153 158.831 23.1993C159.143 23.3753 159.499 23.4633 159.899 23.4633C160.323 23.4633 160.679 23.3633 160.967 23.1633C161.263 22.9633 161.491 22.6993 161.651 22.3713L162.479 22.7913C162.327 23.1033 162.123 23.3753 161.867 23.6073C161.619 23.8393 161.323 24.0193 160.979 24.1473C160.643 24.2753 160.267 24.3393 159.851 24.3393ZM157.907 20.7633L157.655 20.5713H161.795L161.543 20.7753C161.543 20.3913 161.467 20.0593 161.315 19.7793C161.163 19.4993 160.959 19.2833 160.703 19.1313C160.447 18.9793 160.151 18.9033 159.815 18.9033C159.487 18.9033 159.175 18.9793 158.879 19.1313C158.591 19.2833 158.355 19.4993 158.171 19.7793C157.995 20.0513 157.907 20.3793 157.907 20.7633Z" fill="black"/>
<path d="M22.8645 22.4296L25.1397 24.7048L24.3884 25.4562L22.1131 23.1809C21.295 23.8354 20.2575 24.2269 19.1291 24.2269C16.4897 24.2269 14.3477 22.0849 14.3477 19.4455C14.3477 16.8061 16.4897 14.6641 19.1291 14.6641C21.7685 14.6641 23.9105 16.8061 23.9105 19.4455C23.9105 20.5739 23.519 21.6114 22.8645 22.4296ZM21.7986 22.0353C22.4482 21.3658 22.848 20.4526 22.848 19.4455C22.848 17.3908 21.1838 15.7266 19.1291 15.7266C17.0744 15.7266 15.4102 17.3908 15.4102 19.4455C15.4102 21.5002 17.0744 23.1644 19.1291 23.1644C20.1362 23.1644 21.0494 22.7646 21.7189 22.115L21.7986 22.0353Z" fill="black"/>
<path d="M8.861 55.2461V48.1181H6.281V46.8461H12.833V48.1181H10.253V55.2461H8.861ZM13.892 52.0541C13.892 51.4061 14.016 50.8741 14.264 50.4581C14.512 50.0421 14.832 49.7341 15.224 49.5341C15.624 49.3261 16.04 49.2221 16.472 49.2221V50.5061C16.104 50.5061 15.756 50.5581 15.428 50.6621C15.108 50.7581 14.848 50.9181 14.648 51.1421C14.448 51.3661 14.348 51.6621 14.348 52.0301L13.892 52.0541ZM13.004 55.2461V49.2461H14.348V55.2461H13.004ZM20.7834 55.2461L20.7234 54.1181V52.1621C20.7234 51.7541 20.6794 51.4141 20.5914 51.1421C20.5114 50.8621 20.3754 50.6501 20.1834 50.5061C19.9994 50.3541 19.7514 50.2781 19.4394 50.2781C19.1514 50.2781 18.8994 50.3381 18.6834 50.4581C18.4674 50.5781 18.2834 50.7661 18.1314 51.0221L16.9554 50.5901C17.0834 50.3261 17.2514 50.0821 17.4594 49.8581C17.6754 49.6261 17.9434 49.4421 18.2634 49.3061C18.5914 49.1701 18.9834 49.1021 19.4394 49.1021C20.0234 49.1021 20.5114 49.2181 20.9034 49.4501C21.2954 49.6741 21.5834 49.9981 21.7674 50.4221C21.9594 50.8461 22.0554 51.3581 22.0554 51.9581L22.0194 55.2461H20.7834ZM19.0554 55.3901C18.3354 55.3901 17.7754 55.2301 17.3754 54.9101C16.9834 54.5901 16.7874 54.1381 16.7874 53.5541C16.7874 52.9301 16.9954 52.4541 17.4114 52.1261C17.8354 51.7981 18.4234 51.6341 19.1754 51.6341H20.7834V52.6661H19.6074C19.0714 52.6661 18.6954 52.7421 18.4794 52.8941C18.2634 53.0381 18.1554 53.2461 18.1554 53.5181C18.1554 53.7501 18.2474 53.9341 18.4314 54.0701C18.6234 54.1981 18.8874 54.2621 19.2234 54.2621C19.5274 54.2621 19.7914 54.1941 20.0154 54.0581C20.2394 53.9221 20.4114 53.7421 20.5314 53.5181C20.6594 53.2941 20.7234 53.0421 20.7234 52.7621H21.1194C21.1194 53.5781 20.9554 54.2221 20.6274 54.6941C20.2994 55.1581 19.7754 55.3901 19.0554 55.3901ZM23.2603 55.2461V49.2461H24.5923V55.2461H23.2603ZM23.9323 48.1061C23.7163 48.1061 23.5283 48.0301 23.3683 47.8781C23.2163 47.7181 23.1403 47.5301 23.1403 47.3141C23.1403 47.0981 23.2163 46.9141 23.3683 46.7621C23.5283 46.6101 23.7163 46.5341 23.9323 46.5341C24.1483 46.5341 24.3323 46.6101 24.4843 46.7621C24.6443 46.9141 24.7243 47.0981 24.7243 47.3141C24.7243 47.5301 24.6443 47.7181 24.4843 47.8781C24.3323 48.0301 24.1483 48.1061 23.9323 48.1061ZM25.9363 55.2461V46.8461H27.2803V55.2461H25.9363ZM28.5323 55.2461V46.8461H29.8763V54.1301L29.8043 55.2461H28.5323ZM31.7723 55.3901C31.2683 55.3901 30.8323 55.2621 30.4643 55.0061C30.1043 54.7421 29.8283 54.3741 29.6363 53.9021C29.4443 53.4301 29.3483 52.8781 29.3483 52.2461C29.3483 51.6061 29.4443 51.0541 29.6363 50.5901C29.8283 50.1181 30.1043 49.7541 30.4643 49.4981C30.8323 49.2341 31.2683 49.1021 31.7723 49.1021C32.3163 49.1021 32.7883 49.2341 33.1883 49.4981C33.5963 49.7541 33.9123 50.1181 34.1363 50.5901C34.3683 51.0541 34.4843 51.6061 34.4843 52.2461C34.4843 52.8781 34.3683 53.4301 34.1363 53.9021C33.9123 54.3741 33.5963 54.7421 33.1883 55.0061C32.7883 55.2621 32.3163 55.3901 31.7723 55.3901ZM31.4363 54.1661C31.7563 54.1661 32.0403 54.0861 32.2883 53.9261C32.5363 53.7581 32.7323 53.5301 32.8763 53.2421C33.0283 52.9541 33.1043 52.6221 33.1043 52.2461C33.1043 51.8701 33.0323 51.5381 32.8883 51.2501C32.7523 50.9621 32.5603 50.7381 32.3123 50.5781C32.0643 50.4181 31.7763 50.3381 31.4483 50.3381C31.1443 50.3381 30.8723 50.4181 30.6323 50.5781C30.3923 50.7381 30.2043 50.9621 30.0683 51.2501C29.9403 51.5381 29.8763 51.8701 29.8763 52.2461C29.8763 52.6221 29.9403 52.9541 30.0683 53.2421C30.2043 53.5301 30.3883 53.7581 30.6203 53.9261C30.8603 54.0861 31.1323 54.1661 31.4363 54.1661ZM35.3938 55.2461V46.8461H36.7378V55.2461H35.3938ZM41.6498 55.2461L41.5898 54.1181V52.1621C41.5898 51.7541 41.5458 51.4141 41.4578 51.1421C41.3778 50.8621 41.2418 50.6501 41.0498 50.5061C40.8658 50.3541 40.6178 50.2781 40.3058 50.2781C40.0178 50.2781 39.7658 50.3381 39.5498 50.4581C39.3338 50.5781 39.1498 50.7661 38.9978 51.0221L37.8218 50.5901C37.9498 50.3261 38.1178 50.0821 38.3258 49.8581C38.5418 49.6261 38.8098 49.4421 39.1298 49.3061C39.4578 49.1701 39.8498 49.1021 40.3058 49.1021C40.8898 49.1021 41.3778 49.2181 41.7698 49.4501C42.1618 49.6741 42.4498 49.9981 42.6338 50.4221C42.8258 50.8461 42.9218 51.3581 42.9218 51.9581L42.8858 55.2461H41.6498ZM39.9218 55.3901C39.2018 55.3901 38.6418 55.2301 38.2418 54.9101C37.8498 54.5901 37.6538 54.1381 37.6538 53.5541C37.6538 52.9301 37.8618 52.4541 38.2778 52.1261C38.7018 51.7981 39.2898 51.6341 40.0418 51.6341H41.6498V52.6661H40.4738C39.9378 52.6661 39.5618 52.7421 39.3458 52.8941C39.1298 53.0381 39.0218 53.2461 39.0218 53.5181C39.0218 53.7501 39.1138 53.9341 39.2978 54.0701C39.4898 54.1981 39.7538 54.2621 40.0898 54.2621C40.3938 54.2621 40.6578 54.1941 40.8818 54.0581C41.1058 53.9221 41.2778 53.7421 41.3978 53.5181C41.5258 53.2941 41.5898 53.0421 41.5898 52.7621H41.9858C41.9858 53.5781 41.8218 54.2221 41.4938 54.6941C41.1658 55.1581 40.6418 55.3901 39.9218 55.3901ZM43.7428 55.2461V54.2501L46.9348 50.3741H43.7428V49.2461H48.6268V50.2301L45.4348 54.1301H48.6508V55.2461H43.7428ZM52.2795 55.3901C51.6955 55.3901 51.1755 55.2581 50.7195 54.9941C50.2715 54.7221 49.9155 54.3501 49.6515 53.8781C49.3955 53.4061 49.2675 52.8621 49.2675 52.2461C49.2675 51.6301 49.3995 51.0861 49.6635 50.6141C49.9275 50.1421 50.2875 49.7741 50.7435 49.5101C51.2075 49.2381 51.7355 49.1021 52.3275 49.1021C52.8635 49.1021 53.3475 49.2421 53.7795 49.5221C54.2115 49.7941 54.5515 50.1901 54.7995 50.7101C55.0555 51.2301 55.1835 51.8501 55.1835 52.5701H50.4675L50.6475 52.4021C50.6475 52.7701 50.7275 53.0901 50.8875 53.3621C51.0475 53.6261 51.2595 53.8301 51.5235 53.9741C51.7875 54.1181 52.0795 54.1901 52.3995 54.1901C52.7675 54.1901 53.0715 54.1101 53.3115 53.9501C53.5515 53.7821 53.7395 53.5661 53.8755 53.3021L55.0635 53.8061C54.8955 54.1261 54.6795 54.4061 54.4155 54.6461C54.1595 54.8861 53.8515 55.0701 53.4915 55.1981C53.1395 55.3261 52.7355 55.3901 52.2795 55.3901ZM50.7315 51.7061L50.5395 51.5381H53.9235L53.7435 51.7061C53.7435 51.3781 53.6715 51.1101 53.5275 50.9021C53.3835 50.6861 53.1995 50.5261 52.9755 50.4221C52.7595 50.3101 52.5315 50.2541 52.2915 50.2541C52.0515 50.2541 51.8115 50.3101 51.5715 50.4221C51.3315 50.5261 51.1315 50.6861 50.9715 50.9021C50.8115 51.1101 50.7315 51.3781 50.7315 51.7061ZM56.8609 52.0541C56.8609 51.4061 56.9849 50.8741 57.2329 50.4581C57.4809 50.0421 57.8009 49.7341 58.1929 49.5341C58.5929 49.3261 59.0089 49.2221 59.4409 49.2221V50.5061C59.0729 50.5061 58.7249 50.5581 58.3969 50.6621C58.0769 50.7581 57.8169 50.9181 57.6169 51.1421C57.4169 51.3661 57.3169 51.6621 57.3169 52.0301L56.8609 52.0541ZM55.9729 55.2461V49.2461H57.3169V55.2461H55.9729ZM64.7388 55.2461V48.1181H62.1588V46.8461H68.7108V48.1181H66.1308V55.2461H64.7388ZM71.3723 55.3901C70.7723 55.3901 70.2363 55.2581 69.7643 54.9941C69.3003 54.7221 68.9363 54.3501 68.6723 53.8781C68.4083 53.4061 68.2763 52.8621 68.2763 52.2461C68.2763 51.6301 68.4043 51.0861 68.6603 50.6141C68.9243 50.1421 69.2883 49.7741 69.7523 49.5101C70.2163 49.2381 70.7483 49.1021 71.3483 49.1021C71.9483 49.1021 72.4803 49.2381 72.9443 49.5101C73.4083 49.7741 73.7683 50.1421 74.0243 50.6141C74.2883 51.0861 74.4203 51.6301 74.4203 52.2461C74.4203 52.8621 74.2923 53.4061 74.0363 53.8781C73.7803 54.3501 73.4203 54.7221 72.9563 54.9941C72.4923 55.2581 71.9643 55.3901 71.3723 55.3901ZM71.3723 54.1541C71.7003 54.1541 71.9923 54.0741 72.2483 53.9141C72.5043 53.7461 72.7043 53.5221 72.8483 53.2421C72.9923 52.9541 73.0643 52.6221 73.0643 52.2461C73.0643 51.8701 72.9883 51.5421 72.8363 51.2621C72.6923 50.9741 72.4923 50.7501 72.2363 50.5901C71.9803 50.4221 71.6843 50.3381 71.3483 50.3381C71.0123 50.3381 70.7163 50.4181 70.4603 50.5781C70.2043 50.7381 70.0043 50.9621 69.8603 51.2501C69.7163 51.5381 69.6443 51.8701 69.6443 52.2461C69.6443 52.6221 69.7163 52.9541 69.8603 53.2421C70.0123 53.5221 70.2163 53.7461 70.4723 53.9141C70.7363 54.0741 71.0363 54.1541 71.3723 54.1541ZM79.3649 55.2461L79.2929 54.1421V49.2461H80.6249V55.2461H79.3649ZM75.2129 52.3181V49.2461H76.5569V52.3181H75.2129ZM76.5569 52.3181C76.5569 52.7901 76.6129 53.1581 76.7249 53.4221C76.8369 53.6861 76.9889 53.8701 77.1809 53.9741C77.3809 54.0781 77.6089 54.1301 77.8649 54.1301C78.3209 54.1381 78.6729 53.9901 78.9209 53.6861C79.1689 53.3821 79.2929 52.9461 79.2929 52.3781H79.7969C79.7969 53.0101 79.7009 53.5541 79.5089 54.0101C79.3249 54.4581 79.0609 54.8021 78.7169 55.0421C78.3809 55.2741 77.9729 55.3901 77.4929 55.3901C77.0209 55.3901 76.6129 55.2941 76.2689 55.1021C75.9329 54.9101 75.6729 54.6101 75.4889 54.2021C75.3049 53.7941 75.2129 53.2701 75.2129 52.6301V52.3181H76.5569ZM82.7664 52.0541C82.7664 51.4061 82.8904 50.8741 83.1384 50.4581C83.3864 50.0421 83.7064 49.7341 84.0984 49.5341C84.4984 49.3261 84.9144 49.2221 85.3464 49.2221V50.5061C84.9784 50.5061 84.6304 50.5581 84.3024 50.6621C83.9824 50.7581 83.7224 50.9181 83.5224 51.1421C83.3224 51.3661 83.2224 51.6621 83.2224 52.0301L82.7664 52.0541ZM81.8784 55.2461V49.2461H83.2224V55.2461H81.8784ZM88.1818 55.3901C87.7818 55.3901 87.4138 55.3301 87.0778 55.2101C86.7418 55.0901 86.4538 54.9221 86.2138 54.7061C85.9738 54.4821 85.7898 54.2221 85.6618 53.9261L86.8258 53.4101C86.9458 53.6341 87.1218 53.8221 87.3538 53.9741C87.5938 54.1261 87.8578 54.2021 88.1458 54.2021C88.4578 54.2021 88.7058 54.1501 88.8898 54.0461C89.0818 53.9341 89.1778 53.7821 89.1778 53.5901C89.1778 53.4061 89.1058 53.2661 88.9618 53.1701C88.8178 53.0661 88.6138 52.9821 88.3498 52.9181L87.7858 52.7621C87.2178 52.6181 86.7738 52.3901 86.4538 52.0781C86.1338 51.7581 85.9738 51.3941 85.9738 50.9861C85.9738 50.3861 86.1658 49.9221 86.5498 49.5941C86.9418 49.2661 87.5018 49.1021 88.2298 49.1021C88.5978 49.1021 88.9338 49.1581 89.2378 49.2701C89.5498 49.3741 89.8178 49.5261 90.0418 49.7261C90.2658 49.9181 90.4218 50.1461 90.5098 50.4101L89.3938 50.9141C89.3138 50.7141 89.1618 50.5621 88.9378 50.4581C88.7138 50.3461 88.4658 50.2901 88.1938 50.2901C87.9218 50.2901 87.7098 50.3501 87.5578 50.4701C87.4058 50.5821 87.3298 50.7421 87.3298 50.9501C87.3298 51.0701 87.3978 51.1821 87.5338 51.2861C87.6698 51.3821 87.8658 51.4621 88.1218 51.5261L88.8298 51.6941C89.2218 51.7901 89.5418 51.9421 89.7898 52.1501C90.0378 52.3501 90.2218 52.5781 90.3418 52.8341C90.4618 53.0821 90.5218 53.3341 90.5218 53.5901C90.5218 53.9501 90.4178 54.2661 90.2098 54.5381C90.0098 54.8101 89.7338 55.0221 89.3818 55.1741C89.0298 55.3181 88.6298 55.3901 88.1818 55.3901ZM95.8621 56.4461C95.4941 55.9581 95.1581 55.4301 94.8541 54.8621C94.5501 54.2861 94.3101 53.6781 94.1341 53.0381C93.9581 52.3981 93.8701 51.7341 93.8701 51.0461C93.8701 50.3501 93.9581 49.6861 94.1341 49.0541C94.3101 48.4141 94.5501 47.8101 94.8541 47.2421C95.1581 46.6661 95.4941 46.1341 95.8621 45.6461H97.2061C96.8381 46.1581 96.5021 46.7061 96.1981 47.2901C95.8941 47.8741 95.6541 48.4821 95.4781 49.1141C95.3021 49.7381 95.2141 50.3821 95.2141 51.0461C95.2141 51.7021 95.3021 52.3461 95.4781 52.9781C95.6541 53.6101 95.8941 54.2181 96.1981 54.8021C96.5021 55.3781 96.8381 55.9261 97.2061 56.4461H95.8621ZM100.196 55.2461V48.1181H97.6155V46.8461H104.168V48.1181H101.588V55.2461H100.196ZM106.829 55.3901C106.229 55.3901 105.693 55.2581 105.221 54.9941C104.757 54.7221 104.393 54.3501 104.129 53.8781C103.865 53.4061 103.733 52.8621 103.733 52.2461C103.733 51.6301 103.861 51.0861 104.117 50.6141C104.381 50.1421 104.745 49.7741 105.209 49.5101C105.673 49.2381 106.205 49.1021 106.805 49.1021C107.405 49.1021 107.937 49.2381 108.401 49.5101C108.865 49.7741 109.225 50.1421 109.481 50.6141C109.745 51.0861 109.877 51.6301 109.877 52.2461C109.877 52.8621 109.749 53.4061 109.493 53.8781C109.237 54.3501 108.877 54.7221 108.413 54.9941C107.949 55.2581 107.421 55.3901 106.829 55.3901ZM106.829 54.1541C107.157 54.1541 107.449 54.0741 107.705 53.9141C107.961 53.7461 108.161 53.5221 108.305 53.2421C108.449 52.9541 108.521 52.6221 108.521 52.2461C108.521 51.8701 108.445 51.5421 108.293 51.2621C108.149 50.9741 107.949 50.7501 107.693 50.5901C107.437 50.4221 107.141 50.3381 106.805 50.3381C106.469 50.3381 106.173 50.4181 105.917 50.5781C105.661 50.7381 105.461 50.9621 105.317 51.2501C105.173 51.5381 105.101 51.8701 105.101 52.2461C105.101 52.6221 105.173 52.9541 105.317 53.2421C105.469 53.5221 105.673 53.7461 105.929 53.9141C106.193 54.0741 106.493 54.1541 106.829 54.1541ZM114.822 55.2461L114.75 54.1421V49.2461H116.082V55.2461H114.822ZM110.67 52.3181V49.2461H112.014V52.3181H110.67ZM112.014 52.3181C112.014 52.7901 112.07 53.1581 112.182 53.4221C112.294 53.6861 112.446 53.8701 112.638 53.9741C112.838 54.0781 113.066 54.1301 113.322 54.1301C113.778 54.1381 114.13 53.9901 114.378 53.6861C114.626 53.3821 114.75 52.9461 114.75 52.3781H115.254C115.254 53.0101 115.158 53.5541 114.966 54.0101C114.782 54.4581 114.518 54.8021 114.174 55.0421C113.838 55.2741 113.43 55.3901 112.95 55.3901C112.478 55.3901 112.07 55.2941 111.726 55.1021C111.39 54.9101 111.13 54.6101 110.946 54.2021C110.762 53.7941 110.67 53.2701 110.67 52.6301V52.3181H112.014ZM118.223 52.0541C118.223 51.4061 118.347 50.8741 118.595 50.4581C118.843 50.0421 119.163 49.7341 119.555 49.5341C119.955 49.3261 120.371 49.2221 120.803 49.2221V50.5061C120.435 50.5061 120.087 50.5581 119.759 50.6621C119.439 50.7581 119.179 50.9181 118.979 51.1421C118.779 51.3661 118.679 51.6621 118.679 52.0301L118.223 52.0541ZM117.335 55.2461V49.2461H118.679V55.2461H117.335ZM121.538 55.2461V49.2461H122.87V55.2461H121.538ZM122.21 48.1061C121.994 48.1061 121.806 48.0301 121.646 47.8781C121.494 47.7181 121.418 47.5301 121.418 47.3141C121.418 47.0981 121.494 46.9141 121.646 46.7621C121.806 46.6101 121.994 46.5341 122.21 46.5341C122.426 46.5341 122.61 46.6101 122.762 46.7621C122.922 46.9141 123.002 47.0981 123.002 47.3141C123.002 47.5301 122.922 47.7181 122.762 47.8781C122.61 48.0301 122.426 48.1061 122.21 48.1061ZM126.398 55.3901C125.998 55.3901 125.63 55.3301 125.294 55.2101C124.958 55.0901 124.67 54.9221 124.43 54.7061C124.19 54.4821 124.006 54.2221 123.878 53.9261L125.042 53.4101C125.162 53.6341 125.338 53.8221 125.57 53.9741C125.81 54.1261 126.074 54.2021 126.362 54.2021C126.674 54.2021 126.922 54.1501 127.106 54.0461C127.298 53.9341 127.394 53.7821 127.394 53.5901C127.394 53.4061 127.322 53.2661 127.178 53.1701C127.034 53.0661 126.83 52.9821 126.566 52.9181L126.002 52.7621C125.434 52.6181 124.99 52.3901 124.67 52.0781C124.35 51.7581 124.19 51.3941 124.19 50.9861C124.19 50.3861 124.382 49.9221 124.766 49.5941C125.158 49.2661 125.718 49.1021 126.446 49.1021C126.814 49.1021 127.15 49.1581 127.454 49.2701C127.766 49.3741 128.034 49.5261 128.258 49.7261C128.482 49.9181 128.638 50.1461 128.726 50.4101L127.61 50.9141C127.53 50.7141 127.378 50.5621 127.154 50.4581C126.93 50.3461 126.682 50.2901 126.41 50.2901C126.138 50.2901 125.926 50.3501 125.774 50.4701C125.622 50.5821 125.546 50.7421 125.546 50.9501C125.546 51.0701 125.614 51.1821 125.75 51.2861C125.886 51.3821 126.082 51.4621 126.338 51.5261L127.046 51.6941C127.438 51.7901 127.758 51.9421 128.006 52.1501C128.254 52.3501 128.438 52.5781 128.558 52.8341C128.678 53.0821 128.738 53.3341 128.738 53.5901C128.738 53.9501 128.634 54.2661 128.426 54.5381C128.226 54.8101 127.95 55.0221 127.598 55.1741C127.246 55.3181 126.846 55.3901 126.398 55.3901ZM129.564 55.2461V49.2461H130.824L130.884 50.0501C131.068 49.7381 131.304 49.5021 131.592 49.3421C131.88 49.1821 132.208 49.1021 132.576 49.1021C133.056 49.1021 133.464 49.2101 133.8 49.4261C134.136 49.6421 134.38 49.9701 134.532 50.4101C134.708 49.9861 134.956 49.6621 135.276 49.4381C135.596 49.2141 135.972 49.1021 136.404 49.1021C137.1 49.1021 137.636 49.3261 138.012 49.7741C138.388 50.2141 138.572 50.8941 138.564 51.8141V55.2461H137.232V52.1741C137.232 51.6941 137.18 51.3261 137.076 51.0701C136.972 50.8061 136.832 50.6221 136.656 50.5181C136.48 50.4141 136.276 50.3621 136.044 50.3621C135.628 50.3541 135.304 50.5021 135.072 50.8061C134.848 51.1101 134.736 51.5461 134.736 52.1141V55.2461H133.392V52.1741C133.392 51.6941 133.34 51.3261 133.236 51.0701C133.14 50.8061 133.004 50.6221 132.828 50.5181C132.652 50.4141 132.448 50.3621 132.216 50.3621C131.8 50.3541 131.476 50.5021 131.244 50.8061C131.02 51.1101 130.908 51.5461 130.908 52.1141V55.2461H129.564ZM140.787 56.4461H139.443C139.819 55.9261 140.155 55.3781 140.451 54.8021C140.755 54.2181 140.995 53.6101 141.171 52.9781C141.347 52.3461 141.435 51.7021 141.435 51.0461C141.435 50.3821 141.347 49.7381 141.171 49.1141C140.995 48.4821 140.755 47.8741 140.451 47.2901C140.155 46.7061 139.819 46.1581 139.443 45.6461H140.787C141.163 46.1341 141.499 46.6661 141.795 47.2421C142.099 47.8101 142.339 48.4141 142.515 49.0541C142.691 49.6861 142.779 50.3501 142.779 51.0461C142.779 51.7341 142.691 52.3981 142.515 53.0381C142.339 53.6781 142.099 54.2861 141.795 54.8621C141.499 55.4301 141.163 55.9581 140.787 56.4461Z" fill="#292929"/>
<path d="M12.125 64.2461L13.4721 68.392H17.8313L14.3046 70.9543L15.6517 75.1002L12.125 72.5379L8.59829 75.1002L9.94537 70.9543L6.41866 68.392H10.7779L12.125 64.2461Z" fill="#FABD05"/>
<path d="M27.125 64.2461L28.4721 68.392H32.8313L29.3046 70.9543L30.6517 75.1002L27.125 72.5379L23.5983 75.1002L24.9454 70.9543L21.4187 68.392H25.7779L27.125 64.2461Z" fill="#FABD05"/>
<path d="M42.125 64.2461L43.4721 68.392H47.8313L44.3046 70.9543L45.6517 75.1002L42.125 72.5379L38.5983 75.1002L39.9454 70.9543L36.4187 68.392H40.7779L42.125 64.2461Z" fill="#FABD05"/>
<path d="M57.125 64.2461L58.4721 68.392H62.8313L59.3046 70.9543L60.6517 75.1002L57.125 72.5379L53.5983 75.1002L54.9454 70.9543L51.4187 68.392H55.7779L57.125 64.2461Z" fill="#FABD05"/>
<path d="M72.125 64.2461L73.4721 68.392H77.8313L74.3046 70.9543L75.6517 75.1002L72.125 72.5379L68.5983 75.1002L69.9454 70.9543L66.4187 68.392H70.7779L72.125 64.2461Z" fill="#FABD05"/>
</g>
<defs>
<filter id="filter0_b_2499_791" x="-5" y="-5" width="203.594" height="96.0469" filterUnits="userSpaceOnUse" color-interpolation-filters="sRGB">
<feFlood flood-opacity="0" result="BackgroundImageFix"/>
<feGaussianBlur in="BackgroundImageFix" stdDeviation="2.5"/>
<feComposite in2="SourceAlpha" operator="in" result="effect1_backgroundBlur_2499_791"/>
<feBlend mode="normal" in="SourceGraphic" in2="effect1_backgroundBlur_2499_791" result="shape"/>
</filter>
</defs>
</svg>
