<svg xmlns="http://www.w3.org/2000/svg" width="64" height="35" viewBox="0 0 64 35" fill="none">
  <path
    d="M62.6354 0.191406H1.36462C0.613689 0.191406 0 0.858329 0 1.67371V33.3237C0 34.1399 0.613689 34.8068 1.36462 34.8068H62.6361C63.3863 34.8068 64 34.1399 64 33.3245V1.67371C64 0.858329 63.3863 0.191406 62.6354 0.191406ZM57.632 7.58602L53.1143 27.2706C53.014 27.7068 52.5803 28.0753 52.1664 28.0753H49.7444C49.3291 28.0753 48.8889 27.7068 48.7829 27.2706L45.8894 15.3629C45.8126 15.0699 45.6064 14.8799 45.3646 14.8799C45.115 14.8799 44.9102 15.0776 44.8427 15.386L42.3339 27.2722C42.2421 27.7076 41.8169 28.076 41.4052 28.076H38.8992C38.4839 28.076 38.043 27.7076 37.9371 27.2714L34.016 11.1729C33.9044 10.7129 33.6114 10.4276 33.253 10.4276C33.0318 10.4276 32.8107 10.536 32.6123 10.7406L30.1305 13.3029C29.7294 13.7176 29.3141 14.146 29.6782 15.3422L33.5616 27.3445L33.5815 27.4052C33.605 27.4745 33.6149 27.5268 33.6149 27.5745C33.6149 27.8506 33.408 28.0753 33.1534 28.0753H30.198C29.7764 28.0753 29.3092 27.7068 29.1783 27.2714L26.6368 18.8122C26.4476 18.1606 26.1284 18.0245 25.8937 18.0245C25.6676 18.0245 25.435 18.1506 25.1833 18.4106L23.882 19.7545C23.2683 20.3876 23.0912 20.8368 23.0912 21.756V27.3099C23.0912 27.7314 22.7755 28.0745 22.3872 28.0745H19.9253C19.5371 28.0745 19.2213 27.7314 19.2213 27.3099V20.0499C19.2213 19.3037 18.6624 18.6968 17.9762 18.6968H11.451C10.7641 18.6968 10.2059 19.3037 10.2059 20.0499V27.3099C10.2059 27.7314 9.89013 28.0745 9.50187 28.0745H7.05209C6.66382 28.0745 6.34809 27.7314 6.34809 27.3099V7.68833C6.34809 7.26679 6.66382 6.92371 7.05209 6.92371H9.50187C9.89013 6.92371 10.2059 7.26679 10.2059 7.68833V13.9129C10.2059 14.6591 10.7648 15.266 11.451 15.266H17.9762C18.6631 15.266 19.2213 14.6591 19.2213 13.9129V7.68833C19.2213 7.26679 19.5371 6.92371 19.9253 6.92371H22.3872C22.7755 6.92371 23.0912 7.26679 23.0912 7.68833V13.9129C23.0912 14.5453 23.4091 14.7691 23.6814 14.7691C23.872 14.7691 24.0676 14.6706 24.2645 14.4753L31.2462 7.5591C31.6622 7.14679 32.0988 6.92217 32.2069 6.92217H33.6043H36.074C36.4857 6.92217 36.9116 7.29064 37.0041 7.72525L39.6992 20.6422C39.7547 20.8906 39.9545 21.0645 40.1856 21.0645C40.416 21.0645 40.6087 20.8945 40.6649 20.6383L43.3806 7.72679C43.4731 7.29064 43.899 6.92294 44.3108 6.92294H46.4796C46.8935 6.92294 47.3287 7.29141 47.4297 7.72756L50.4277 20.6529C50.4818 20.8876 50.6816 21.0522 50.9134 21.0522C51.1538 21.0522 51.3465 20.8829 51.3934 20.6329L53.8816 7.72602C53.9655 7.29064 54.3822 6.92294 54.7911 6.92294H57.157C57.3312 6.92294 57.4748 6.98987 57.5623 7.11141C57.6491 7.23371 57.674 7.40217 57.632 7.58602Z"
    fill="white" />
</svg>
