<svg width="194" height="87" viewBox="0 0 194 87" fill="none" xmlns="http://www.w3.org/2000/svg">
<g filter="url(#filter0_b_2499_819)">
<rect width="193.593" height="86.0466" rx="6.71632" fill="white"/>
<rect x="6.125" y="6.125" width="181.341" height="26.8653" rx="6.71632" fill="#EDEDED"/>
<path d="M30.4728 24.1953V15.7953H31.4328V24.1953H30.4728ZM35.5215 24.3393C34.9375 24.3393 34.4175 24.2073 33.9615 23.9433C33.5135 23.6713 33.1615 23.2993 32.9055 22.8273C32.6495 22.3553 32.5215 21.8113 32.5215 21.1953C32.5215 20.5793 32.6455 20.0353 32.8935 19.5633C33.1495 19.0913 33.5015 18.7233 33.9495 18.4593C34.4055 18.1873 34.9215 18.0513 35.4975 18.0513C36.0895 18.0513 36.6095 18.1873 37.0575 18.4593C37.5135 18.7233 37.8655 19.0913 38.1135 19.5633C38.3695 20.0353 38.4975 20.5793 38.4975 21.1953C38.4975 21.8113 38.3695 22.3553 38.1135 22.8273C37.8655 23.2993 37.5175 23.6713 37.0695 23.9433C36.6215 24.2073 36.1055 24.3393 35.5215 24.3393ZM35.5215 23.4513C35.9215 23.4513 36.2695 23.3553 36.5655 23.1633C36.8615 22.9713 37.0935 22.7073 37.2615 22.3713C37.4375 22.0353 37.5255 21.6433 37.5255 21.1953C37.5255 20.7473 37.4375 20.3553 37.2615 20.0193C37.0935 19.6833 36.8575 19.4193 36.5535 19.2273C36.2495 19.0353 35.8975 18.9393 35.4975 18.9393C35.1055 18.9393 34.7575 19.0353 34.4535 19.2273C34.1575 19.4193 33.9215 19.6833 33.7455 20.0193C33.5775 20.3553 33.4935 20.7473 33.4935 21.1953C33.4935 21.6353 33.5775 22.0273 33.7455 22.3713C33.9215 22.7073 34.1615 22.9713 34.4655 23.1633C34.7775 23.3553 35.1295 23.4513 35.5215 23.4513ZM42.2665 24.3393C41.6745 24.3393 41.1505 24.2073 40.6945 23.9433C40.2385 23.6713 39.8825 23.2993 39.6265 22.8273C39.3705 22.3553 39.2425 21.8113 39.2425 21.1953C39.2425 20.5793 39.3665 20.0353 39.6145 19.5633C39.8705 19.0913 40.2265 18.7233 40.6825 18.4593C41.1385 18.1873 41.6585 18.0513 42.2425 18.0513C42.8185 18.0513 43.3345 18.1833 43.7905 18.4473C44.2465 18.7113 44.5945 19.0833 44.8345 19.5633L43.9585 19.9593C43.7985 19.6393 43.5665 19.3913 43.2625 19.2153C42.9585 19.0313 42.6105 18.9393 42.2185 18.9393C41.8265 18.9393 41.4785 19.0353 41.1745 19.2273C40.8785 19.4193 40.6425 19.6873 40.4665 20.0313C40.2985 20.3673 40.2145 20.7553 40.2145 21.1953C40.2145 21.6353 40.2985 22.0273 40.4665 22.3713C40.6425 22.7073 40.8825 22.9713 41.1865 23.1633C41.4985 23.3553 41.8505 23.4513 42.2425 23.4513C42.6345 23.4513 42.9825 23.3513 43.2865 23.1513C43.5985 22.9513 43.8345 22.6713 43.9945 22.3113L44.8705 22.7073C44.6305 23.2193 44.2825 23.6193 43.8265 23.9073C43.3705 24.1953 42.8505 24.3393 42.2665 24.3393ZM49.5387 24.1953L49.4907 23.2113V21.0273C49.4907 20.5553 49.4387 20.1673 49.3347 19.8633C49.2307 19.5513 49.0667 19.3153 48.8427 19.1553C48.6187 18.9953 48.3267 18.9153 47.9667 18.9153C47.6387 18.9153 47.3547 18.9833 47.1147 19.1193C46.8827 19.2473 46.6907 19.4553 46.5387 19.7433L45.6747 19.4073C45.8267 19.1273 46.0107 18.8873 46.2267 18.6873C46.4427 18.4793 46.6947 18.3233 46.9827 18.2193C47.2707 18.1073 47.5987 18.0513 47.9667 18.0513C48.5267 18.0513 48.9867 18.1633 49.3467 18.3873C49.7147 18.6033 49.9907 18.9273 50.1747 19.3593C50.3587 19.7833 50.4467 20.3113 50.4387 20.9433L50.4267 24.1953H49.5387ZM47.7387 24.3393C47.0347 24.3393 46.4827 24.1793 46.0827 23.8593C45.6907 23.5313 45.4947 23.0793 45.4947 22.5033C45.4947 21.8953 45.6947 21.4313 46.0947 21.1113C46.5027 20.7833 47.0707 20.6193 47.7987 20.6193H49.5147V21.4233H48.0147C47.4547 21.4233 47.0547 21.5153 46.8147 21.6993C46.5827 21.8833 46.4667 22.1473 46.4667 22.4913C46.4667 22.8033 46.5827 23.0513 46.8147 23.2353C47.0467 23.4113 47.3707 23.4993 47.7867 23.4993C48.1307 23.4993 48.4307 23.4273 48.6867 23.2833C48.9427 23.1313 49.1387 22.9193 49.2747 22.6473C49.4187 22.3673 49.4907 22.0393 49.4907 21.6633H49.8987C49.8987 22.4793 49.7147 23.1313 49.3467 23.6193C48.9787 24.0993 48.4427 24.3393 47.7387 24.3393ZM51.7198 24.1953V15.7953H52.6798V24.1953H51.7198ZM59.5174 24.3393C58.9254 24.3393 58.4014 24.2073 57.9454 23.9433C57.4894 23.6713 57.1334 23.2993 56.8774 22.8273C56.6214 22.3553 56.4934 21.8113 56.4934 21.1953C56.4934 20.5793 56.6174 20.0353 56.8654 19.5633C57.1214 19.0913 57.4774 18.7233 57.9334 18.4593C58.3894 18.1873 58.9094 18.0513 59.4934 18.0513C60.0694 18.0513 60.5854 18.1833 61.0414 18.4473C61.4974 18.7113 61.8454 19.0833 62.0854 19.5633L61.2094 19.9593C61.0494 19.6393 60.8174 19.3913 60.5134 19.2153C60.2094 19.0313 59.8614 18.9393 59.4694 18.9393C59.0774 18.9393 58.7294 19.0353 58.4254 19.2273C58.1294 19.4193 57.8934 19.6873 57.7174 20.0313C57.5494 20.3673 57.4654 20.7553 57.4654 21.1953C57.4654 21.6353 57.5494 22.0273 57.7174 22.3713C57.8934 22.7073 58.1334 22.9713 58.4374 23.1633C58.7494 23.3553 59.1014 23.4513 59.4934 23.4513C59.8854 23.4513 60.2334 23.3513 60.5374 23.1513C60.8494 22.9513 61.0854 22.6713 61.2454 22.3113L62.1214 22.7073C61.8814 23.2193 61.5334 23.6193 61.0774 23.9073C60.6214 24.1953 60.1014 24.3393 59.5174 24.3393ZM63.0936 24.1953V15.7953H64.0536V24.1953H63.0936ZM67.3176 24.1953V21.1233H68.2776V24.1953H67.3176ZM67.3176 21.1233C67.3176 20.5313 67.2456 20.0793 67.1016 19.7673C66.9656 19.4553 66.7776 19.2433 66.5376 19.1313C66.2976 19.0113 66.0256 18.9513 65.7216 18.9513C65.1936 18.9513 64.7816 19.1393 64.4856 19.5153C64.1976 19.8833 64.0536 20.4073 64.0536 21.0873H63.5856C63.5856 20.4553 63.6776 19.9113 63.8616 19.4553C64.0536 18.9993 64.3256 18.6513 64.6776 18.4113C65.0296 18.1713 65.4536 18.0513 65.9496 18.0513C66.4136 18.0513 66.8216 18.1473 67.1736 18.3393C67.5256 18.5233 67.7976 18.8193 67.9896 19.2273C68.1896 19.6353 68.2856 20.1713 68.2776 20.8353V21.1233H67.3176ZM73.241 24.1953L73.193 23.2113V21.0273C73.193 20.5553 73.141 20.1673 73.037 19.8633C72.933 19.5513 72.769 19.3153 72.545 19.1553C72.321 18.9953 72.029 18.9153 71.669 18.9153C71.341 18.9153 71.057 18.9833 70.817 19.1193C70.585 19.2473 70.393 19.4553 70.241 19.7433L69.377 19.4073C69.529 19.1273 69.713 18.8873 69.929 18.6873C70.145 18.4793 70.397 18.3233 70.685 18.2193C70.973 18.1073 71.301 18.0513 71.669 18.0513C72.229 18.0513 72.689 18.1633 73.049 18.3873C73.417 18.6033 73.693 18.9273 73.877 19.3593C74.061 19.7833 74.149 20.3113 74.141 20.9433L74.129 24.1953H73.241ZM71.441 24.3393C70.737 24.3393 70.185 24.1793 69.785 23.8593C69.393 23.5313 69.197 23.0793 69.197 22.5033C69.197 21.8953 69.397 21.4313 69.797 21.1113C70.205 20.7833 70.773 20.6193 71.501 20.6193H73.217V21.4233H71.717C71.157 21.4233 70.757 21.5153 70.517 21.6993C70.285 21.8833 70.169 22.1473 70.169 22.4913C70.169 22.8033 70.285 23.0513 70.517 23.2353C70.749 23.4113 71.073 23.4993 71.489 23.4993C71.833 23.4993 72.133 23.4273 72.389 23.2833C72.645 23.1313 72.841 22.9193 72.977 22.6473C73.121 22.3673 73.193 22.0393 73.193 21.6633H73.601C73.601 22.4793 73.417 23.1313 73.049 23.6193C72.681 24.0993 72.145 24.3393 71.441 24.3393ZM75.9502 20.9433C75.9502 20.2953 76.0742 19.7713 76.3222 19.3713C76.5702 18.9633 76.8862 18.6633 77.2702 18.4713C77.6622 18.2713 78.0742 18.1713 78.5062 18.1713V19.0713C78.1542 19.0713 77.8142 19.1313 77.4862 19.2513C77.1662 19.3633 76.9022 19.5513 76.6942 19.8153C76.4862 20.0793 76.3822 20.4393 76.3822 20.8953L75.9502 20.9433ZM75.4222 24.1953V18.1953H76.3822V24.1953H75.4222ZM79.2969 24.1953V18.1953H80.2569V24.1953H79.2969ZM79.7889 16.8033C79.6289 16.8033 79.4889 16.7433 79.3689 16.6233C79.2489 16.5033 79.1889 16.3633 79.1889 16.2033C79.1889 16.0353 79.2489 15.8953 79.3689 15.7833C79.4889 15.6633 79.6289 15.6033 79.7889 15.6033C79.9569 15.6033 80.0969 15.6633 80.2089 15.7833C80.3289 15.8953 80.3889 16.0353 80.3889 16.2033C80.3889 16.3633 80.3289 16.5033 80.2089 16.6233C80.0969 16.7433 79.9569 16.8033 79.7889 16.8033ZM84.0419 24.3393C83.4579 24.3393 83.0059 24.1873 82.6859 23.8833C82.3659 23.5793 82.2059 23.1513 82.2059 22.5993V16.3233H83.1659V22.5033C83.1659 22.8073 83.2459 23.0433 83.4059 23.2113C83.5739 23.3713 83.8059 23.4513 84.1019 23.4513C84.1979 23.4513 84.2899 23.4393 84.3779 23.4153C84.4739 23.3833 84.5979 23.3113 84.7499 23.1993L85.1219 23.9793C84.9139 24.1153 84.7259 24.2073 84.5579 24.2553C84.3899 24.3113 84.2179 24.3393 84.0419 24.3393ZM81.1619 19.0473V18.1953H84.9659V19.0473H81.1619ZM86.6211 26.7393C86.4691 26.7393 86.2931 26.7073 86.0931 26.6433C85.8931 26.5873 85.6811 26.5113 85.4571 26.4153L85.8171 25.6113C86.0011 25.6913 86.1611 25.7513 86.2971 25.7913C86.4411 25.8313 86.5531 25.8513 86.6331 25.8513C86.8491 25.8513 87.0251 25.7913 87.1611 25.6713C87.3051 25.5593 87.4251 25.3953 87.5211 25.1793L88.2051 23.5473L90.4251 18.1953H91.4571L88.5771 25.0353C88.4251 25.3873 88.2651 25.6913 88.0971 25.9473C87.9371 26.2033 87.7411 26.3993 87.5091 26.5353C87.2771 26.6713 86.9811 26.7393 86.6211 26.7393ZM87.9411 24.1953L85.3491 18.1953H86.3691L88.6011 23.5353L88.8891 24.1953H87.9411ZM100.33 24.1953L102.358 18.1953H103.33L101.29 24.1953H100.33ZM96.2503 24.1953L98.2783 18.1953H99.1783L97.1743 24.1953H96.2503ZM96.2023 24.1953L94.1623 18.1953H95.1343L97.1383 24.1953H96.2023ZM100.33 24.1953L98.3263 18.1953H99.2383L101.242 24.1953H100.33ZM106.564 24.3393C105.98 24.3393 105.46 24.2073 105.004 23.9433C104.556 23.6713 104.204 23.2993 103.948 22.8273C103.692 22.3553 103.564 21.8113 103.564 21.1953C103.564 20.5793 103.688 20.0353 103.936 19.5633C104.192 19.0913 104.544 18.7233 104.992 18.4593C105.448 18.1873 105.964 18.0513 106.54 18.0513C107.132 18.0513 107.652 18.1873 108.1 18.4593C108.556 18.7233 108.908 19.0913 109.156 19.5633C109.412 20.0353 109.54 20.5793 109.54 21.1953C109.54 21.8113 109.412 22.3553 109.156 22.8273C108.908 23.2993 108.56 23.6713 108.112 23.9433C107.664 24.2073 107.148 24.3393 106.564 24.3393ZM106.564 23.4513C106.964 23.4513 107.312 23.3553 107.608 23.1633C107.904 22.9713 108.136 22.7073 108.304 22.3713C108.48 22.0353 108.568 21.6433 108.568 21.1953C108.568 20.7473 108.48 20.3553 108.304 20.0193C108.136 19.6833 107.9 19.4193 107.596 19.2273C107.292 19.0353 106.94 18.9393 106.54 18.9393C106.148 18.9393 105.8 19.0353 105.496 19.2273C105.2 19.4193 104.964 19.6833 104.788 20.0193C104.62 20.3553 104.536 20.7473 104.536 21.1953C104.536 21.6353 104.62 22.0273 104.788 22.3713C104.964 22.7073 105.204 22.9713 105.508 23.1633C105.82 23.3553 106.172 23.4513 106.564 23.4513ZM111.161 20.9433C111.161 20.2953 111.285 19.7713 111.533 19.3713C111.781 18.9633 112.097 18.6633 112.481 18.4713C112.873 18.2713 113.285 18.1713 113.717 18.1713V19.0713C113.365 19.0713 113.025 19.1313 112.697 19.2513C112.377 19.3633 112.113 19.5513 111.905 19.8153C111.697 20.0793 111.593 20.4393 111.593 20.8953L111.161 20.9433ZM110.633 24.1953V18.1953H111.593V24.1953H110.633ZM115.383 22.2633L114.771 21.6033L117.963 18.1953H119.175L115.383 22.2633ZM114.447 24.1953V15.7953H115.407V24.1953H114.447ZM118.227 24.1953L115.947 20.7513L116.571 20.0793L119.415 24.1953H118.227Z" fill="black"/>
<path d="M22.8645 22.4296L25.1397 24.7048L24.3884 25.4562L22.1131 23.1809C21.295 23.8354 20.2575 24.2269 19.1291 24.2269C16.4897 24.2269 14.3477 22.0849 14.3477 19.4455C14.3477 16.8061 16.4897 14.6641 19.1291 14.6641C21.7685 14.6641 23.9105 16.8061 23.9105 19.4455C23.9105 20.5739 23.519 21.6114 22.8645 22.4296ZM21.7986 22.0353C22.4482 21.3658 22.848 20.4526 22.848 19.4455C22.848 17.3908 21.1838 15.7266 19.1291 15.7266C17.0744 15.7266 15.4102 17.3908 15.4102 19.4455C15.4102 21.5002 17.0744 23.1644 19.1291 23.1644C20.1362 23.1644 21.0494 22.7646 21.7189 22.115L21.7986 22.0353Z" fill="black"/>
<path d="M7.121 55.2461V46.8461H12.293V48.1181H8.513V50.3501H11.849V51.5981H8.513V53.9741H12.329V55.2461H7.121ZM16.5151 55.3901C15.8991 55.3901 15.3551 55.2581 14.8831 54.9941C14.4111 54.7221 14.0391 54.3501 13.7671 53.8781C13.5031 53.4061 13.3711 52.8621 13.3711 52.2461C13.3711 51.6301 13.5031 51.0861 13.7671 50.6141C14.0391 50.1421 14.4071 49.7741 14.8711 49.5101C15.3431 49.2381 15.8831 49.1021 16.4911 49.1021C17.0831 49.1021 17.6191 49.2461 18.0991 49.5341C18.5791 49.8141 18.9351 50.2181 19.1671 50.7461L17.9191 51.2261C17.7911 50.9621 17.5951 50.7501 17.3311 50.5901C17.0671 50.4301 16.7671 50.3501 16.4311 50.3501C16.1031 50.3501 15.8111 50.4341 15.5551 50.6021C15.2991 50.7621 15.0991 50.9861 14.9551 51.2741C14.8111 51.5541 14.7391 51.8781 14.7391 52.2461C14.7391 52.6141 14.8111 52.9421 14.9551 53.2301C15.1071 53.5101 15.3111 53.7341 15.5671 53.9021C15.8311 54.0621 16.1271 54.1421 16.4551 54.1421C16.7911 54.1421 17.0911 54.0581 17.3551 53.8901C17.6191 53.7141 17.8151 53.4781 17.9431 53.1821L19.1911 53.6621C18.9591 54.2061 18.6031 54.6301 18.1231 54.9341C17.6511 55.2381 17.1151 55.3901 16.5151 55.3901ZM22.7545 55.3901C22.1545 55.3901 21.6185 55.2581 21.1465 54.9941C20.6825 54.7221 20.3185 54.3501 20.0545 53.8781C19.7905 53.4061 19.6585 52.8621 19.6585 52.2461C19.6585 51.6301 19.7865 51.0861 20.0425 50.6141C20.3065 50.1421 20.6705 49.7741 21.1345 49.5101C21.5985 49.2381 22.1305 49.1021 22.7305 49.1021C23.3305 49.1021 23.8625 49.2381 24.3265 49.5101C24.7905 49.7741 25.1505 50.1421 25.4065 50.6141C25.6705 51.0861 25.8025 51.6301 25.8025 52.2461C25.8025 52.8621 25.6745 53.4061 25.4185 53.8781C25.1625 54.3501 24.8025 54.7221 24.3385 54.9941C23.8745 55.2581 23.3465 55.3901 22.7545 55.3901ZM22.7545 54.1541C23.0825 54.1541 23.3745 54.0741 23.6305 53.9141C23.8865 53.7461 24.0865 53.5221 24.2305 53.2421C24.3745 52.9541 24.4465 52.6221 24.4465 52.2461C24.4465 51.8701 24.3705 51.5421 24.2185 51.2621C24.0745 50.9741 23.8745 50.7501 23.6185 50.5901C23.3625 50.4221 23.0665 50.3381 22.7305 50.3381C22.3945 50.3381 22.0985 50.4181 21.8425 50.5781C21.5865 50.7381 21.3865 50.9621 21.2425 51.2501C21.0985 51.5381 21.0265 51.8701 21.0265 52.2461C21.0265 52.6221 21.0985 52.9541 21.2425 53.2421C21.3945 53.5221 21.5985 53.7461 21.8545 53.9141C22.1185 54.0741 22.4185 54.1541 22.7545 54.1541ZM26.9791 55.2461V46.8461H29.6191C30.4431 46.8461 31.1711 47.0261 31.8031 47.3861C32.4431 47.7381 32.9431 48.2301 33.3031 48.8621C33.6711 49.4941 33.8551 50.2221 33.8551 51.0461C33.8551 51.8621 33.6711 52.5861 33.3031 53.2181C32.9431 53.8501 32.4431 54.3461 31.8031 54.7061C31.1711 55.0661 30.4431 55.2461 29.6191 55.2461H26.9791ZM28.3711 53.9501H29.6191C30.0111 53.9501 30.3791 53.8781 30.7231 53.7341C31.0671 53.5821 31.3671 53.3741 31.6231 53.1101C31.8791 52.8461 32.0791 52.5381 32.2231 52.1861C32.3671 51.8341 32.4391 51.4541 32.4391 51.0461C32.4391 50.6381 32.3671 50.2581 32.2231 49.9061C32.0791 49.5541 31.8791 49.2461 31.6231 48.9821C31.3671 48.7181 31.0671 48.5141 30.7231 48.3701C30.3791 48.2181 30.0111 48.1421 29.6191 48.1421H28.3711V53.9501ZM37.5069 55.3901C36.9229 55.3901 36.4029 55.2581 35.9469 54.9941C35.4989 54.7221 35.1429 54.3501 34.8789 53.8781C34.6229 53.4061 34.4949 52.8621 34.4949 52.2461C34.4949 51.6301 34.6269 51.0861 34.8909 50.6141C35.1549 50.1421 35.5149 49.7741 35.9709 49.5101C36.4349 49.2381 36.9629 49.1021 37.5549 49.1021C38.0909 49.1021 38.5749 49.2421 39.0069 49.5221C39.4389 49.7941 39.7789 50.1901 40.0269 50.7101C40.2829 51.2301 40.4109 51.8501 40.4109 52.5701H35.6949L35.8749 52.4021C35.8749 52.7701 35.9549 53.0901 36.1149 53.3621C36.2749 53.6261 36.4869 53.8301 36.7509 53.9741C37.0149 54.1181 37.3069 54.1901 37.6269 54.1901C37.9949 54.1901 38.2989 54.1101 38.5389 53.9501C38.7789 53.7821 38.9669 53.5661 39.1029 53.3021L40.2909 53.8061C40.1229 54.1261 39.9069 54.4061 39.6429 54.6461C39.3869 54.8861 39.0789 55.0701 38.7189 55.1981C38.3669 55.3261 37.9629 55.3901 37.5069 55.3901ZM35.9589 51.7061L35.7669 51.5381H39.1509L38.9709 51.7061C38.9709 51.3781 38.8989 51.1101 38.7549 50.9021C38.6109 50.6861 38.4269 50.5261 38.2029 50.4221C37.9869 50.3101 37.7589 50.2541 37.5189 50.2541C37.2789 50.2541 37.0389 50.3101 36.7989 50.4221C36.5589 50.5261 36.3589 50.6861 36.1989 50.9021C36.0389 51.1101 35.9589 51.3781 35.9589 51.7061ZM41.8002 55.2461V48.6101C41.8002 47.9781 41.9562 47.4941 42.2682 47.1581C42.5882 46.8141 43.0682 46.6421 43.7082 46.6421C43.9162 46.6421 44.1362 46.6781 44.3682 46.7501C44.6082 46.8141 44.8362 46.9021 45.0522 47.0141L44.5602 48.0101C44.4082 47.9381 44.2722 47.8861 44.1522 47.8541C44.0402 47.8221 43.9402 47.8061 43.8522 47.8061C43.6122 47.8061 43.4322 47.8861 43.3122 48.0461C43.2002 48.1981 43.1442 48.4501 43.1442 48.8021V55.2461H41.8002ZM40.7682 50.3501V49.2461H44.7162V50.3501H40.7682ZM48.1363 55.3901C47.5523 55.3901 47.0323 55.2581 46.5763 54.9941C46.1283 54.7221 45.7723 54.3501 45.5083 53.8781C45.2523 53.4061 45.1243 52.8621 45.1243 52.2461C45.1243 51.6301 45.2563 51.0861 45.5203 50.6141C45.7843 50.1421 46.1443 49.7741 46.6003 49.5101C47.0643 49.2381 47.5923 49.1021 48.1843 49.1021C48.7203 49.1021 49.2043 49.2421 49.6363 49.5221C50.0683 49.7941 50.4083 50.1901 50.6563 50.7101C50.9123 51.2301 51.0403 51.8501 51.0403 52.5701H46.3243L46.5043 52.4021C46.5043 52.7701 46.5843 53.0901 46.7443 53.3621C46.9043 53.6261 47.1163 53.8301 47.3803 53.9741C47.6443 54.1181 47.9363 54.1901 48.2563 54.1901C48.6243 54.1901 48.9283 54.1101 49.1683 53.9501C49.4083 53.7821 49.5963 53.5661 49.7323 53.3021L50.9203 53.8061C50.7523 54.1261 50.5363 54.4061 50.2723 54.6461C50.0163 54.8861 49.7083 55.0701 49.3483 55.1981C48.9963 55.3261 48.5923 55.3901 48.1363 55.3901ZM46.5883 51.7061L46.3963 51.5381H49.7803L49.6003 51.7061C49.6003 51.3781 49.5283 51.1101 49.3843 50.9021C49.2403 50.6861 49.0563 50.5261 48.8323 50.4221C48.6163 50.3101 48.3883 50.2541 48.1483 50.2541C47.9083 50.2541 47.6683 50.3101 47.4283 50.4221C47.1883 50.5261 46.9883 50.6861 46.8283 50.9021C46.6683 51.1101 46.5883 51.3781 46.5883 51.7061ZM51.8296 55.2461V49.2461H53.0896L53.1736 50.3501V55.2461H51.8296ZM55.8976 55.2461V52.1741H57.2416V55.2461H55.8976ZM55.8976 52.1741C55.8976 51.6941 55.8416 51.3261 55.7296 51.0701C55.6256 50.8061 55.4736 50.6221 55.2736 50.5181C55.0816 50.4141 54.8536 50.3621 54.5896 50.3621C54.1416 50.3541 53.7936 50.5021 53.5456 50.8061C53.2976 51.1101 53.1736 51.5461 53.1736 52.1141H52.6696C52.6696 51.4821 52.7616 50.9421 52.9456 50.4941C53.1296 50.0381 53.3936 49.6941 53.7376 49.4621C54.0816 49.2221 54.4896 49.1021 54.9616 49.1021C55.4416 49.1021 55.8496 49.1981 56.1856 49.3901C56.5296 49.5821 56.7896 49.8821 56.9656 50.2901C57.1496 50.6901 57.2416 51.2141 57.2416 51.8621V52.1741H55.8976ZM62.6951 55.2461L62.6351 54.1301V46.8461H63.9671V55.2461H62.6951ZM60.7391 55.3901C60.1951 55.3901 59.7191 55.2621 59.3111 55.0061C58.9111 54.7421 58.5951 54.3741 58.3631 53.9021C58.1391 53.4301 58.0271 52.8781 58.0271 52.2461C58.0271 51.6061 58.1391 51.0541 58.3631 50.5901C58.5951 50.1181 58.9111 49.7541 59.3111 49.4981C59.7191 49.2341 60.1951 49.1021 60.7391 49.1021C61.2431 49.1021 61.6751 49.2341 62.0351 49.4981C62.4031 49.7541 62.6831 50.1181 62.8751 50.5901C63.0671 51.0541 63.1631 51.6061 63.1631 52.2461C63.1631 52.8781 63.0671 53.4301 62.8751 53.9021C62.6831 54.3741 62.4031 54.7421 62.0351 55.0061C61.6751 55.2621 61.2431 55.3901 60.7391 55.3901ZM61.0751 54.1661C61.3791 54.1661 61.6471 54.0861 61.8791 53.9261C62.1191 53.7581 62.3031 53.5301 62.4311 53.2421C62.5671 52.9541 62.6351 52.6221 62.6351 52.2461C62.6351 51.8701 62.5671 51.5381 62.4311 51.2501C62.3031 50.9621 62.1191 50.7381 61.8791 50.5781C61.6471 50.4181 61.3751 50.3381 61.0631 50.3381C60.7431 50.3381 60.4591 50.4181 60.2111 50.5781C59.9631 50.7381 59.7671 50.9621 59.6231 51.2501C59.4871 51.5381 59.4151 51.8701 59.4071 52.2461C59.4151 52.6221 59.4871 52.9541 59.6231 53.2421C59.7671 53.5301 59.9631 53.7581 60.2111 53.9261C60.4671 54.0861 60.7551 54.1661 61.0751 54.1661ZM69.7274 56.4461C69.3594 55.9581 69.0234 55.4301 68.7194 54.8621C68.4154 54.2861 68.1754 53.6781 67.9994 53.0381C67.8234 52.3981 67.7354 51.7341 67.7354 51.0461C67.7354 50.3501 67.8234 49.6861 67.9994 49.0541C68.1754 48.4141 68.4154 47.8101 68.7194 47.2421C69.0234 46.6661 69.3594 46.1341 69.7274 45.6461H71.0714C70.7034 46.1581 70.3674 46.7061 70.0634 47.2901C69.7594 47.8741 69.5194 48.4821 69.3434 49.1141C69.1674 49.7381 69.0794 50.3821 69.0794 51.0461C69.0794 51.7021 69.1674 52.3461 69.3434 52.9781C69.5194 53.6101 69.7594 54.2181 70.0634 54.8021C70.3674 55.3781 70.7034 55.9261 71.0714 56.4461H69.7274ZM72.3208 55.2461V46.8461H73.7608L78.2248 52.9181V46.8461H79.6168V55.2461H78.2248L73.7128 49.1021V55.2461H72.3208ZM83.8818 55.3901C83.2818 55.3901 82.7458 55.2581 82.2738 54.9941C81.8098 54.7221 81.4458 54.3501 81.1818 53.8781C80.9178 53.4061 80.7858 52.8621 80.7858 52.2461C80.7858 51.6301 80.9138 51.0861 81.1698 50.6141C81.4338 50.1421 81.7978 49.7741 82.2618 49.5101C82.7258 49.2381 83.2578 49.1021 83.8578 49.1021C84.4578 49.1021 84.9898 49.2381 85.4538 49.5101C85.9178 49.7741 86.2778 50.1421 86.5338 50.6141C86.7978 51.0861 86.9298 51.6301 86.9298 52.2461C86.9298 52.8621 86.8018 53.4061 86.5458 53.8781C86.2898 54.3501 85.9298 54.7221 85.4658 54.9941C85.0018 55.2581 84.4738 55.3901 83.8818 55.3901ZM83.8818 54.1541C84.2098 54.1541 84.5018 54.0741 84.7578 53.9141C85.0138 53.7461 85.2138 53.5221 85.3578 53.2421C85.5018 52.9541 85.5738 52.6221 85.5738 52.2461C85.5738 51.8701 85.4978 51.5421 85.3458 51.2621C85.2018 50.9741 85.0018 50.7501 84.7458 50.5901C84.4898 50.4221 84.1938 50.3381 83.8578 50.3381C83.5218 50.3381 83.2258 50.4181 82.9698 50.5781C82.7138 50.7381 82.5138 50.9621 82.3698 51.2501C82.2258 51.5381 82.1538 51.8701 82.1538 52.2461C82.1538 52.6221 82.2258 52.9541 82.3698 53.2421C82.5218 53.5221 82.7258 53.7461 82.9818 53.9141C83.2458 54.0741 83.5458 54.1541 83.8818 54.1541ZM87.8545 55.2461V49.2461H89.1145L89.1985 50.3501V55.2461H87.8545ZM91.9225 55.2461V52.1741H93.2665V55.2461H91.9225ZM91.9225 52.1741C91.9225 51.6941 91.8665 51.3261 91.7545 51.0701C91.6505 50.8061 91.4985 50.6221 91.2985 50.5181C91.1065 50.4141 90.8785 50.3621 90.6145 50.3621C90.1665 50.3541 89.8185 50.5021 89.5705 50.8061C89.3225 51.1101 89.1985 51.5461 89.1985 52.1141H88.6945C88.6945 51.4821 88.7865 50.9421 88.9705 50.4941C89.1545 50.0381 89.4185 49.6941 89.7625 49.4621C90.1065 49.2221 90.5145 49.1021 90.9865 49.1021C91.4665 49.1021 91.8745 49.1981 92.2105 49.3901C92.5545 49.5821 92.8145 49.8821 92.9905 50.2901C93.1745 50.6901 93.2665 51.2141 93.2665 51.8621V52.1741H91.9225ZM94.4479 57.6461V49.2461H95.7079L95.7919 50.3501V57.6461H94.4479ZM97.6879 55.3901C97.1839 55.3901 96.7479 55.2621 96.3799 55.0061C96.0199 54.7421 95.7439 54.3741 95.5519 53.9021C95.3599 53.4301 95.2639 52.8781 95.2639 52.2461C95.2639 51.6061 95.3599 51.0541 95.5519 50.5901C95.7439 50.1181 96.0199 49.7541 96.3799 49.4981C96.7479 49.2341 97.1839 49.1021 97.6879 49.1021C98.2319 49.1021 98.7039 49.2341 99.1039 49.4981C99.5119 49.7541 99.8279 50.1181 100.052 50.5901C100.284 51.0541 100.4 51.6061 100.4 52.2461C100.4 52.8781 100.284 53.4301 100.052 53.9021C99.8279 54.3741 99.5119 54.7421 99.1039 55.0061C98.7039 55.2621 98.2319 55.3901 97.6879 55.3901ZM97.3519 54.1661C97.6719 54.1661 97.9559 54.0861 98.2039 53.9261C98.4519 53.7581 98.6479 53.5301 98.7919 53.2421C98.9439 52.9541 99.0199 52.6221 99.0199 52.2461C99.0199 51.8701 98.9479 51.5381 98.8039 51.2501C98.6679 50.9621 98.4759 50.7381 98.2279 50.5781C97.9799 50.4181 97.6919 50.3381 97.3639 50.3381C97.0599 50.3381 96.7879 50.4181 96.5479 50.5781C96.3079 50.7381 96.1199 50.9621 95.9839 51.2501C95.8559 51.5381 95.7919 51.8701 95.7919 52.2461C95.7919 52.6221 95.8559 52.9541 95.9839 53.2421C96.1199 53.5301 96.3039 53.7581 96.5359 53.9261C96.7759 54.0861 97.0479 54.1661 97.3519 54.1661ZM102.196 52.0541C102.196 51.4061 102.32 50.8741 102.568 50.4581C102.816 50.0421 103.136 49.7341 103.528 49.5341C103.928 49.3261 104.344 49.2221 104.776 49.2221V50.5061C104.408 50.5061 104.06 50.5581 103.732 50.6621C103.412 50.7581 103.152 50.9181 102.952 51.1421C102.752 51.3661 102.652 51.6621 102.652 52.0301L102.196 52.0541ZM101.308 55.2461V49.2461H102.652V55.2461H101.308ZM108.187 55.3901C107.587 55.3901 107.051 55.2581 106.579 54.9941C106.115 54.7221 105.751 54.3501 105.487 53.8781C105.223 53.4061 105.091 52.8621 105.091 52.2461C105.091 51.6301 105.219 51.0861 105.475 50.6141C105.739 50.1421 106.103 49.7741 106.567 49.5101C107.031 49.2381 107.563 49.1021 108.163 49.1021C108.763 49.1021 109.295 49.2381 109.759 49.5101C110.223 49.7741 110.583 50.1421 110.839 50.6141C111.103 51.0861 111.235 51.6301 111.235 52.2461C111.235 52.8621 111.107 53.4061 110.851 53.8781C110.595 54.3501 110.235 54.7221 109.771 54.9941C109.307 55.2581 108.779 55.3901 108.187 55.3901ZM108.187 54.1541C108.515 54.1541 108.807 54.0741 109.063 53.9141C109.319 53.7461 109.519 53.5221 109.663 53.2421C109.807 52.9541 109.879 52.6221 109.879 52.2461C109.879 51.8701 109.803 51.5421 109.651 51.2621C109.507 50.9741 109.307 50.7501 109.051 50.5901C108.795 50.4221 108.499 50.3381 108.163 50.3381C107.827 50.3381 107.531 50.4181 107.275 50.5781C107.019 50.7381 106.819 50.9621 106.675 51.2501C106.531 51.5381 106.459 51.8701 106.459 52.2461C106.459 52.6221 106.531 52.9541 106.675 53.2421C106.827 53.5221 107.031 53.7461 107.287 53.9141C107.551 54.0741 107.851 54.1541 108.187 54.1541ZM112.76 55.2461V48.6101C112.76 47.9781 112.916 47.4941 113.228 47.1581C113.548 46.8141 114.028 46.6421 114.668 46.6421C114.876 46.6421 115.096 46.6781 115.328 46.7501C115.568 46.8141 115.796 46.9021 116.012 47.0141L115.52 48.0101C115.368 47.9381 115.232 47.8861 115.112 47.8541C115 47.8221 114.9 47.8061 114.812 47.8061C114.572 47.8061 114.392 47.8861 114.272 48.0461C114.16 48.1981 114.104 48.4501 114.104 48.8021V55.2461H112.76ZM111.728 50.3501V49.2461H115.676V50.3501H111.728ZM116.61 55.2461V49.2461H117.942V55.2461H116.61ZM117.282 48.1061C117.066 48.1061 116.878 48.0301 116.718 47.8781C116.566 47.7181 116.49 47.5301 116.49 47.3141C116.49 47.0981 116.566 46.9141 116.718 46.7621C116.878 46.6101 117.066 46.5341 117.282 46.5341C117.498 46.5341 117.682 46.6101 117.834 46.7621C117.994 46.9141 118.074 47.0981 118.074 47.3141C118.074 47.5301 117.994 47.7181 117.834 47.8781C117.682 48.0301 117.498 48.1061 117.282 48.1061ZM121.674 55.3901C121.042 55.3901 120.558 55.2341 120.222 54.9221C119.894 54.6021 119.73 54.1461 119.73 53.5541V47.3741H121.062V53.3021C121.062 53.5821 121.126 53.7941 121.254 53.9381C121.39 54.0821 121.586 54.1541 121.842 54.1541C121.922 54.1541 122.01 54.1381 122.106 54.1061C122.202 54.0741 122.31 54.0141 122.43 53.9261L122.922 54.9461C122.714 55.0901 122.506 55.1981 122.298 55.2701C122.09 55.3501 121.882 55.3901 121.674 55.3901ZM118.734 50.3981V49.2461H122.682V50.3981H118.734ZM124.848 56.4461H123.504C123.88 55.9261 124.216 55.3781 124.512 54.8021C124.816 54.2181 125.056 53.6101 125.232 52.9781C125.408 52.3461 125.496 51.7021 125.496 51.0461C125.496 50.3821 125.408 49.7381 125.232 49.1141C125.056 48.4821 124.816 47.8741 124.512 47.2901C124.216 46.7061 123.88 46.1581 123.504 45.6461H124.848C125.224 46.1341 125.56 46.6661 125.856 47.2421C126.16 47.8101 126.4 48.4141 126.576 49.0541C126.752 49.6861 126.84 50.3501 126.84 51.0461C126.84 51.7341 126.752 52.3981 126.576 53.0381C126.4 53.6781 126.16 54.2861 125.856 54.8621C125.56 55.4301 125.224 55.9581 124.848 56.4461Z" fill="#292929"/>
<path d="M12.125 64.2461L13.4721 68.392H17.8313L14.3046 70.9543L15.6517 75.1002L12.125 72.5379L8.59829 75.1002L9.94537 70.9543L6.41866 68.392H10.7779L12.125 64.2461Z" fill="#FABD05"/>
<path d="M27.125 64.2461L28.4721 68.392H32.8313L29.3046 70.9543L30.6517 75.1002L27.125 72.5379L23.5983 75.1002L24.9454 70.9543L21.4187 68.392H25.7779L27.125 64.2461Z" fill="#FABD05"/>
<path d="M42.125 64.2461L43.4721 68.392H47.8313L44.3046 70.9543L45.6517 75.1002L42.125 72.5379L38.5983 75.1002L39.9454 70.9543L36.4187 68.392H40.7779L42.125 64.2461Z" fill="#FABD05"/>
<path d="M57.125 64.2461L58.4721 68.392H62.8313L59.3046 70.9543L60.6517 75.1002L57.125 72.5379L53.5983 75.1002L54.9454 70.9543L51.4187 68.392H55.7779L57.125 64.2461Z" fill="#FABD05"/>
<path d="M72.125 64.2461L73.4721 68.392H77.8313L74.3046 70.9543L75.6517 75.1002L72.125 72.5379L68.5983 75.1002L69.9454 70.9543L66.4187 68.392H70.7779L72.125 64.2461Z" fill="#FABD05"/>
</g>
<defs>
<filter id="filter0_b_2499_819" x="-5" y="-5" width="203.594" height="96.0469" filterUnits="userSpaceOnUse" color-interpolation-filters="sRGB">
<feFlood flood-opacity="0" result="BackgroundImageFix"/>
<feGaussianBlur in="BackgroundImageFix" stdDeviation="2.5"/>
<feComposite in2="SourceAlpha" operator="in" result="effect1_backgroundBlur_2499_819"/>
<feBlend mode="normal" in="SourceGraphic" in2="effect1_backgroundBlur_2499_819" result="shape"/>
</filter>
</defs>
</svg>
