<svg width="194" height="102" viewBox="0 0 194 102" fill="none" xmlns="http://www.w3.org/2000/svg">
<g filter="url(#filter0_b_2499_777)">
<rect width="193.593" height="101.047" rx="6.71632" fill="white"/>
<rect x="6.125" y="6.125" width="181.341" height="26.8653" rx="6.71632" fill="#EDEDED"/>
<path d="M30.5328 26.5953V18.1953H31.4328L31.4928 19.2993V26.5953H30.5328ZM33.5208 24.3393C33.0168 24.3393 32.5728 24.2073 32.1888 23.9433C31.8128 23.6793 31.5208 23.3113 31.3128 22.8393C31.1048 22.3593 31.0008 21.8113 31.0008 21.1953C31.0008 20.5713 31.1048 20.0233 31.3128 19.5513C31.5208 19.0793 31.8128 18.7113 32.1888 18.4473C32.5728 18.1833 33.0168 18.0513 33.5208 18.0513C34.0568 18.0513 34.5288 18.1833 34.9368 18.4473C35.3448 18.7113 35.6608 19.0793 35.8848 19.5513C36.1168 20.0233 36.2328 20.5713 36.2328 21.1953C36.2328 21.8113 36.1168 22.3593 35.8848 22.8393C35.6608 23.3113 35.3448 23.6793 34.9368 23.9433C34.5288 24.2073 34.0568 24.3393 33.5208 24.3393ZM33.3048 23.4633C33.6808 23.4633 34.0128 23.3673 34.3008 23.1753C34.5968 22.9833 34.8288 22.7153 34.9968 22.3713C35.1728 22.0273 35.2608 21.6353 35.2608 21.1953C35.2608 20.7553 35.1768 20.3633 35.0088 20.0193C34.8488 19.6753 34.6208 19.4073 34.3248 19.2153C34.0288 19.0233 33.6928 18.9273 33.3168 18.9273C32.9648 18.9273 32.6488 19.0233 32.3688 19.2153C32.0968 19.4073 31.8808 19.6753 31.7208 20.0193C31.5688 20.3633 31.4928 20.7553 31.4928 21.1953C31.4928 21.6353 31.5688 22.0273 31.7208 22.3713C31.8808 22.7153 32.0968 22.9833 32.3688 23.1753C32.6408 23.3673 32.9528 23.4633 33.3048 23.4633ZM39.9507 24.3393C39.3667 24.3393 38.8507 24.2073 38.4027 23.9433C37.9547 23.6713 37.6027 23.2993 37.3467 22.8273C37.0987 22.3553 36.9747 21.8113 36.9747 21.1953C36.9747 20.5793 37.0987 20.0353 37.3467 19.5633C37.6027 19.0913 37.9507 18.7233 38.3907 18.4593C38.8387 18.1873 39.3507 18.0513 39.9267 18.0513C40.4867 18.0513 40.9707 18.1913 41.3787 18.4713C41.7867 18.7433 42.1027 19.1273 42.3267 19.6233C42.5507 20.1193 42.6627 20.7033 42.6627 21.3753H37.7067L37.9467 21.1713C37.9467 21.6513 38.0307 22.0633 38.1987 22.4073C38.3747 22.7513 38.6187 23.0153 38.9307 23.1993C39.2427 23.3753 39.5987 23.4633 39.9987 23.4633C40.4227 23.4633 40.7787 23.3633 41.0667 23.1633C41.3627 22.9633 41.5907 22.6993 41.7507 22.3713L42.5787 22.7913C42.4267 23.1033 42.2227 23.3753 41.9667 23.6073C41.7187 23.8393 41.4227 24.0193 41.0787 24.1473C40.7427 24.2753 40.3667 24.3393 39.9507 24.3393ZM38.0067 20.7633L37.7547 20.5713H41.8947L41.6427 20.7753C41.6427 20.3913 41.5667 20.0593 41.4147 19.7793C41.2627 19.4993 41.0587 19.2833 40.8027 19.1313C40.5467 18.9793 40.2507 18.9033 39.9147 18.9033C39.5867 18.9033 39.2747 18.9793 38.9787 19.1313C38.6907 19.2833 38.4547 19.4993 38.2707 19.7793C38.0947 20.0513 38.0067 20.3793 38.0067 20.7633ZM45.7334 24.3393C45.2934 24.3393 44.9094 24.2753 44.5814 24.1473C44.2534 24.0113 43.9774 23.8353 43.7534 23.6193C43.5374 23.4033 43.3814 23.1673 43.2854 22.9113L44.1254 22.5633C44.2614 22.8353 44.4654 23.0553 44.7374 23.2233C45.0094 23.3913 45.3094 23.4753 45.6374 23.4753C46.0134 23.4753 46.3294 23.4033 46.5854 23.2593C46.8414 23.1073 46.9694 22.8953 46.9694 22.6233C46.9694 22.3753 46.8734 22.1753 46.6814 22.0233C46.4974 21.8713 46.2214 21.7473 45.8534 21.6513L45.2774 21.4953C44.7334 21.3513 44.3094 21.1353 44.0054 20.8473C43.7014 20.5513 43.5494 20.2193 43.5494 19.8513C43.5494 19.2833 43.7334 18.8433 44.1014 18.5313C44.4774 18.2113 45.0334 18.0513 45.7694 18.0513C46.1214 18.0513 46.4414 18.1033 46.7294 18.2073C47.0174 18.3113 47.2654 18.4593 47.4734 18.6513C47.6814 18.8353 47.8334 19.0553 47.9294 19.3113L47.0894 19.6833C46.9854 19.4113 46.8134 19.2153 46.5734 19.0953C46.3334 18.9753 46.0414 18.9153 45.6974 18.9153C45.3294 18.9153 45.0414 18.9953 44.8334 19.1553C44.6254 19.3073 44.5214 19.5233 44.5214 19.8033C44.5214 19.9633 44.6054 20.1153 44.7734 20.2593C44.9494 20.3953 45.2054 20.5073 45.5414 20.5953L46.1414 20.7513C46.5334 20.8473 46.8614 20.9913 47.1254 21.1833C47.3894 21.3673 47.5894 21.5793 47.7254 21.8193C47.8614 22.0593 47.9294 22.3153 47.9294 22.5873C47.9294 22.9473 47.8334 23.2593 47.6414 23.5233C47.4494 23.7873 47.1894 23.9913 46.8614 24.1353C46.5334 24.2713 46.1574 24.3393 45.7334 24.3393ZM51.2393 24.3393C50.6553 24.3393 50.2033 24.1873 49.8833 23.8833C49.5633 23.5793 49.4033 23.1513 49.4033 22.5993V16.3233H50.3633V22.5033C50.3633 22.8073 50.4433 23.0433 50.6033 23.2113C50.7713 23.3713 51.0033 23.4513 51.2993 23.4513C51.3953 23.4513 51.4873 23.4393 51.5753 23.4153C51.6713 23.3833 51.7953 23.3113 51.9473 23.1993L52.3193 23.9793C52.1113 24.1153 51.9233 24.2073 51.7553 24.2553C51.5873 24.3113 51.4153 24.3393 51.2393 24.3393ZM48.3593 19.0473V18.1953H52.1633V19.0473H48.3593ZM58.6793 24.3393C58.0873 24.3393 57.5633 24.2073 57.1073 23.9433C56.6513 23.6713 56.2953 23.2993 56.0393 22.8273C55.7833 22.3553 55.6553 21.8113 55.6553 21.1953C55.6553 20.5793 55.7793 20.0353 56.0273 19.5633C56.2833 19.0913 56.6393 18.7233 57.0953 18.4593C57.5513 18.1873 58.0713 18.0513 58.6553 18.0513C59.2313 18.0513 59.7473 18.1833 60.2033 18.4473C60.6593 18.7113 61.0073 19.0833 61.2473 19.5633L60.3713 19.9593C60.2113 19.6393 59.9793 19.3913 59.6753 19.2153C59.3713 19.0313 59.0233 18.9393 58.6313 18.9393C58.2393 18.9393 57.8913 19.0353 57.5873 19.2273C57.2913 19.4193 57.0553 19.6873 56.8793 20.0313C56.7113 20.3673 56.6273 20.7553 56.6273 21.1953C56.6273 21.6353 56.7113 22.0273 56.8793 22.3713C57.0553 22.7073 57.2953 22.9713 57.5993 23.1633C57.9113 23.3553 58.2633 23.4513 58.6553 23.4513C59.0473 23.4513 59.3953 23.3513 59.6993 23.1513C60.0113 22.9513 60.2473 22.6713 60.4073 22.3113L61.2833 22.7073C61.0433 23.2193 60.6953 23.6193 60.2393 23.9073C59.7833 24.1953 59.2633 24.3393 58.6793 24.3393ZM64.9075 24.3393C64.3235 24.3393 63.8035 24.2073 63.3475 23.9433C62.8995 23.6713 62.5475 23.2993 62.2915 22.8273C62.0355 22.3553 61.9075 21.8113 61.9075 21.1953C61.9075 20.5793 62.0315 20.0353 62.2795 19.5633C62.5355 19.0913 62.8875 18.7233 63.3355 18.4593C63.7915 18.1873 64.3075 18.0513 64.8835 18.0513C65.4755 18.0513 65.9955 18.1873 66.4435 18.4593C66.8995 18.7233 67.2515 19.0913 67.4995 19.5633C67.7555 20.0353 67.8835 20.5793 67.8835 21.1953C67.8835 21.8113 67.7555 22.3553 67.4995 22.8273C67.2515 23.2993 66.9035 23.6713 66.4555 23.9433C66.0075 24.2073 65.4915 24.3393 64.9075 24.3393ZM64.9075 23.4513C65.3075 23.4513 65.6555 23.3553 65.9515 23.1633C66.2475 22.9713 66.4795 22.7073 66.6475 22.3713C66.8235 22.0353 66.9115 21.6433 66.9115 21.1953C66.9115 20.7473 66.8235 20.3553 66.6475 20.0193C66.4795 19.6833 66.2435 19.4193 65.9395 19.2273C65.6355 19.0353 65.2835 18.9393 64.8835 18.9393C64.4915 18.9393 64.1435 19.0353 63.8395 19.2273C63.5435 19.4193 63.3075 19.6833 63.1315 20.0193C62.9635 20.3553 62.8795 20.7473 62.8795 21.1953C62.8795 21.6353 62.9635 22.0273 63.1315 22.3713C63.3075 22.7073 63.5475 22.9713 63.8515 23.1633C64.1635 23.3553 64.5155 23.4513 64.9075 23.4513ZM68.9764 24.1953V18.1953H69.8764L69.9364 19.2993V24.1953H68.9764ZM73.1884 24.1953V21.1233H74.1484V24.1953H73.1884ZM73.1884 21.1233C73.1884 20.5313 73.1204 20.0793 72.9844 19.7673C72.8484 19.4553 72.6604 19.2433 72.4204 19.1313C72.1804 19.0113 71.9084 18.9513 71.6044 18.9513C71.0764 18.9513 70.6644 19.1393 70.3684 19.5153C70.0804 19.8833 69.9364 20.4073 69.9364 21.0873H69.4684C69.4684 20.4553 69.5604 19.9113 69.7444 19.4553C69.9284 18.9993 70.1964 18.6513 70.5484 18.4113C70.9004 18.1713 71.3244 18.0513 71.8204 18.0513C72.2924 18.0513 72.7004 18.1473 73.0444 18.3393C73.3964 18.5233 73.6684 18.8193 73.8604 19.2273C74.0604 19.6353 74.1564 20.1713 74.1484 20.8353V21.1233H73.1884ZM77.6838 24.3393C77.0998 24.3393 76.6478 24.1873 76.3278 23.8833C76.0078 23.5793 75.8478 23.1513 75.8478 22.5993V16.3233H76.8078V22.5033C76.8078 22.8073 76.8878 23.0433 77.0478 23.2113C77.2158 23.3713 77.4478 23.4513 77.7438 23.4513C77.8398 23.4513 77.9318 23.4393 78.0198 23.4153C78.1158 23.3833 78.2398 23.3113 78.3918 23.1993L78.7638 23.9793C78.5558 24.1153 78.3678 24.2073 78.1998 24.2553C78.0318 24.3113 77.8598 24.3393 77.6838 24.3393ZM74.8038 19.0473V18.1953H78.6078V19.0473H74.8038ZM80.251 20.9433C80.251 20.2953 80.375 19.7713 80.623 19.3713C80.871 18.9633 81.187 18.6633 81.571 18.4713C81.963 18.2713 82.375 18.1713 82.807 18.1713V19.0713C82.455 19.0713 82.115 19.1313 81.787 19.2513C81.467 19.3633 81.203 19.5513 80.995 19.8153C80.787 20.0793 80.683 20.4393 80.683 20.8953L80.251 20.9433ZM79.723 24.1953V18.1953H80.683V24.1953H79.723ZM86.1897 24.3393C85.6057 24.3393 85.0857 24.2073 84.6297 23.9433C84.1817 23.6713 83.8297 23.2993 83.5737 22.8273C83.3177 22.3553 83.1897 21.8113 83.1897 21.1953C83.1897 20.5793 83.3137 20.0353 83.5617 19.5633C83.8177 19.0913 84.1697 18.7233 84.6177 18.4593C85.0737 18.1873 85.5897 18.0513 86.1657 18.0513C86.7577 18.0513 87.2777 18.1873 87.7257 18.4593C88.1817 18.7233 88.5337 19.0913 88.7817 19.5633C89.0377 20.0353 89.1657 20.5793 89.1657 21.1953C89.1657 21.8113 89.0377 22.3553 88.7817 22.8273C88.5337 23.2993 88.1857 23.6713 87.7377 23.9433C87.2897 24.2073 86.7737 24.3393 86.1897 24.3393ZM86.1897 23.4513C86.5897 23.4513 86.9377 23.3553 87.2337 23.1633C87.5297 22.9713 87.7617 22.7073 87.9297 22.3713C88.1057 22.0353 88.1937 21.6433 88.1937 21.1953C88.1937 20.7473 88.1057 20.3553 87.9297 20.0193C87.7617 19.6833 87.5257 19.4193 87.2217 19.2273C86.9177 19.0353 86.5657 18.9393 86.1657 18.9393C85.7737 18.9393 85.4257 19.0353 85.1217 19.2273C84.8257 19.4193 84.5897 19.6833 84.4137 20.0193C84.2457 20.3553 84.1617 20.7473 84.1617 21.1953C84.1617 21.6353 84.2457 22.0273 84.4137 22.3713C84.5897 22.7073 84.8297 22.9713 85.1337 23.1633C85.4457 23.3553 85.7977 23.4513 86.1897 23.4513ZM90.2586 24.1953V15.7953H91.2186V24.1953H90.2586ZM97.4802 24.3393C97.0402 24.3393 96.6562 24.2753 96.3282 24.1473C96.0002 24.0113 95.7242 23.8353 95.5002 23.6193C95.2842 23.4033 95.1282 23.1673 95.0322 22.9113L95.8722 22.5633C96.0082 22.8353 96.2122 23.0553 96.4842 23.2233C96.7562 23.3913 97.0562 23.4753 97.3842 23.4753C97.7602 23.4753 98.0762 23.4033 98.3322 23.2593C98.5882 23.1073 98.7162 22.8953 98.7162 22.6233C98.7162 22.3753 98.6202 22.1753 98.4282 22.0233C98.2442 21.8713 97.9682 21.7473 97.6002 21.6513L97.0242 21.4953C96.4802 21.3513 96.0562 21.1353 95.7522 20.8473C95.4482 20.5513 95.2962 20.2193 95.2962 19.8513C95.2962 19.2833 95.4802 18.8433 95.8482 18.5313C96.2242 18.2113 96.7802 18.0513 97.5162 18.0513C97.8682 18.0513 98.1882 18.1033 98.4762 18.2073C98.7642 18.3113 99.0122 18.4593 99.2202 18.6513C99.4282 18.8353 99.5802 19.0553 99.6762 19.3113L98.8362 19.6833C98.7322 19.4113 98.5602 19.2153 98.3202 19.0953C98.0802 18.9753 97.7882 18.9153 97.4442 18.9153C97.0762 18.9153 96.7882 18.9953 96.5802 19.1553C96.3722 19.3073 96.2682 19.5233 96.2682 19.8033C96.2682 19.9633 96.3522 20.1153 96.5202 20.2593C96.6962 20.3953 96.9522 20.5073 97.2882 20.5953L97.8882 20.7513C98.2802 20.8473 98.6082 20.9913 98.8722 21.1833C99.1362 21.3673 99.3362 21.5793 99.4722 21.8193C99.6082 22.0593 99.6762 22.3153 99.6762 22.5873C99.6762 22.9473 99.5802 23.2593 99.3882 23.5233C99.1962 23.7873 98.9362 23.9913 98.6082 24.1353C98.2802 24.2713 97.9042 24.3393 97.4802 24.3393ZM103.358 24.3393C102.774 24.3393 102.258 24.2073 101.81 23.9433C101.362 23.6713 101.01 23.2993 100.754 22.8273C100.506 22.3553 100.382 21.8113 100.382 21.1953C100.382 20.5793 100.506 20.0353 100.754 19.5633C101.01 19.0913 101.358 18.7233 101.798 18.4593C102.246 18.1873 102.758 18.0513 103.334 18.0513C103.894 18.0513 104.378 18.1913 104.786 18.4713C105.194 18.7433 105.51 19.1273 105.734 19.6233C105.958 20.1193 106.07 20.7033 106.07 21.3753H101.114L101.354 21.1713C101.354 21.6513 101.438 22.0633 101.606 22.4073C101.782 22.7513 102.026 23.0153 102.338 23.1993C102.65 23.3753 103.006 23.4633 103.406 23.4633C103.83 23.4633 104.186 23.3633 104.474 23.1633C104.77 22.9633 104.998 22.6993 105.158 22.3713L105.986 22.7913C105.834 23.1033 105.63 23.3753 105.374 23.6073C105.126 23.8393 104.83 24.0193 104.486 24.1473C104.15 24.2753 103.774 24.3393 103.358 24.3393ZM101.414 20.7633L101.162 20.5713H105.302L105.05 20.7753C105.05 20.3913 104.974 20.0593 104.822 19.7793C104.67 19.4993 104.466 19.2833 104.21 19.1313C103.954 18.9793 103.658 18.9033 103.322 18.9033C102.994 18.9033 102.682 18.9793 102.386 19.1313C102.098 19.2833 101.862 19.4993 101.678 19.7793C101.502 20.0513 101.414 20.3793 101.414 20.7633ZM107.569 20.9433C107.569 20.2953 107.693 19.7713 107.941 19.3713C108.189 18.9633 108.505 18.6633 108.889 18.4713C109.281 18.2713 109.693 18.1713 110.125 18.1713V19.0713C109.773 19.0713 109.433 19.1313 109.105 19.2513C108.785 19.3633 108.521 19.5513 108.313 19.8153C108.105 20.0793 108.001 20.4393 108.001 20.8953L107.569 20.9433ZM107.041 24.1953V18.1953H108.001V24.1953H107.041ZM112.691 24.1953L115.139 18.1953H116.147L113.639 24.1953H112.691ZM112.631 24.1953L110.123 18.1953H111.119L113.567 24.1953H112.631ZM116.91 24.1953V18.1953H117.87V24.1953H116.91ZM117.402 16.8033C117.242 16.8033 117.102 16.7433 116.982 16.6233C116.862 16.5033 116.802 16.3633 116.802 16.2033C116.802 16.0353 116.862 15.8953 116.982 15.7833C117.102 15.6633 117.242 15.6033 117.402 15.6033C117.57 15.6033 117.71 15.6633 117.822 15.7833C117.942 15.8953 118.002 16.0353 118.002 16.2033C118.002 16.3633 117.942 16.5033 117.822 16.6233C117.71 16.7433 117.57 16.8033 117.402 16.8033ZM122.075 24.3393C121.483 24.3393 120.959 24.2073 120.503 23.9433C120.047 23.6713 119.691 23.2993 119.435 22.8273C119.179 22.3553 119.051 21.8113 119.051 21.1953C119.051 20.5793 119.175 20.0353 119.423 19.5633C119.679 19.0913 120.035 18.7233 120.491 18.4593C120.947 18.1873 121.467 18.0513 122.051 18.0513C122.627 18.0513 123.143 18.1833 123.599 18.4473C124.055 18.7113 124.403 19.0833 124.643 19.5633L123.767 19.9593C123.607 19.6393 123.375 19.3913 123.071 19.2153C122.767 19.0313 122.419 18.9393 122.027 18.9393C121.635 18.9393 121.287 19.0353 120.983 19.2273C120.687 19.4193 120.451 19.6873 120.275 20.0313C120.107 20.3673 120.023 20.7553 120.023 21.1953C120.023 21.6353 120.107 22.0273 120.275 22.3713C120.451 22.7073 120.691 22.9713 120.995 23.1633C121.307 23.3553 121.659 23.4513 122.051 23.4513C122.443 23.4513 122.791 23.3513 123.095 23.1513C123.407 22.9513 123.643 22.6713 123.803 22.3113L124.679 22.7073C124.439 23.2193 124.091 23.6193 123.635 23.9073C123.179 24.1953 122.659 24.3393 122.075 24.3393ZM128.279 24.3393C127.695 24.3393 127.179 24.2073 126.731 23.9433C126.283 23.6713 125.931 23.2993 125.675 22.8273C125.427 22.3553 125.303 21.8113 125.303 21.1953C125.303 20.5793 125.427 20.0353 125.675 19.5633C125.931 19.0913 126.279 18.7233 126.719 18.4593C127.167 18.1873 127.679 18.0513 128.255 18.0513C128.815 18.0513 129.299 18.1913 129.707 18.4713C130.115 18.7433 130.431 19.1273 130.655 19.6233C130.879 20.1193 130.991 20.7033 130.991 21.3753H126.035L126.275 21.1713C126.275 21.6513 126.359 22.0633 126.527 22.4073C126.703 22.7513 126.947 23.0153 127.259 23.1993C127.571 23.3753 127.927 23.4633 128.327 23.4633C128.751 23.4633 129.107 23.3633 129.395 23.1633C129.691 22.9633 129.919 22.6993 130.079 22.3713L130.907 22.7913C130.755 23.1033 130.551 23.3753 130.295 23.6073C130.047 23.8393 129.751 24.0193 129.407 24.1473C129.071 24.2753 128.695 24.3393 128.279 24.3393ZM126.335 20.7633L126.083 20.5713H130.223L129.971 20.7753C129.971 20.3913 129.895 20.0593 129.743 19.7793C129.591 19.4993 129.387 19.2833 129.131 19.1313C128.875 18.9793 128.579 18.9033 128.243 18.9033C127.915 18.9033 127.603 18.9793 127.307 19.1313C127.019 19.2833 126.783 19.4993 126.599 19.7793C126.423 20.0513 126.335 20.3793 126.335 20.7633ZM134.062 24.3393C133.622 24.3393 133.238 24.2753 132.91 24.1473C132.582 24.0113 132.306 23.8353 132.082 23.6193C131.866 23.4033 131.71 23.1673 131.614 22.9113L132.454 22.5633C132.59 22.8353 132.794 23.0553 133.066 23.2233C133.338 23.3913 133.638 23.4753 133.966 23.4753C134.342 23.4753 134.658 23.4033 134.914 23.2593C135.17 23.1073 135.298 22.8953 135.298 22.6233C135.298 22.3753 135.202 22.1753 135.01 22.0233C134.826 21.8713 134.55 21.7473 134.182 21.6513L133.606 21.4953C133.062 21.3513 132.638 21.1353 132.334 20.8473C132.03 20.5513 131.878 20.2193 131.878 19.8513C131.878 19.2833 132.062 18.8433 132.43 18.5313C132.806 18.2113 133.362 18.0513 134.098 18.0513C134.45 18.0513 134.77 18.1033 135.058 18.2073C135.346 18.3113 135.594 18.4593 135.802 18.6513C136.01 18.8353 136.162 19.0553 136.258 19.3113L135.418 19.6833C135.314 19.4113 135.142 19.2153 134.902 19.0953C134.662 18.9753 134.37 18.9153 134.026 18.9153C133.658 18.9153 133.37 18.9953 133.162 19.1553C132.954 19.3073 132.85 19.5233 132.85 19.8033C132.85 19.9633 132.934 20.1153 133.102 20.2593C133.278 20.3953 133.534 20.5073 133.87 20.5953L134.47 20.7513C134.862 20.8473 135.19 20.9913 135.454 21.1833C135.718 21.3673 135.918 21.5793 136.054 21.8193C136.19 22.0593 136.258 22.3153 136.258 22.5873C136.258 22.9473 136.162 23.2593 135.97 23.5233C135.778 23.7873 135.518 23.9913 135.19 24.1353C134.862 24.2713 134.486 24.3393 134.062 24.3393Z" fill="black"/>
<path d="M22.8645 22.4296L25.1397 24.7048L24.3884 25.4562L22.1131 23.1809C21.295 23.8354 20.2575 24.2269 19.1291 24.2269C16.4897 24.2269 14.3477 22.0849 14.3477 19.4455C14.3477 16.8061 16.4897 14.6641 19.1291 14.6641C21.7685 14.6641 23.9105 16.8061 23.9105 19.4455C23.9105 20.5739 23.519 21.6114 22.8645 22.4296ZM21.7986 22.0353C22.4482 21.3658 22.848 20.4526 22.848 19.4455C22.848 17.3908 21.1838 15.7266 19.1291 15.7266C17.0744 15.7266 15.4102 17.3908 15.4102 19.4455C15.4102 21.5002 17.0744 23.1644 19.1291 23.1644C20.1362 23.1644 21.0494 22.7646 21.7189 22.115L21.7986 22.0353Z" fill="black"/>
<path d="M10.757 56.3901C9.949 56.3901 9.229 56.2061 8.597 55.8381C7.973 55.4621 7.481 54.9501 7.121 54.3021C6.769 53.6461 6.593 52.8941 6.593 52.0461C6.593 51.1981 6.769 50.4501 7.121 49.8021C7.481 49.1461 7.973 48.6341 8.597 48.2661C9.221 47.8901 9.937 47.7021 10.745 47.7021C11.289 47.7021 11.801 47.8021 12.281 48.0021C12.761 48.1941 13.185 48.4621 13.553 48.8061C13.929 49.1501 14.217 49.5501 14.417 50.0061L13.145 50.5221C13.001 50.2181 12.805 49.9501 12.557 49.7181C12.317 49.4781 12.041 49.2941 11.729 49.1661C11.417 49.0381 11.089 48.9741 10.745 48.9741C10.217 48.9741 9.745 49.1061 9.329 49.3701C8.921 49.6341 8.597 49.9981 8.357 50.4621C8.125 50.9181 8.009 51.4461 8.009 52.0461C8.009 52.6461 8.125 53.1781 8.357 53.6421C8.597 54.1061 8.925 54.4701 9.341 54.7341C9.765 54.9981 10.245 55.1301 10.781 55.1301C11.133 55.1301 11.461 55.0621 11.765 54.9261C12.077 54.7821 12.353 54.5861 12.593 54.3381C12.841 54.0901 13.037 53.8021 13.181 53.4741L14.453 53.9901C14.253 54.4621 13.969 54.8821 13.601 55.2501C13.233 55.6101 12.805 55.8901 12.317 56.0901C11.829 56.2901 11.309 56.3901 10.757 56.3901ZM16.1889 53.0541C16.1889 52.4061 16.3129 51.8741 16.5609 51.4581C16.8089 51.0421 17.1289 50.7341 17.5209 50.5341C17.9209 50.3261 18.3369 50.2221 18.7689 50.2221V51.5061C18.4009 51.5061 18.0529 51.5581 17.7249 51.6621C17.4049 51.7581 17.1449 51.9181 16.9449 52.1421C16.7449 52.3661 16.6449 52.6621 16.6449 53.0301L16.1889 53.0541ZM15.3009 56.2461V50.2461H16.6449V56.2461H15.3009ZM19.5043 56.2461V50.2461H20.8363V56.2461H19.5043ZM20.1763 49.1061C19.9603 49.1061 19.7723 49.0301 19.6123 48.8781C19.4603 48.7181 19.3843 48.5301 19.3843 48.3141C19.3843 48.0981 19.4603 47.9141 19.6123 47.7621C19.7723 47.6101 19.9603 47.5341 20.1763 47.5341C20.3923 47.5341 20.5763 47.6101 20.7283 47.7621C20.8883 47.9141 20.9683 48.0981 20.9683 48.3141C20.9683 48.5301 20.8883 48.7181 20.7283 48.8781C20.5763 49.0301 20.3923 49.1061 20.1763 49.1061ZM24.5682 56.3901C23.9362 56.3901 23.4522 56.2341 23.1162 55.9221C22.7882 55.6021 22.6242 55.1461 22.6242 54.5541V48.3741H23.9562V54.3021C23.9562 54.5821 24.0202 54.7941 24.1482 54.9381C24.2842 55.0821 24.4802 55.1541 24.7362 55.1541C24.8162 55.1541 24.9043 55.1381 25.0002 55.1061C25.0962 55.0741 25.2042 55.0141 25.3242 54.9261L25.8162 55.9461C25.6082 56.0901 25.4002 56.1981 25.1923 56.2701C24.9842 56.3501 24.7762 56.3901 24.5682 56.3901ZM21.6282 51.3981V50.2461H25.5763V51.3981H21.6282ZM29.0392 56.3901C28.4072 56.3901 27.9232 56.2341 27.5872 55.9221C27.2592 55.6021 27.0952 55.1461 27.0952 54.5541V48.3741H28.4272V54.3021C28.4272 54.5821 28.4912 54.7941 28.6192 54.9381C28.7552 55.0821 28.9512 55.1541 29.2072 55.1541C29.2872 55.1541 29.3752 55.1381 29.4712 55.1061C29.5672 55.0741 29.6752 55.0141 29.7952 54.9261L30.2872 55.9461C30.0792 56.0901 29.8712 56.1981 29.6632 56.2701C29.4552 56.3501 29.2472 56.3901 29.0392 56.3901ZM26.0992 51.3981V50.2461H30.0472V51.3981H26.0992ZM33.7161 56.3901C33.1321 56.3901 32.6121 56.2581 32.1561 55.9941C31.7081 55.7221 31.3521 55.3501 31.0881 54.8781C30.8321 54.4061 30.7041 53.8621 30.7041 53.2461C30.7041 52.6301 30.8361 52.0861 31.1001 51.6141C31.3641 51.1421 31.7241 50.7741 32.1801 50.5101C32.6441 50.2381 33.1721 50.1021 33.7641 50.1021C34.3001 50.1021 34.7841 50.2421 35.2161 50.5221C35.6481 50.7941 35.9881 51.1901 36.2361 51.7101C36.4921 52.2301 36.6201 52.8501 36.6201 53.5701H31.9041L32.0841 53.4021C32.0841 53.7701 32.1641 54.0901 32.3241 54.3621C32.4841 54.6261 32.6961 54.8301 32.9601 54.9741C33.2241 55.1181 33.5161 55.1901 33.8361 55.1901C34.2041 55.1901 34.5081 55.1101 34.7481 54.9501C34.9881 54.7821 35.1761 54.5661 35.3121 54.3021L36.5001 54.8061C36.3321 55.1261 36.1161 55.4061 35.8521 55.6461C35.5961 55.8861 35.2881 56.0701 34.9281 56.1981C34.5761 56.3261 34.1721 56.3901 33.7161 56.3901ZM32.1681 52.7061L31.9761 52.5381H35.3601L35.1801 52.7061C35.1801 52.3781 35.1081 52.1101 34.9641 51.9021C34.8201 51.6861 34.6361 51.5261 34.4121 51.4221C34.1961 51.3101 33.9681 51.2541 33.7281 51.2541C33.4881 51.2541 33.2481 51.3101 33.0081 51.4221C32.7681 51.5261 32.5681 51.6861 32.4081 51.9021C32.2481 52.1101 32.1681 52.3781 32.1681 52.7061ZM38.2975 53.0541C38.2975 52.4061 38.4215 51.8741 38.6695 51.4581C38.9175 51.0421 39.2375 50.7341 39.6295 50.5341C40.0295 50.3261 40.4455 50.2221 40.8775 50.2221V51.5061C40.5095 51.5061 40.1615 51.5581 39.8335 51.6621C39.5135 51.7581 39.2535 51.9181 39.0535 52.1421C38.8535 52.3661 38.7535 52.6621 38.7535 53.0301L38.2975 53.0541ZM37.4095 56.2461V50.2461H38.7535V56.2461H37.4095ZM48.1674 56.3901C47.3354 56.3901 46.5994 56.2061 45.9594 55.8381C45.3194 55.4701 44.8154 54.9581 44.4474 54.3021C44.0874 53.6461 43.9074 52.8941 43.9074 52.0461C43.9074 51.4061 44.0114 50.8221 44.2194 50.2941C44.4274 49.7661 44.7194 49.3101 45.0954 48.9261C45.4714 48.5341 45.9154 48.2341 46.4274 48.0261C46.9474 47.8101 47.5154 47.7021 48.1314 47.7021C48.9634 47.7021 49.6954 47.8901 50.3274 48.2661C50.9674 48.6341 51.4634 49.1461 51.8154 49.8021C52.1754 50.4501 52.3554 51.1981 52.3554 52.0461C52.3554 52.8941 52.1754 53.6461 51.8154 54.3021C51.4634 54.9581 50.9714 55.4701 50.3394 55.8381C49.7154 56.2061 48.9914 56.3901 48.1674 56.3901ZM51.4314 56.7381L48.3714 53.6421L49.2714 52.7781L52.3074 55.8621L51.4314 56.7381ZM48.1674 55.1181C48.7114 55.1181 49.1914 54.9861 49.6074 54.7221C50.0234 54.4581 50.3474 54.0981 50.5794 53.6421C50.8194 53.1781 50.9394 52.6461 50.9394 52.0461C50.9394 51.4461 50.8194 50.9181 50.5794 50.4621C50.3394 49.9981 50.0074 49.6341 49.5834 49.3701C49.1674 49.1061 48.6834 48.9741 48.1314 48.9741C47.5874 48.9741 47.1034 49.1061 46.6794 49.3701C46.2634 49.6341 45.9314 49.9981 45.6834 50.4621C45.4434 50.9181 45.3234 51.4461 45.3234 52.0461C45.3234 52.6461 45.4434 53.1781 45.6834 53.6421C45.9314 54.0981 46.2674 54.4581 46.6914 54.7221C47.1234 54.9861 47.6154 55.1181 48.1674 55.1181ZM57.3853 56.2461L57.3133 55.1421V50.2461H58.6453V56.2461H57.3853ZM53.2333 53.3181V50.2461H54.5773V53.3181H53.2333ZM54.5773 53.3181C54.5773 53.7901 54.6333 54.1581 54.7453 54.4221C54.8573 54.6861 55.0093 54.8701 55.2013 54.9741C55.4013 55.0781 55.6293 55.1301 55.8853 55.1301C56.3413 55.1381 56.6933 54.9901 56.9413 54.6861C57.1893 54.3821 57.3133 53.9461 57.3133 53.3781H57.8173C57.8173 54.0101 57.7213 54.5541 57.5293 55.0101C57.3453 55.4581 57.0813 55.8021 56.7373 56.0421C56.4013 56.2741 55.9933 56.3901 55.5133 56.3901C55.0413 56.3901 54.6333 56.2941 54.2893 56.1021C53.9533 55.9101 53.6933 55.6101 53.5093 55.2021C53.3253 54.7941 53.2333 54.2701 53.2333 53.6301V53.3181H54.5773ZM59.9827 56.2461V50.2461H61.3147V56.2461H59.9827ZM60.6547 49.1061C60.4387 49.1061 60.2507 49.0301 60.0907 48.8781C59.9387 48.7181 59.8627 48.5301 59.8627 48.3141C59.8627 48.0981 59.9387 47.9141 60.0907 47.7621C60.2507 47.6101 60.4387 47.5341 60.6547 47.5341C60.8707 47.5341 61.0547 47.6101 61.2067 47.7621C61.3667 47.9141 61.4467 48.0981 61.4467 48.3141C61.4467 48.5301 61.3667 48.7181 61.2067 48.8781C61.0547 49.0301 60.8707 49.1061 60.6547 49.1061ZM65.0467 56.3901C64.4147 56.3901 63.9307 56.2341 63.5947 55.9221C63.2667 55.6021 63.1027 55.1461 63.1027 54.5541V48.3741H64.4347V54.3021C64.4347 54.5821 64.4987 54.7941 64.6267 54.9381C64.7627 55.0821 64.9587 55.1541 65.2147 55.1541C65.2947 55.1541 65.3827 55.1381 65.4787 55.1061C65.5747 55.0741 65.6827 55.0141 65.8027 54.9261L66.2947 55.9461C66.0867 56.0901 65.8787 56.1981 65.6707 56.2701C65.4627 56.3501 65.2547 56.3901 65.0467 56.3901ZM62.1067 51.3981V50.2461H66.0547V51.3981H62.1067ZM69.5176 56.3901C68.8856 56.3901 68.4016 56.2341 68.0656 55.9221C67.7376 55.6021 67.5736 55.1461 67.5736 54.5541V48.3741H68.9056V54.3021C68.9056 54.5821 68.9696 54.7941 69.0976 54.9381C69.2336 55.0821 69.4296 55.1541 69.6856 55.1541C69.7656 55.1541 69.8536 55.1381 69.9496 55.1061C70.0456 55.0741 70.1536 55.0141 70.2736 54.9261L70.7656 55.9461C70.5576 56.0901 70.3496 56.1981 70.1416 56.2701C69.9336 56.3501 69.7256 56.3901 69.5176 56.3901ZM66.5776 51.3981V50.2461H70.5256V51.3981H66.5776ZM74.1945 56.3901C73.6105 56.3901 73.0905 56.2581 72.6345 55.9941C72.1865 55.7221 71.8305 55.3501 71.5665 54.8781C71.3105 54.4061 71.1825 53.8621 71.1825 53.2461C71.1825 52.6301 71.3145 52.0861 71.5785 51.6141C71.8425 51.1421 72.2025 50.7741 72.6585 50.5101C73.1225 50.2381 73.6505 50.1021 74.2425 50.1021C74.7785 50.1021 75.2625 50.2421 75.6945 50.5221C76.1265 50.7941 76.4665 51.1901 76.7145 51.7101C76.9705 52.2301 77.0985 52.8501 77.0985 53.5701H72.3825L72.5625 53.4021C72.5625 53.7701 72.6425 54.0901 72.8025 54.3621C72.9625 54.6261 73.1745 54.8301 73.4385 54.9741C73.7025 55.1181 73.9945 55.1901 74.3145 55.1901C74.6825 55.1901 74.9865 55.1101 75.2265 54.9501C75.4665 54.7821 75.6545 54.5661 75.7905 54.3021L76.9785 54.8061C76.8105 55.1261 76.5945 55.4061 76.3305 55.6461C76.0745 55.8861 75.7665 56.0701 75.4065 56.1981C75.0545 56.3261 74.6505 56.3901 74.1945 56.3901ZM72.6465 52.7061L72.4545 52.5381H75.8385L75.6585 52.7061C75.6585 52.3781 75.5865 52.1101 75.4425 51.9021C75.2985 51.6861 75.1145 51.5261 74.8905 51.4221C74.6745 51.3101 74.4465 51.2541 74.2065 51.2541C73.9665 51.2541 73.7265 51.3101 73.4865 51.4221C73.2465 51.5261 73.0465 51.6861 72.8865 51.9021C72.7265 52.1101 72.6465 52.3781 72.6465 52.7061ZM78.7759 53.0541C78.7759 52.4061 78.8999 51.8741 79.1479 51.4581C79.3959 51.0421 79.7159 50.7341 80.1079 50.5341C80.5079 50.3261 80.9239 50.2221 81.3559 50.2221V51.5061C80.9879 51.5061 80.6399 51.5581 80.3119 51.6621C79.9919 51.7581 79.7319 51.9181 79.5319 52.1421C79.3319 52.3661 79.2319 52.6621 79.2319 53.0301L78.7759 53.0541ZM77.8879 56.2461V50.2461H79.2319V56.2461H77.8879ZM86.5218 57.4461C86.1538 56.9581 85.8178 56.4301 85.5138 55.8621C85.2098 55.2861 84.9698 54.6781 84.7938 54.0381C84.6178 53.3981 84.5298 52.7341 84.5298 52.0461C84.5298 51.3501 84.6178 50.6861 84.7938 50.0541C84.9698 49.4141 85.2098 48.8101 85.5138 48.2421C85.8178 47.6661 86.1538 47.1341 86.5218 46.6461H87.8658C87.4978 47.1581 87.1618 47.7061 86.8578 48.2901C86.5538 48.8741 86.3138 49.4821 86.1378 50.1141C85.9618 50.7381 85.8738 51.3821 85.8738 52.0461C85.8738 52.7021 85.9618 53.3461 86.1378 53.9781C86.3138 54.6101 86.5538 55.2181 86.8578 55.8021C87.1618 56.3781 87.4978 56.9261 87.8658 57.4461H86.5218ZM89.1152 56.2461V47.8461H92.0792C92.6552 47.8461 93.1632 47.9621 93.6032 48.1941C94.0432 48.4261 94.3872 48.7501 94.6352 49.1661C94.8832 49.5741 95.0072 50.0501 95.0072 50.5941C95.0072 51.1221 94.8912 51.5941 94.6592 52.0101C94.4272 52.4261 94.1032 52.7541 93.6872 52.9941C93.2792 53.2261 92.8032 53.3421 92.2592 53.3421H90.5072V56.2461H89.1152ZM90.5072 52.0581H92.2352C92.6352 52.0581 92.9632 51.9221 93.2192 51.6501C93.4752 51.3781 93.6032 51.0261 93.6032 50.5941C93.6032 50.1541 93.4592 49.7981 93.1712 49.5261C92.8832 49.2541 92.5112 49.1181 92.0552 49.1181H90.5072V52.0581ZM96.6011 53.0541C96.6011 52.4061 96.7251 51.8741 96.9731 51.4581C97.2211 51.0421 97.5411 50.7341 97.9331 50.5341C98.3331 50.3261 98.7491 50.2221 99.1811 50.2221V51.5061C98.8131 51.5061 98.4651 51.5581 98.1371 51.6621C97.8171 51.7581 97.5571 51.9181 97.3571 52.1421C97.1571 52.3661 97.0571 52.6621 97.0571 53.0301L96.6011 53.0541ZM95.7131 56.2461V50.2461H97.0571V56.2461H95.7131ZM102.592 56.3901C101.992 56.3901 101.456 56.2581 100.984 55.9941C100.52 55.7221 100.156 55.3501 99.8924 54.8781C99.6284 54.4061 99.4964 53.8621 99.4964 53.2461C99.4964 52.6301 99.6244 52.0861 99.8804 51.6141C100.144 51.1421 100.508 50.7741 100.972 50.5101C101.436 50.2381 101.968 50.1021 102.568 50.1021C103.168 50.1021 103.7 50.2381 104.164 50.5101C104.628 50.7741 104.988 51.1421 105.244 51.6141C105.508 52.0861 105.64 52.6301 105.64 53.2461C105.64 53.8621 105.512 54.4061 105.256 54.8781C105 55.3501 104.64 55.7221 104.176 55.9941C103.712 56.2581 103.184 56.3901 102.592 56.3901ZM102.592 55.1541C102.92 55.1541 103.212 55.0741 103.468 54.9141C103.724 54.7461 103.924 54.5221 104.068 54.2421C104.212 53.9541 104.284 53.6221 104.284 53.2461C104.284 52.8701 104.208 52.5421 104.056 52.2621C103.912 51.9741 103.712 51.7501 103.456 51.5901C103.2 51.4221 102.904 51.3381 102.568 51.3381C102.232 51.3381 101.936 51.4181 101.68 51.5781C101.424 51.7381 101.224 51.9621 101.08 52.2501C100.936 52.5381 100.864 52.8701 100.864 53.2461C100.864 53.6221 100.936 53.9541 101.08 54.2421C101.232 54.5221 101.436 54.7461 101.692 54.9141C101.956 55.0741 102.256 55.1541 102.592 55.1541ZM107.165 56.2461V49.6101C107.165 48.9781 107.321 48.4941 107.633 48.1581C107.953 47.8141 108.433 47.6421 109.073 47.6421C109.281 47.6421 109.501 47.6781 109.733 47.7501C109.973 47.8141 110.201 47.9021 110.417 48.0141L109.925 49.0101C109.773 48.9381 109.637 48.8861 109.517 48.8541C109.405 48.8221 109.305 48.8061 109.217 48.8061C108.977 48.8061 108.797 48.8861 108.677 49.0461C108.565 49.1981 108.509 49.4501 108.509 49.8021V56.2461H107.165ZM106.133 51.3501V50.2461H110.081V51.3501H106.133ZM113.501 56.3901C112.917 56.3901 112.397 56.2581 111.941 55.9941C111.493 55.7221 111.137 55.3501 110.873 54.8781C110.617 54.4061 110.489 53.8621 110.489 53.2461C110.489 52.6301 110.621 52.0861 110.885 51.6141C111.149 51.1421 111.509 50.7741 111.965 50.5101C112.429 50.2381 112.957 50.1021 113.549 50.1021C114.085 50.1021 114.569 50.2421 115.001 50.5221C115.433 50.7941 115.773 51.1901 116.021 51.7101C116.277 52.2301 116.405 52.8501 116.405 53.5701H111.689L111.869 53.4021C111.869 53.7701 111.949 54.0901 112.109 54.3621C112.269 54.6261 112.481 54.8301 112.745 54.9741C113.009 55.1181 113.301 55.1901 113.621 55.1901C113.989 55.1901 114.293 55.1101 114.533 54.9501C114.773 54.7821 114.961 54.5661 115.097 54.3021L116.285 54.8061C116.117 55.1261 115.901 55.4061 115.637 55.6461C115.381 55.8861 115.073 56.0701 114.713 56.1981C114.361 56.3261 113.957 56.3901 113.501 56.3901ZM111.953 52.7061L111.761 52.5381H115.145L114.965 52.7061C114.965 52.3781 114.893 52.1101 114.749 51.9021C114.605 51.6861 114.421 51.5261 114.197 51.4221C113.981 51.3101 113.753 51.2541 113.513 51.2541C113.273 51.2541 113.033 51.3101 112.793 51.4221C112.553 51.5261 112.353 51.6861 112.193 51.9021C112.033 52.1101 111.953 52.3781 111.953 52.7061ZM119.378 56.3901C118.978 56.3901 118.61 56.3301 118.274 56.2101C117.938 56.0901 117.65 55.9221 117.41 55.7061C117.17 55.4821 116.986 55.2221 116.858 54.9261L118.022 54.4101C118.142 54.6341 118.318 54.8221 118.55 54.9741C118.79 55.1261 119.054 55.2021 119.342 55.2021C119.654 55.2021 119.902 55.1501 120.086 55.0461C120.278 54.9341 120.374 54.7821 120.374 54.5901C120.374 54.4061 120.302 54.2661 120.158 54.1701C120.014 54.0661 119.81 53.9821 119.546 53.9181L118.982 53.7621C118.414 53.6181 117.97 53.3901 117.65 53.0781C117.33 52.7581 117.17 52.3941 117.17 51.9861C117.17 51.3861 117.362 50.9221 117.746 50.5941C118.138 50.2661 118.698 50.1021 119.426 50.1021C119.794 50.1021 120.13 50.1581 120.434 50.2701C120.746 50.3741 121.014 50.5261 121.238 50.7261C121.462 50.9181 121.618 51.1461 121.706 51.4101L120.59 51.9141C120.51 51.7141 120.358 51.5621 120.134 51.4581C119.91 51.3461 119.662 51.2901 119.39 51.2901C119.118 51.2901 118.906 51.3501 118.754 51.4701C118.602 51.5821 118.526 51.7421 118.526 51.9501C118.526 52.0701 118.594 52.1821 118.73 52.2861C118.866 52.3821 119.062 52.4621 119.318 52.5261L120.026 52.6941C120.418 52.7901 120.738 52.9421 120.986 53.1501C121.234 53.3501 121.418 53.5781 121.538 53.8341C121.658 54.0821 121.718 54.3341 121.718 54.5901C121.718 54.9501 121.614 55.2661 121.406 55.5381C121.206 55.8101 120.93 56.0221 120.578 56.1741C120.226 56.3181 119.826 56.3901 119.378 56.3901ZM124.717 56.3901C124.317 56.3901 123.949 56.3301 123.613 56.2101C123.277 56.0901 122.989 55.9221 122.749 55.7061C122.509 55.4821 122.325 55.2221 122.197 54.9261L123.361 54.4101C123.481 54.6341 123.657 54.8221 123.889 54.9741C124.129 55.1261 124.393 55.2021 124.681 55.2021C124.993 55.2021 125.241 55.1501 125.425 55.0461C125.617 54.9341 125.713 54.7821 125.713 54.5901C125.713 54.4061 125.641 54.2661 125.497 54.1701C125.353 54.0661 125.149 53.9821 124.885 53.9181L124.321 53.7621C123.753 53.6181 123.309 53.3901 122.989 53.0781C122.669 52.7581 122.509 52.3941 122.509 51.9861C122.509 51.3861 122.701 50.9221 123.085 50.5941C123.477 50.2661 124.037 50.1021 124.765 50.1021C125.133 50.1021 125.469 50.1581 125.773 50.2701C126.085 50.3741 126.353 50.5261 126.577 50.7261C126.801 50.9181 126.957 51.1461 127.045 51.4101L125.929 51.9141C125.849 51.7141 125.697 51.5621 125.473 51.4581C125.249 51.3461 125.001 51.2901 124.729 51.2901C124.457 51.2901 124.245 51.3501 124.093 51.4701C123.941 51.5821 123.865 51.7421 123.865 51.9501C123.865 52.0701 123.933 52.1821 124.069 52.2861C124.205 52.3821 124.401 52.4621 124.657 52.5261L125.365 52.6941C125.757 52.7901 126.077 52.9421 126.325 53.1501C126.573 53.3501 126.757 53.5781 126.877 53.8341C126.997 54.0821 127.057 54.3341 127.057 54.5901C127.057 54.9501 126.953 55.2661 126.745 55.5381C126.545 55.8101 126.269 56.0221 125.917 56.1741C125.565 56.3181 125.165 56.3901 124.717 56.3901ZM127.966 56.2461V50.2461H129.298V56.2461H127.966ZM128.638 49.1061C128.422 49.1061 128.234 49.0301 128.074 48.8781C127.922 48.7181 127.846 48.5301 127.846 48.3141C127.846 48.0981 127.922 47.9141 128.074 47.7621C128.234 47.6101 128.422 47.5341 128.638 47.5341C128.854 47.5341 129.038 47.6101 129.19 47.7621C129.35 47.9141 129.43 48.0981 129.43 48.3141C129.43 48.5301 129.35 48.7181 129.19 48.8781C129.038 49.0301 128.854 49.1061 128.638 49.1061ZM133.402 56.3901C132.802 56.3901 132.266 56.2581 131.794 55.9941C131.33 55.7221 130.966 55.3501 130.702 54.8781C130.438 54.4061 130.306 53.8621 130.306 53.2461C130.306 52.6301 130.434 52.0861 130.69 51.6141C130.954 51.1421 131.318 50.7741 131.782 50.5101C132.246 50.2381 132.778 50.1021 133.378 50.1021C133.978 50.1021 134.51 50.2381 134.974 50.5101C135.438 50.7741 135.798 51.1421 136.054 51.6141C136.318 52.0861 136.45 52.6301 136.45 53.2461C136.45 53.8621 136.322 54.4061 136.066 54.8781C135.81 55.3501 135.45 55.7221 134.986 55.9941C134.522 56.2581 133.994 56.3901 133.402 56.3901ZM133.402 55.1541C133.73 55.1541 134.022 55.0741 134.278 54.9141C134.534 54.7461 134.734 54.5221 134.878 54.2421C135.022 53.9541 135.094 53.6221 135.094 53.2461C135.094 52.8701 135.018 52.5421 134.866 52.2621C134.722 51.9741 134.522 51.7501 134.266 51.5901C134.01 51.4221 133.714 51.3381 133.378 51.3381C133.042 51.3381 132.746 51.4181 132.49 51.5781C132.234 51.7381 132.034 51.9621 131.89 52.2501C131.746 52.5381 131.674 52.8701 131.674 53.2461C131.674 53.6221 131.746 53.9541 131.89 54.2421C132.042 54.5221 132.246 54.7461 132.502 54.9141C132.766 55.0741 133.066 55.1541 133.402 55.1541ZM137.375 56.2461V50.2461H138.635L138.719 51.3501V56.2461H137.375ZM141.443 56.2461V53.1741H142.787V56.2461H141.443ZM141.443 53.1741C141.443 52.6941 141.387 52.3261 141.275 52.0701C141.171 51.8061 141.019 51.6221 140.819 51.5181C140.627 51.4141 140.399 51.3621 140.135 51.3621C139.687 51.3541 139.339 51.5021 139.091 51.8061C138.843 52.1101 138.719 52.5461 138.719 53.1141H138.215C138.215 52.4821 138.307 51.9421 138.491 51.4941C138.675 51.0381 138.939 50.6941 139.283 50.4621C139.627 50.2221 140.035 50.1021 140.507 50.1021C140.987 50.1021 141.395 50.1981 141.731 50.3901C142.075 50.5821 142.335 50.8821 142.511 51.2901C142.695 51.6901 142.787 52.2141 142.787 52.8621V53.1741H141.443ZM147.569 56.2461L147.509 55.1181V53.1621C147.509 52.7541 147.465 52.4141 147.377 52.1421C147.297 51.8621 147.161 51.6501 146.969 51.5061C146.785 51.3541 146.537 51.2781 146.225 51.2781C145.937 51.2781 145.685 51.3381 145.469 51.4581C145.253 51.5781 145.069 51.7661 144.917 52.0221L143.741 51.5901C143.869 51.3261 144.037 51.0821 144.245 50.8581C144.461 50.6261 144.729 50.4421 145.049 50.3061C145.377 50.1701 145.769 50.1021 146.225 50.1021C146.809 50.1021 147.297 50.2181 147.689 50.4501C148.081 50.6741 148.369 50.9981 148.553 51.4221C148.745 51.8461 148.841 52.3581 148.841 52.9581L148.805 56.2461H147.569ZM145.841 56.3901C145.121 56.3901 144.561 56.2301 144.161 55.9101C143.769 55.5901 143.573 55.1381 143.573 54.5541C143.573 53.9301 143.781 53.4541 144.197 53.1261C144.621 52.7981 145.209 52.6341 145.961 52.6341H147.569V53.6661H146.393C145.857 53.6661 145.481 53.7421 145.265 53.8941C145.049 54.0381 144.941 54.2461 144.941 54.5181C144.941 54.7501 145.033 54.9341 145.217 55.0701C145.409 55.1981 145.673 55.2621 146.009 55.2621C146.313 55.2621 146.577 55.1941 146.801 55.0581C147.025 54.9221 147.197 54.7421 147.317 54.5181C147.445 54.2941 147.509 54.0421 147.509 53.7621H147.905C147.905 54.5781 147.741 55.2221 147.413 55.6941C147.085 56.1581 146.561 56.3901 145.841 56.3901ZM149.961 56.2461V47.8461H151.305V56.2461H149.961ZM9.881 69.3901C9.441 69.3901 9.037 69.3381 8.669 69.2341C8.309 69.1301 7.989 68.9861 7.709 68.8021C7.437 68.6181 7.209 68.4141 7.025 68.1901C6.849 67.9581 6.725 67.7181 6.653 67.4701L8.021 67.0501C8.125 67.3461 8.329 67.6061 8.633 67.8301C8.937 68.0541 9.313 68.1701 9.761 68.1781C10.281 68.1781 10.693 68.0701 10.997 67.8541C11.301 67.6381 11.453 67.3541 11.453 67.0021C11.453 66.6821 11.325 66.4221 11.069 66.2221C10.813 66.0141 10.469 65.8541 10.037 65.7421L9.005 65.4781C8.613 65.3741 8.257 65.2221 7.937 65.0221C7.625 64.8221 7.377 64.5701 7.193 64.2661C7.017 63.9621 6.929 63.6021 6.929 63.1861C6.929 62.4021 7.185 61.7941 7.697 61.3621C8.209 60.9221 8.941 60.7021 9.893 60.7021C10.429 60.7021 10.897 60.7861 11.297 60.9541C11.705 61.1141 12.041 61.3381 12.305 61.6261C12.569 61.9061 12.765 62.2261 12.893 62.5861L11.549 63.0181C11.429 62.6981 11.221 62.4341 10.925 62.2261C10.629 62.0181 10.261 61.9141 9.821 61.9141C9.365 61.9141 9.005 62.0221 8.741 62.2381C8.485 62.4541 8.357 62.7541 8.357 63.1381C8.357 63.4501 8.457 63.6941 8.657 63.8701C8.865 64.0381 9.145 64.1661 9.497 64.2541L10.529 64.5061C11.281 64.6901 11.865 65.0061 12.281 65.4541C12.697 65.9021 12.905 66.3981 12.905 66.9421C12.905 67.4221 12.789 67.8461 12.557 68.2141C12.325 68.5821 11.981 68.8701 11.525 69.0781C11.077 69.2861 10.529 69.3901 9.881 69.3901ZM16.6292 69.3901C16.0452 69.3901 15.5252 69.2581 15.0692 68.9941C14.6212 68.7221 14.2652 68.3501 14.0012 67.8781C13.7452 67.4061 13.6172 66.8621 13.6172 66.2461C13.6172 65.6301 13.7492 65.0861 14.0132 64.6141C14.2772 64.1421 14.6372 63.7741 15.0932 63.5101C15.5572 63.2381 16.0852 63.1021 16.6772 63.1021C17.2132 63.1021 17.6972 63.2421 18.1292 63.5221C18.5612 63.7941 18.9012 64.1901 19.1492 64.7101C19.4052 65.2301 19.5332 65.8501 19.5332 66.5701H14.8172L14.9972 66.4021C14.9972 66.7701 15.0772 67.0901 15.2372 67.3621C15.3972 67.6261 15.6092 67.8301 15.8732 67.9741C16.1372 68.1181 16.4292 68.1901 16.7492 68.1901C17.1172 68.1901 17.4212 68.1101 17.6612 67.9501C17.9012 67.7821 18.0892 67.5661 18.2252 67.3021L19.4132 67.8061C19.2452 68.1261 19.0292 68.4061 18.7652 68.6461C18.5092 68.8861 18.2012 69.0701 17.8412 69.1981C17.4892 69.3261 17.0852 69.3901 16.6292 69.3901ZM15.0812 65.7061L14.8892 65.5381H18.2732L18.0932 65.7061C18.0932 65.3781 18.0212 65.1101 17.8772 64.9021C17.7332 64.6861 17.5492 64.5261 17.3252 64.4221C17.1092 64.3101 16.8812 64.2541 16.6412 64.2541C16.4012 64.2541 16.1612 64.3101 15.9212 64.4221C15.6812 64.5261 15.4812 64.6861 15.3212 64.9021C15.1612 65.1101 15.0812 65.3781 15.0812 65.7061ZM21.2106 66.0541C21.2106 65.4061 21.3346 64.8741 21.5826 64.4581C21.8306 64.0421 22.1506 63.7341 22.5426 63.5341C22.9426 63.3261 23.3586 63.2221 23.7906 63.2221V64.5061C23.4226 64.5061 23.0746 64.5581 22.7466 64.6621C22.4266 64.7581 22.1666 64.9181 21.9666 65.1421C21.7666 65.3661 21.6666 65.6621 21.6666 66.0301L21.2106 66.0541ZM20.3226 69.2461V63.2461H21.6666V69.2461H20.3226ZM26.374 69.2461L28.714 63.2461H30.106L27.634 69.2461H26.374ZM26.278 69.2461L23.794 63.2461H25.174L27.526 69.2461H26.278ZM30.7899 69.2461V63.2461H32.1219V69.2461H30.7899ZM31.4619 62.1061C31.2459 62.1061 31.0579 62.0301 30.8979 61.8781C30.7459 61.7181 30.6699 61.5301 30.6699 61.3141C30.6699 61.0981 30.7459 60.9141 30.8979 60.7621C31.0579 60.6101 31.2459 60.5341 31.4619 60.5341C31.6779 60.5341 31.8619 60.6101 32.0139 60.7621C32.1739 60.9141 32.2539 61.0981 32.2539 61.3141C32.2539 61.5301 32.1739 61.7181 32.0139 61.8781C31.8619 62.0301 31.6779 62.1061 31.4619 62.1061ZM36.2739 69.3901C35.6579 69.3901 35.1139 69.2581 34.6419 68.9941C34.1699 68.7221 33.7979 68.3501 33.5259 67.8781C33.2619 67.4061 33.1299 66.8621 33.1299 66.2461C33.1299 65.6301 33.2619 65.0861 33.5259 64.6141C33.7979 64.1421 34.1659 63.7741 34.6299 63.5101C35.1019 63.2381 35.6419 63.1021 36.2499 63.1021C36.8419 63.1021 37.3779 63.2461 37.8579 63.5341C38.3379 63.8141 38.6939 64.2181 38.9259 64.7461L37.6779 65.2261C37.5499 64.9621 37.3539 64.7501 37.0899 64.5901C36.8259 64.4301 36.5259 64.3501 36.1899 64.3501C35.8619 64.3501 35.5699 64.4341 35.3139 64.6021C35.0579 64.7621 34.8579 64.9861 34.7139 65.2741C34.5699 65.5541 34.4979 65.8781 34.4979 66.2461C34.4979 66.6141 34.5699 66.9421 34.7139 67.2301C34.8659 67.5101 35.0699 67.7341 35.3259 67.9021C35.5899 68.0621 35.8859 68.1421 36.2139 68.1421C36.5499 68.1421 36.8499 68.0581 37.1139 67.8901C37.3779 67.7141 37.5739 67.4781 37.7019 67.1821L38.9499 67.6621C38.7179 68.2061 38.3619 68.6301 37.8819 68.9341C37.4099 69.2381 36.8739 69.3901 36.2739 69.3901ZM42.4292 69.3901C41.8452 69.3901 41.3252 69.2581 40.8692 68.9941C40.4212 68.7221 40.0652 68.3501 39.8012 67.8781C39.5452 67.4061 39.4172 66.8621 39.4172 66.2461C39.4172 65.6301 39.5492 65.0861 39.8132 64.6141C40.0772 64.1421 40.4372 63.7741 40.8932 63.5101C41.3572 63.2381 41.8852 63.1021 42.4772 63.1021C43.0132 63.1021 43.4972 63.2421 43.9292 63.5221C44.3612 63.7941 44.7012 64.1901 44.9492 64.7101C45.2052 65.2301 45.3332 65.8501 45.3332 66.5701H40.6172L40.7972 66.4021C40.7972 66.7701 40.8772 67.0901 41.0372 67.3621C41.1972 67.6261 41.4092 67.8301 41.6732 67.9741C41.9372 68.1181 42.2292 68.1901 42.5492 68.1901C42.9172 68.1901 43.2212 68.1101 43.4612 67.9501C43.7012 67.7821 43.8892 67.5661 44.0252 67.3021L45.2132 67.8061C45.0452 68.1261 44.8292 68.4061 44.5652 68.6461C44.3092 68.8861 44.0012 69.0701 43.6412 69.1981C43.2892 69.3261 42.8852 69.3901 42.4292 69.3901ZM40.8812 65.7061L40.6892 65.5381H44.0732L43.8932 65.7061C43.8932 65.3781 43.8212 65.1101 43.6772 64.9021C43.5332 64.6861 43.3492 64.5261 43.1252 64.4221C42.9092 64.3101 42.6812 64.2541 42.4412 64.2541C42.2012 64.2541 41.9612 64.3101 41.7212 64.4221C41.4812 64.5261 41.2812 64.6861 41.1212 64.9021C40.9612 65.1101 40.8812 65.3781 40.8812 65.7061ZM48.3066 69.3901C47.9066 69.3901 47.5386 69.3301 47.2026 69.2101C46.8666 69.0901 46.5786 68.9221 46.3386 68.7061C46.0986 68.4821 45.9146 68.2221 45.7866 67.9261L46.9506 67.4101C47.0706 67.6341 47.2466 67.8221 47.4786 67.9741C47.7186 68.1261 47.9826 68.2021 48.2706 68.2021C48.5826 68.2021 48.8306 68.1501 49.0146 68.0461C49.2066 67.9341 49.3026 67.7821 49.3026 67.5901C49.3026 67.4061 49.2306 67.2661 49.0866 67.1701C48.9426 67.0661 48.7386 66.9821 48.4746 66.9181L47.9106 66.7621C47.3426 66.6181 46.8986 66.3901 46.5786 66.0781C46.2586 65.7581 46.0986 65.3941 46.0986 64.9861C46.0986 64.3861 46.2906 63.9221 46.6746 63.5941C47.0666 63.2661 47.6266 63.1021 48.3546 63.1021C48.7226 63.1021 49.0586 63.1581 49.3626 63.2701C49.6746 63.3741 49.9426 63.5261 50.1666 63.7261C50.3906 63.9181 50.5466 64.1461 50.6346 64.4101L49.5186 64.9141C49.4386 64.7141 49.2866 64.5621 49.0626 64.4581C48.8386 64.3461 48.5906 64.2901 48.3186 64.2901C48.0466 64.2901 47.8346 64.3501 47.6826 64.4701C47.5306 64.5821 47.4546 64.7421 47.4546 64.9501C47.4546 65.0701 47.5226 65.1821 47.6586 65.2861C47.7946 65.3821 47.9906 65.4621 48.2466 65.5261L48.9546 65.6941C49.3466 65.7901 49.6666 65.9421 49.9146 66.1501C50.1626 66.3501 50.3466 66.5781 50.4666 66.8341C50.5866 67.0821 50.6466 67.3341 50.6466 67.5901C50.6466 67.9501 50.5426 68.2661 50.3346 68.5381C50.1346 68.8101 49.8586 69.0221 49.5066 69.1741C49.1546 69.3181 48.7546 69.3901 48.3066 69.3901ZM52.5644 70.4461H51.2204C51.5964 69.9261 51.9324 69.3781 52.2284 68.8021C52.5324 68.2181 52.7724 67.6101 52.9484 66.9781C53.1244 66.3461 53.2124 65.7021 53.2124 65.0461C53.2124 64.3821 53.1244 63.7381 52.9484 63.1141C52.7724 62.4821 52.5324 61.8741 52.2284 61.2901C51.9324 60.7061 51.5964 60.1581 51.2204 59.6461H52.5644C52.9404 60.1341 53.2764 60.6661 53.5724 61.2421C53.8764 61.8101 54.1164 62.4141 54.2924 63.0541C54.4684 63.6861 54.5564 64.3501 54.5564 65.0461C54.5564 65.7341 54.4684 66.3981 54.2924 67.0381C54.1164 67.6781 53.8764 68.2861 53.5724 68.8621C53.2764 69.4301 52.9404 69.9581 52.5644 70.4461Z" fill="#292929"/>
<path d="M12.125 79.2461L13.4721 83.392H17.8313L14.3046 85.9543L15.6517 90.1002L12.125 87.5379L8.59829 90.1002L9.94537 85.9543L6.41866 83.392H10.7779L12.125 79.2461Z" fill="#FABD05"/>
<path d="M27.125 79.2461L28.4721 83.392H32.8313L29.3046 85.9543L30.6517 90.1002L27.125 87.5379L23.5983 90.1002L24.9454 85.9543L21.4187 83.392H25.7779L27.125 79.2461Z" fill="#FABD05"/>
<path d="M42.125 79.2461L43.4721 83.392H47.8313L44.3046 85.9543L45.6517 90.1002L42.125 87.5379L38.5983 90.1002L39.9454 85.9543L36.4187 83.392H40.7779L42.125 79.2461Z" fill="#FABD05"/>
<path d="M57.125 79.2461L58.4721 83.392H62.8313L59.3046 85.9543L60.6517 90.1002L57.125 87.5379L53.5983 90.1002L54.9454 85.9543L51.4187 83.392H55.7779L57.125 79.2461Z" fill="#FABD05"/>
<path d="M72.125 79.2461L73.4721 83.392H77.8313L74.3046 85.9543L75.6517 90.1002L72.125 87.5379L68.5983 90.1002L69.9454 85.9543L66.4187 83.392H70.7779L72.125 79.2461Z" fill="#FABD05"/>
</g>
<defs>
<filter id="filter0_b_2499_777" x="-5" y="-5" width="203.594" height="111.047" filterUnits="userSpaceOnUse" color-interpolation-filters="sRGB">
<feFlood flood-opacity="0" result="BackgroundImageFix"/>
<feGaussianBlur in="BackgroundImageFix" stdDeviation="2.5"/>
<feComposite in2="SourceAlpha" operator="in" result="effect1_backgroundBlur_2499_777"/>
<feBlend mode="normal" in="SourceGraphic" in2="effect1_backgroundBlur_2499_777" result="shape"/>
</filter>
</defs>
</svg>
