<svg width="194" height="102" viewBox="0 0 194 102" fill="none" xmlns="http://www.w3.org/2000/svg">
<g filter="url(#filter0_b_2499_760)">
<rect width="193.593" height="101.047" rx="6.71632" fill="white"/>
<rect x="6.125" y="6.125" width="181.341" height="26.8653" rx="6.71632" fill="#EDEDED"/>
<path d="M30.5328 26.5953V18.1953H31.4328L31.4928 19.2993V26.5953H30.5328ZM33.5208 24.3393C33.0168 24.3393 32.5728 24.2073 32.1888 23.9433C31.8128 23.6793 31.5208 23.3113 31.3128 22.8393C31.1048 22.3593 31.0008 21.8113 31.0008 21.1953C31.0008 20.5713 31.1048 20.0233 31.3128 19.5513C31.5208 19.0793 31.8128 18.7113 32.1888 18.4473C32.5728 18.1833 33.0168 18.0513 33.5208 18.0513C34.0568 18.0513 34.5288 18.1833 34.9368 18.4473C35.3448 18.7113 35.6608 19.0793 35.8848 19.5513C36.1168 20.0233 36.2328 20.5713 36.2328 21.1953C36.2328 21.8113 36.1168 22.3593 35.8848 22.8393C35.6608 23.3113 35.3448 23.6793 34.9368 23.9433C34.5288 24.2073 34.0568 24.3393 33.5208 24.3393ZM33.3048 23.4633C33.6808 23.4633 34.0128 23.3673 34.3008 23.1753C34.5968 22.9833 34.8288 22.7153 34.9968 22.3713C35.1728 22.0273 35.2608 21.6353 35.2608 21.1953C35.2608 20.7553 35.1768 20.3633 35.0088 20.0193C34.8488 19.6753 34.6208 19.4073 34.3248 19.2153C34.0288 19.0233 33.6928 18.9273 33.3168 18.9273C32.9648 18.9273 32.6488 19.0233 32.3688 19.2153C32.0968 19.4073 31.8808 19.6753 31.7208 20.0193C31.5688 20.3633 31.4928 20.7553 31.4928 21.1953C31.4928 21.6353 31.5688 22.0273 31.7208 22.3713C31.8808 22.7153 32.0968 22.9833 32.3688 23.1753C32.6408 23.3673 32.9528 23.4633 33.3048 23.4633ZM37.3227 24.1953V15.7953H38.2827V24.1953H37.3227ZM43.8354 24.1953L43.7754 23.0913V18.1953H44.7354V24.1953H43.8354ZM39.5634 21.2673V18.1953H40.5234V21.2673H39.5634ZM40.5234 21.2673C40.5234 21.8593 40.5914 22.3113 40.7274 22.6233C40.8634 22.9353 41.0514 23.1513 41.2914 23.2713C41.5394 23.3833 41.8154 23.4393 42.1194 23.4393C42.6394 23.4393 43.0434 23.2513 43.3314 22.8753C43.6274 22.4993 43.7754 21.9753 43.7754 21.3033H44.2434C44.2434 21.9353 44.1514 22.4793 43.9674 22.9353C43.7834 23.3913 43.5154 23.7393 43.1634 23.9793C42.8194 24.2193 42.3954 24.3393 41.8914 24.3393C41.4274 24.3393 41.0194 24.2473 40.6674 24.0633C40.3154 23.8713 40.0434 23.5713 39.8514 23.1633C39.6594 22.7473 39.5634 22.2113 39.5634 21.5553V21.2673H40.5234ZM46.1708 24.1953V18.1953H47.0708L47.1188 19.0353C47.3028 18.7153 47.5388 18.4713 47.8268 18.3033C48.1148 18.1353 48.4508 18.0513 48.8348 18.0513C49.3148 18.0513 49.7228 18.1633 50.0588 18.3873C50.4028 18.6113 50.6508 18.9513 50.8028 19.4073C50.9708 18.9673 51.2148 18.6313 51.5348 18.3993C51.8628 18.1673 52.2508 18.0513 52.6988 18.0513C53.3708 18.0513 53.8988 18.2753 54.2828 18.7233C54.6748 19.1713 54.8668 19.8513 54.8588 20.7633V24.1953H53.8988V21.1233C53.8988 20.5313 53.8348 20.0793 53.7068 19.7673C53.5868 19.4553 53.4228 19.2433 53.2148 19.1313C53.0068 19.0113 52.7668 18.9513 52.4948 18.9513C52.0228 18.9513 51.6548 19.1393 51.3908 19.5153C51.1268 19.8833 50.9948 20.4073 50.9948 21.0873V24.1953H50.0348V21.1233C50.0348 20.5313 49.9708 20.0793 49.8428 19.7673C49.7228 19.4553 49.5548 19.2433 49.3388 19.1313C49.1308 19.0113 48.8908 18.9513 48.6188 18.9513C48.1548 18.9513 47.7908 19.1393 47.5268 19.5153C47.2628 19.8833 47.1308 20.4073 47.1308 21.0873V24.1953H46.1708ZM56.1378 24.1953V15.7953H57.0978V23.0793L57.0498 24.1953H56.1378ZM59.1258 24.3393C58.6218 24.3393 58.1778 24.2073 57.7938 23.9433C57.4178 23.6793 57.1258 23.3113 56.9178 22.8393C56.7098 22.3593 56.6058 21.8113 56.6058 21.1953C56.6058 20.5713 56.7098 20.0233 56.9178 19.5513C57.1258 19.0793 57.4178 18.7113 57.7938 18.4473C58.1778 18.1833 58.6218 18.0513 59.1258 18.0513C59.6618 18.0513 60.1338 18.1833 60.5418 18.4473C60.9498 18.7113 61.2658 19.0793 61.4898 19.5513C61.7218 20.0233 61.8378 20.5713 61.8378 21.1953C61.8378 21.8113 61.7218 22.3593 61.4898 22.8393C61.2658 23.3113 60.9498 23.6793 60.5418 23.9433C60.1338 24.2073 59.6618 24.3393 59.1258 24.3393ZM58.9098 23.4633C59.2858 23.4633 59.6178 23.3673 59.9058 23.1753C60.2018 22.9833 60.4338 22.7153 60.6018 22.3713C60.7778 22.0273 60.8658 21.6353 60.8658 21.1953C60.8658 20.7553 60.7818 20.3633 60.6138 20.0193C60.4538 19.6753 60.2258 19.4073 59.9298 19.2153C59.6338 19.0233 59.2978 18.9273 58.9218 18.9273C58.5698 18.9273 58.2538 19.0233 57.9738 19.2153C57.7018 19.4073 57.4858 19.6753 57.3258 20.0193C57.1738 20.3633 57.0978 20.7553 57.0978 21.1953C57.0978 21.6353 57.1738 22.0273 57.3258 22.3713C57.4858 22.7153 57.7018 22.9833 57.9738 23.1753C58.2458 23.3673 58.5578 23.4633 58.9098 23.4633ZM65.5571 24.3393C64.9731 24.3393 64.4571 24.2073 64.0091 23.9433C63.5611 23.6713 63.2091 23.2993 62.9531 22.8273C62.7051 22.3553 62.5811 21.8113 62.5811 21.1953C62.5811 20.5793 62.7051 20.0353 62.9531 19.5633C63.2091 19.0913 63.5571 18.7233 63.9971 18.4593C64.4451 18.1873 64.9571 18.0513 65.5331 18.0513C66.0931 18.0513 66.5771 18.1913 66.9851 18.4713C67.3931 18.7433 67.7091 19.1273 67.9331 19.6233C68.1571 20.1193 68.2691 20.7033 68.2691 21.3753H63.3131L63.5531 21.1713C63.5531 21.6513 63.6371 22.0633 63.8051 22.4073C63.9811 22.7513 64.2251 23.0153 64.5371 23.1993C64.8491 23.3753 65.2051 23.4633 65.6051 23.4633C66.0291 23.4633 66.3851 23.3633 66.6731 23.1633C66.9691 22.9633 67.1971 22.6993 67.3571 22.3713L68.1851 22.7913C68.0331 23.1033 67.8291 23.3753 67.5731 23.6073C67.3251 23.8393 67.0291 24.0193 66.6851 24.1473C66.3491 24.2753 65.9731 24.3393 65.5571 24.3393ZM63.6131 20.7633L63.3611 20.5713H67.5011L67.2491 20.7753C67.2491 20.3913 67.1731 20.0593 67.0211 19.7793C66.8691 19.4993 66.6651 19.2833 66.4091 19.1313C66.1531 18.9793 65.8571 18.9033 65.5211 18.9033C65.1931 18.9033 64.8811 18.9793 64.5851 19.1313C64.2971 19.2833 64.0611 19.4993 63.8771 19.7793C63.7011 20.0513 63.6131 20.3793 63.6131 20.7633ZM69.7678 20.9433C69.7678 20.2953 69.8918 19.7713 70.1398 19.3713C70.3878 18.9633 70.7038 18.6633 71.0878 18.4713C71.4798 18.2713 71.8918 18.1713 72.3238 18.1713V19.0713C71.9718 19.0713 71.6318 19.1313 71.3038 19.2513C70.9838 19.3633 70.7198 19.5513 70.5118 19.8153C70.3038 20.0793 70.1998 20.4393 70.1998 20.8953L69.7678 20.9433ZM69.2398 24.1953V18.1953H70.1998V24.1953H69.2398ZM75.1545 24.3393C74.7145 24.3393 74.3305 24.2753 74.0025 24.1473C73.6745 24.0113 73.3985 23.8353 73.1745 23.6193C72.9585 23.4033 72.8025 23.1673 72.7065 22.9113L73.5465 22.5633C73.6825 22.8353 73.8865 23.0553 74.1585 23.2233C74.4305 23.3913 74.7305 23.4753 75.0585 23.4753C75.4345 23.4753 75.7505 23.4033 76.0065 23.2593C76.2625 23.1073 76.3905 22.8953 76.3905 22.6233C76.3905 22.3753 76.2945 22.1753 76.1025 22.0233C75.9185 21.8713 75.6425 21.7473 75.2745 21.6513L74.6985 21.4953C74.1545 21.3513 73.7305 21.1353 73.4265 20.8473C73.1225 20.5513 72.9705 20.2193 72.9705 19.8513C72.9705 19.2833 73.1545 18.8433 73.5225 18.5313C73.8985 18.2113 74.4545 18.0513 75.1905 18.0513C75.5425 18.0513 75.8625 18.1033 76.1505 18.2073C76.4385 18.3113 76.6865 18.4593 76.8945 18.6513C77.1025 18.8353 77.2545 19.0553 77.3505 19.3113L76.5105 19.6833C76.4065 19.4113 76.2345 19.2153 75.9945 19.0953C75.7545 18.9753 75.4625 18.9153 75.1185 18.9153C74.7505 18.9153 74.4625 18.9953 74.2545 19.1553C74.0465 19.3073 73.9425 19.5233 73.9425 19.8033C73.9425 19.9633 74.0265 20.1153 74.1945 20.2593C74.3705 20.3953 74.6265 20.5073 74.9625 20.5953L75.5625 20.7513C75.9545 20.8473 76.2825 20.9913 76.5465 21.1833C76.8105 21.3673 77.0105 21.5793 77.1465 21.8193C77.2825 22.0593 77.3505 22.3153 77.3505 22.5873C77.3505 22.9473 77.2545 23.2593 77.0625 23.5233C76.8705 23.7873 76.6105 23.9913 76.2825 24.1353C75.9545 24.2713 75.5785 24.3393 75.1545 24.3393ZM81.1292 24.1953V18.1953H82.0292L82.0892 19.2993V24.1953H81.1292ZM85.3412 24.1953V21.1233H86.3012V24.1953H85.3412ZM85.3412 21.1233C85.3412 20.5313 85.2732 20.0793 85.1372 19.7673C85.0012 19.4553 84.8132 19.2433 84.5732 19.1313C84.3332 19.0113 84.0612 18.9513 83.7572 18.9513C83.2292 18.9513 82.8172 19.1393 82.5212 19.5153C82.2332 19.8833 82.0892 20.4073 82.0892 21.0873H81.6212C81.6212 20.4553 81.7132 19.9113 81.8972 19.4553C82.0812 18.9993 82.3492 18.6513 82.7012 18.4113C83.0532 18.1713 83.4772 18.0513 83.9732 18.0513C84.4452 18.0513 84.8532 18.1473 85.1972 18.3393C85.5492 18.5233 85.8212 18.8193 86.0132 19.2273C86.2132 19.6353 86.3092 20.1713 86.3012 20.8353V21.1233H85.3412ZM90.2086 24.3393C89.6246 24.3393 89.1086 24.2073 88.6606 23.9433C88.2126 23.6713 87.8606 23.2993 87.6046 22.8273C87.3566 22.3553 87.2326 21.8113 87.2326 21.1953C87.2326 20.5793 87.3566 20.0353 87.6046 19.5633C87.8606 19.0913 88.2086 18.7233 88.6486 18.4593C89.0966 18.1873 89.6086 18.0513 90.1846 18.0513C90.7446 18.0513 91.2286 18.1913 91.6366 18.4713C92.0446 18.7433 92.3606 19.1273 92.5846 19.6233C92.8086 20.1193 92.9206 20.7033 92.9206 21.3753H87.9646L88.2046 21.1713C88.2046 21.6513 88.2886 22.0633 88.4566 22.4073C88.6326 22.7513 88.8766 23.0153 89.1886 23.1993C89.5006 23.3753 89.8566 23.4633 90.2566 23.4633C90.6806 23.4633 91.0366 23.3633 91.3246 23.1633C91.6206 22.9633 91.8486 22.6993 92.0086 22.3713L92.8366 22.7913C92.6846 23.1033 92.4806 23.3753 92.2246 23.6073C91.9766 23.8393 91.6806 24.0193 91.3366 24.1473C91.0006 24.2753 90.6246 24.3393 90.2086 24.3393ZM88.2646 20.7633L88.0126 20.5713H92.1526L91.9006 20.7753C91.9006 20.3913 91.8246 20.0593 91.6726 19.7793C91.5206 19.4993 91.3166 19.2833 91.0606 19.1313C90.8046 18.9793 90.5086 18.9033 90.1726 18.9033C89.8446 18.9033 89.5326 18.9793 89.2366 19.1313C88.9486 19.2833 88.7126 19.4993 88.5286 19.7793C88.3526 20.0513 88.2646 20.3793 88.2646 20.7633ZM97.5874 24.1953L97.5394 23.2113V21.0273C97.5394 20.5553 97.4874 20.1673 97.3834 19.8633C97.2794 19.5513 97.1154 19.3153 96.8914 19.1553C96.6674 18.9953 96.3754 18.9153 96.0154 18.9153C95.6874 18.9153 95.4034 18.9833 95.1634 19.1193C94.9314 19.2473 94.7394 19.4553 94.5874 19.7433L93.7234 19.4073C93.8754 19.1273 94.0594 18.8873 94.2754 18.6873C94.4914 18.4793 94.7434 18.3233 95.0314 18.2193C95.3194 18.1073 95.6474 18.0513 96.0154 18.0513C96.5754 18.0513 97.0354 18.1633 97.3954 18.3873C97.7634 18.6033 98.0394 18.9273 98.2234 19.3593C98.4074 19.7833 98.4954 20.3113 98.4874 20.9433L98.4754 24.1953H97.5874ZM95.7874 24.3393C95.0834 24.3393 94.5314 24.1793 94.1314 23.8593C93.7394 23.5313 93.5434 23.0793 93.5434 22.5033C93.5434 21.8953 93.7434 21.4313 94.1434 21.1113C94.5514 20.7833 95.1194 20.6193 95.8474 20.6193H97.5634V21.4233H96.0634C95.5034 21.4233 95.1034 21.5153 94.8634 21.6993C94.6314 21.8833 94.5154 22.1473 94.5154 22.4913C94.5154 22.8033 94.6314 23.0513 94.8634 23.2353C95.0954 23.4113 95.4194 23.4993 95.8354 23.4993C96.1794 23.4993 96.4794 23.4273 96.7354 23.2833C96.9914 23.1313 97.1874 22.9193 97.3234 22.6473C97.4674 22.3673 97.5394 22.0393 97.5394 21.6633H97.9474C97.9474 22.4793 97.7634 23.1313 97.3954 23.6193C97.0274 24.0993 96.4914 24.3393 95.7874 24.3393ZM100.297 20.9433C100.297 20.2953 100.421 19.7713 100.669 19.3713C100.917 18.9633 101.233 18.6633 101.617 18.4713C102.009 18.2713 102.421 18.1713 102.853 18.1713V19.0713C102.501 19.0713 102.161 19.1313 101.833 19.2513C101.513 19.3633 101.249 19.5513 101.041 19.8153C100.833 20.0793 100.729 20.4393 100.729 20.8953L100.297 20.9433ZM99.7686 24.1953V18.1953H100.729V24.1953H99.7686ZM106.308 24.1953V18.1953H107.208L107.256 19.0353C107.44 18.7153 107.676 18.4713 107.964 18.3033C108.252 18.1353 108.588 18.0513 108.972 18.0513C109.452 18.0513 109.86 18.1633 110.196 18.3873C110.54 18.6113 110.788 18.9513 110.94 19.4073C111.108 18.9673 111.352 18.6313 111.672 18.3993C112 18.1673 112.388 18.0513 112.836 18.0513C113.508 18.0513 114.036 18.2753 114.42 18.7233C114.812 19.1713 115.004 19.8513 114.996 20.7633V24.1953H114.036V21.1233C114.036 20.5313 113.972 20.0793 113.844 19.7673C113.724 19.4553 113.56 19.2433 113.352 19.1313C113.144 19.0113 112.904 18.9513 112.632 18.9513C112.16 18.9513 111.792 19.1393 111.528 19.5153C111.264 19.8833 111.132 20.4073 111.132 21.0873V24.1953H110.172V21.1233C110.172 20.5313 110.108 20.0793 109.98 19.7673C109.86 19.4553 109.692 19.2433 109.476 19.1313C109.268 19.0113 109.028 18.9513 108.756 18.9513C108.292 18.9513 107.928 19.1393 107.664 19.5153C107.4 19.8833 107.268 20.4073 107.268 21.0873V24.1953H106.308ZM118.903 24.3393C118.319 24.3393 117.803 24.2073 117.355 23.9433C116.907 23.6713 116.555 23.2993 116.299 22.8273C116.051 22.3553 115.927 21.8113 115.927 21.1953C115.927 20.5793 116.051 20.0353 116.299 19.5633C116.555 19.0913 116.903 18.7233 117.343 18.4593C117.791 18.1873 118.303 18.0513 118.879 18.0513C119.439 18.0513 119.923 18.1913 120.331 18.4713C120.739 18.7433 121.055 19.1273 121.279 19.6233C121.503 20.1193 121.615 20.7033 121.615 21.3753H116.659L116.899 21.1713C116.899 21.6513 116.983 22.0633 117.151 22.4073C117.327 22.7513 117.571 23.0153 117.883 23.1993C118.195 23.3753 118.551 23.4633 118.951 23.4633C119.375 23.4633 119.731 23.3633 120.019 23.1633C120.315 22.9633 120.543 22.6993 120.703 22.3713L121.531 22.7913C121.379 23.1033 121.175 23.3753 120.919 23.6073C120.671 23.8393 120.375 24.0193 120.031 24.1473C119.695 24.2753 119.319 24.3393 118.903 24.3393ZM116.959 20.7633L116.707 20.5713H120.847L120.595 20.7753C120.595 20.3913 120.519 20.0593 120.367 19.7793C120.215 19.4993 120.011 19.2833 119.755 19.1313C119.499 18.9793 119.203 18.9033 118.867 18.9033C118.539 18.9033 118.227 18.9793 117.931 19.1313C117.643 19.2833 117.407 19.4993 117.223 19.7793C117.047 20.0513 116.959 20.3793 116.959 20.7633Z" fill="black"/>
<path d="M22.8645 22.4296L25.1397 24.7048L24.3884 25.4562L22.1131 23.1809C21.295 23.8354 20.2575 24.2269 19.1291 24.2269C16.4897 24.2269 14.3477 22.0849 14.3477 19.4455C14.3477 16.8061 16.4897 14.6641 19.1291 14.6641C21.7685 14.6641 23.9105 16.8061 23.9105 19.4455C23.9105 20.5739 23.519 21.6114 22.8645 22.4296ZM21.7986 22.0353C22.4482 21.3658 22.848 20.4526 22.848 19.4455C22.848 17.3908 21.1838 15.7266 19.1291 15.7266C17.0744 15.7266 15.4102 17.3908 15.4102 19.4455C15.4102 21.5002 17.0744 23.1644 19.1291 23.1644C20.1362 23.1644 21.0494 22.7646 21.7189 22.115L21.7986 22.0353Z" fill="black"/>
<path d="M12.737 56.2461V47.8461H14.129V56.2461H12.737ZM7.121 56.2461V47.8461H8.513V56.2461H7.121ZM8.213 52.5741V51.3021H13.301V52.5741H8.213ZM15.533 56.2461V55.1781C15.533 54.9301 15.597 54.6741 15.725 54.4101C15.853 54.1381 16.033 53.8661 16.265 53.5941C16.505 53.3221 16.785 53.0661 17.105 52.8261L18.569 51.7701C18.753 51.6421 18.921 51.4941 19.073 51.3261C19.233 51.1581 19.361 50.9821 19.457 50.7981C19.553 50.6061 19.601 50.4181 19.601 50.2341C19.601 50.0021 19.541 49.7901 19.421 49.5981C19.309 49.4061 19.145 49.2541 18.929 49.1421C18.721 49.0301 18.465 48.9741 18.161 48.9741C17.889 48.9741 17.645 49.0301 17.429 49.1421C17.221 49.2461 17.049 49.3861 16.913 49.5621C16.777 49.7381 16.681 49.9301 16.625 50.1381L15.197 49.8741C15.277 49.4901 15.445 49.1341 15.701 48.8061C15.965 48.4701 16.301 48.2021 16.709 48.0021C17.125 47.8021 17.597 47.7021 18.125 47.7021C18.717 47.7021 19.229 47.8101 19.661 48.0261C20.101 48.2421 20.437 48.5421 20.669 48.9261C20.909 49.3021 21.029 49.7341 21.029 50.2221C21.029 50.7181 20.893 51.1661 20.621 51.5661C20.357 51.9581 19.985 52.3341 19.505 52.6941L18.161 53.6901C17.897 53.8821 17.681 54.0901 17.513 54.3141C17.345 54.5301 17.229 54.7621 17.165 55.0101H21.137V56.2461H15.533ZM25.3645 56.3901C24.7085 56.3901 24.1245 56.2061 23.6125 55.8381C23.1005 55.4621 22.6965 54.9501 22.4005 54.3021C22.1125 53.6461 21.9685 52.8941 21.9685 52.0461C21.9685 51.1981 22.1125 50.4501 22.4005 49.8021C22.6965 49.1461 23.0965 48.6341 23.6005 48.2661C24.1125 47.8901 24.7005 47.7021 25.3645 47.7021C26.0285 47.7021 26.6165 47.8901 27.1285 48.2661C27.6405 48.6341 28.0405 49.1461 28.3285 49.8021C28.6245 50.4501 28.7725 51.1981 28.7725 52.0461C28.7725 52.8941 28.6245 53.6461 28.3285 54.3021C28.0405 54.9501 27.6405 55.4621 27.1285 55.8381C26.6245 56.2061 26.0365 56.3901 25.3645 56.3901ZM25.3765 55.1301C25.7685 55.1301 26.1165 54.9981 26.4205 54.7341C26.7325 54.4701 26.9725 54.1061 27.1405 53.6421C27.3165 53.1781 27.4045 52.6461 27.4045 52.0461C27.4045 51.4461 27.3165 50.9141 27.1405 50.4501C26.9725 49.9781 26.7325 49.6101 26.4205 49.3461C26.1165 49.0821 25.7645 48.9501 25.3645 48.9501C24.9645 48.9501 24.6125 49.0821 24.3085 49.3461C24.0045 49.6101 23.7645 49.9741 23.5885 50.4381C23.4205 50.9021 23.3365 51.4381 23.3365 52.0461C23.3365 52.6461 23.4205 53.1781 23.5885 53.6421C23.7645 54.1061 24.0045 54.4701 24.3085 54.7341C24.6205 54.9981 24.9765 55.1301 25.3765 55.1301ZM38.2614 56.2461V47.8461H39.6534V56.2461H38.2614ZM32.6454 56.2461V47.8461H34.0374V56.2461H32.6454ZM33.7374 52.5741V51.3021H38.8254V52.5741H33.7374ZM43.8294 56.3901C43.2454 56.3901 42.7254 56.2581 42.2694 55.9941C41.8214 55.7221 41.4654 55.3501 41.2014 54.8781C40.9454 54.4061 40.8174 53.8621 40.8174 53.2461C40.8174 52.6301 40.9494 52.0861 41.2134 51.6141C41.4774 51.1421 41.8374 50.7741 42.2934 50.5101C42.7574 50.2381 43.2854 50.1021 43.8774 50.1021C44.4134 50.1021 44.8974 50.2421 45.3294 50.5221C45.7614 50.7941 46.1014 51.1901 46.3494 51.7101C46.6054 52.2301 46.7334 52.8501 46.7334 53.5701H42.0174L42.1974 53.4021C42.1974 53.7701 42.2774 54.0901 42.4374 54.3621C42.5974 54.6261 42.8094 54.8301 43.0734 54.9741C43.3374 55.1181 43.6294 55.1901 43.9494 55.1901C44.3174 55.1901 44.6214 55.1101 44.8614 54.9501C45.1014 54.7821 45.2894 54.5661 45.4254 54.3021L46.6134 54.8061C46.4454 55.1261 46.2294 55.4061 45.9654 55.6461C45.7094 55.8861 45.4014 56.0701 45.0414 56.1981C44.6894 56.3261 44.2854 56.3901 43.8294 56.3901ZM42.2814 52.7061L42.0894 52.5381H45.4734L45.2934 52.7061C45.2934 52.3781 45.2214 52.1101 45.0774 51.9021C44.9334 51.6861 44.7494 51.5261 44.5254 51.4221C44.3094 51.3101 44.0814 51.2541 43.8414 51.2541C43.6014 51.2541 43.3614 51.3101 43.1214 51.4221C42.8814 51.5261 42.6814 51.6861 42.5214 51.9021C42.3614 52.1101 42.2814 52.3781 42.2814 52.7061ZM48.4108 53.0541C48.4108 52.4061 48.5348 51.8741 48.7828 51.4581C49.0308 51.0421 49.3508 50.7341 49.7428 50.5341C50.1428 50.3261 50.5588 50.2221 50.9908 50.2221V51.5061C50.6228 51.5061 50.2748 51.5581 49.9468 51.6621C49.6268 51.7581 49.3668 51.9181 49.1668 52.1421C48.9668 52.3661 48.8668 52.6621 48.8668 53.0301L48.4108 53.0541ZM47.5228 56.2461V50.2461H48.8668V56.2461H47.5228ZM54.4021 56.3901C53.8021 56.3901 53.2661 56.2581 52.7941 55.9941C52.3301 55.7221 51.9661 55.3501 51.7021 54.8781C51.4381 54.4061 51.3061 53.8621 51.3061 53.2461C51.3061 52.6301 51.4341 52.0861 51.6901 51.6141C51.9541 51.1421 52.3181 50.7741 52.7821 50.5101C53.2461 50.2381 53.7781 50.1021 54.3781 50.1021C54.9781 50.1021 55.5101 50.2381 55.9741 50.5101C56.4381 50.7741 56.7981 51.1421 57.0541 51.6141C57.3181 52.0861 57.4501 52.6301 57.4501 53.2461C57.4501 53.8621 57.3221 54.4061 57.0661 54.8781C56.8101 55.3501 56.4501 55.7221 55.9861 55.9941C55.5221 56.2581 54.9941 56.3901 54.4021 56.3901ZM54.4021 55.1541C54.7301 55.1541 55.0221 55.0741 55.2781 54.9141C55.5341 54.7461 55.7341 54.5221 55.8781 54.2421C56.0221 53.9541 56.0941 53.6221 56.0941 53.2461C56.0941 52.8701 56.0181 52.5421 55.8661 52.2621C55.7221 51.9741 55.5221 51.7501 55.2661 51.5901C55.0101 51.4221 54.7141 51.3381 54.3781 51.3381C54.0421 51.3381 53.7461 51.4181 53.4901 51.5781C53.2341 51.7381 53.0341 51.9621 52.8901 52.2501C52.7461 52.5381 52.6741 52.8701 52.6741 53.2461C52.6741 53.6221 52.7461 53.9541 52.8901 54.2421C53.0421 54.5221 53.2461 54.7461 53.5021 54.9141C53.7661 55.0741 54.0661 55.1541 54.4021 55.1541ZM61.0508 56.3901C60.4668 56.3901 59.9468 56.2581 59.4908 55.9941C59.0428 55.7221 58.6868 55.3501 58.4228 54.8781C58.1668 54.4061 58.0388 53.8621 58.0388 53.2461C58.0388 52.6301 58.1708 52.0861 58.4348 51.6141C58.6988 51.1421 59.0588 50.7741 59.5148 50.5101C59.9788 50.2381 60.5068 50.1021 61.0988 50.1021C61.6348 50.1021 62.1188 50.2421 62.5508 50.5221C62.9828 50.7941 63.3228 51.1901 63.5708 51.7101C63.8268 52.2301 63.9548 52.8501 63.9548 53.5701H59.2388L59.4188 53.4021C59.4188 53.7701 59.4988 54.0901 59.6588 54.3621C59.8188 54.6261 60.0308 54.8301 60.2948 54.9741C60.5588 55.1181 60.8508 55.1901 61.1708 55.1901C61.5388 55.1901 61.8428 55.1101 62.0828 54.9501C62.3228 54.7821 62.5108 54.5661 62.6468 54.3021L63.8348 54.8061C63.6668 55.1261 63.4508 55.4061 63.1868 55.6461C62.9308 55.8861 62.6228 56.0701 62.2628 56.1981C61.9108 56.3261 61.5068 56.3901 61.0508 56.3901ZM59.5028 52.7061L59.3108 52.5381H62.6948L62.5148 52.7061C62.5148 52.3781 62.4428 52.1101 62.2988 51.9021C62.1548 51.6861 61.9708 51.5261 61.7468 51.4221C61.5308 51.3101 61.3028 51.2541 61.0628 51.2541C60.8228 51.2541 60.5828 51.3101 60.3428 51.4221C60.1028 51.5261 59.9028 51.6861 59.7428 51.9021C59.5828 52.1101 59.5028 52.3781 59.5028 52.7061ZM66.9282 56.3901C66.5282 56.3901 66.1602 56.3301 65.8242 56.2101C65.4882 56.0901 65.2002 55.9221 64.9602 55.7061C64.7202 55.4821 64.5362 55.2221 64.4082 54.9261L65.5722 54.4101C65.6922 54.6341 65.8682 54.8221 66.1002 54.9741C66.3402 55.1261 66.6042 55.2021 66.8922 55.2021C67.2042 55.2021 67.4522 55.1501 67.6362 55.0461C67.8282 54.9341 67.9242 54.7821 67.9242 54.5901C67.9242 54.4061 67.8522 54.2661 67.7082 54.1701C67.5642 54.0661 67.3602 53.9821 67.0962 53.9181L66.5322 53.7621C65.9642 53.6181 65.5202 53.3901 65.2002 53.0781C64.8802 52.7581 64.7202 52.3941 64.7202 51.9861C64.7202 51.3861 64.9122 50.9221 65.2962 50.5941C65.6882 50.2661 66.2482 50.1021 66.9762 50.1021C67.3442 50.1021 67.6802 50.1581 67.9842 50.2701C68.2962 50.3741 68.5642 50.5261 68.7882 50.7261C69.0122 50.9181 69.1682 51.1461 69.2562 51.4101L68.1402 51.9141C68.0602 51.7141 67.9082 51.5621 67.6842 51.4581C67.4602 51.3461 67.2122 51.2901 66.9402 51.2901C66.6682 51.2901 66.4562 51.3501 66.3042 51.4701C66.1522 51.5821 66.0762 51.7421 66.0762 51.9501C66.0762 52.0701 66.1442 52.1821 66.2802 52.2861C66.4162 52.3821 66.6122 52.4621 66.8682 52.5261L67.5762 52.6941C67.9682 52.7901 68.2882 52.9421 68.5362 53.1501C68.7842 53.3501 68.9682 53.5781 69.0882 53.8341C69.2082 54.0821 69.2682 54.3341 69.2682 54.5901C69.2682 54.9501 69.1642 55.2661 68.9562 55.5381C68.7562 55.8101 68.4802 56.0221 68.1282 56.1741C67.7762 56.3181 67.3762 56.3901 66.9282 56.3901ZM74.6085 57.4461C74.2405 56.9581 73.9045 56.4301 73.6005 55.8621C73.2965 55.2861 73.0565 54.6781 72.8805 54.0381C72.7045 53.3981 72.6165 52.7341 72.6165 52.0461C72.6165 51.3501 72.7045 50.6861 72.8805 50.0541C73.0565 49.4141 73.2965 48.8101 73.6005 48.2421C73.9045 47.6661 74.2405 47.1341 74.6085 46.6461H75.9525C75.5845 47.1581 75.2485 47.7061 74.9445 48.2901C74.6405 48.8741 74.4005 49.4821 74.2245 50.1141C74.0485 50.7381 73.9605 51.3821 73.9605 52.0461C73.9605 52.7021 74.0485 53.3461 74.2245 53.9781C74.4005 54.6101 74.6405 55.2181 74.9445 55.8021C75.2485 56.3781 75.5845 56.9261 75.9525 57.4461H74.6085ZM77.2019 56.2461V47.8461H80.1659C80.7419 47.8461 81.2499 47.9621 81.6899 48.1941C82.1299 48.4261 82.4739 48.7501 82.7219 49.1661C82.9699 49.5741 83.0939 50.0501 83.0939 50.5941C83.0939 51.1221 82.9779 51.5941 82.7459 52.0101C82.5139 52.4261 82.1899 52.7541 81.7739 52.9941C81.3659 53.2261 80.8899 53.3421 80.3459 53.3421H78.5939V56.2461H77.2019ZM78.5939 52.0581H80.3219C80.7219 52.0581 81.0499 51.9221 81.3059 51.6501C81.5619 51.3781 81.6899 51.0261 81.6899 50.5941C81.6899 50.1541 81.5459 49.7981 81.2579 49.5261C80.9699 49.2541 80.5979 49.1181 80.1419 49.1181H78.5939V52.0581ZM84.6878 53.0541C84.6878 52.4061 84.8118 51.8741 85.0598 51.4581C85.3078 51.0421 85.6278 50.7341 86.0198 50.5341C86.4198 50.3261 86.8358 50.2221 87.2678 50.2221V51.5061C86.8998 51.5061 86.5518 51.5581 86.2238 51.6621C85.9038 51.7581 85.6438 51.9181 85.4438 52.1421C85.2438 52.3661 85.1438 52.6621 85.1438 53.0301L84.6878 53.0541ZM83.7998 56.2461V50.2461H85.1438V56.2461H83.7998ZM90.6792 56.3901C90.0792 56.3901 89.5432 56.2581 89.0712 55.9941C88.6072 55.7221 88.2432 55.3501 87.9792 54.8781C87.7152 54.4061 87.5832 53.8621 87.5832 53.2461C87.5832 52.6301 87.7112 52.0861 87.9672 51.6141C88.2312 51.1421 88.5952 50.7741 89.0592 50.5101C89.5232 50.2381 90.0552 50.1021 90.6552 50.1021C91.2552 50.1021 91.7872 50.2381 92.2512 50.5101C92.7152 50.7741 93.0752 51.1421 93.3312 51.6141C93.5952 52.0861 93.7272 52.6301 93.7272 53.2461C93.7272 53.8621 93.5992 54.4061 93.3432 54.8781C93.0872 55.3501 92.7272 55.7221 92.2632 55.9941C91.7992 56.2581 91.2712 56.3901 90.6792 56.3901ZM90.6792 55.1541C91.0072 55.1541 91.2992 55.0741 91.5552 54.9141C91.8112 54.7461 92.0112 54.5221 92.1552 54.2421C92.2992 53.9541 92.3712 53.6221 92.3712 53.2461C92.3712 52.8701 92.2952 52.5421 92.1432 52.2621C91.9992 51.9741 91.7992 51.7501 91.5432 51.5901C91.2872 51.4221 90.9912 51.3381 90.6552 51.3381C90.3192 51.3381 90.0232 51.4181 89.7672 51.5781C89.5112 51.7381 89.3112 51.9621 89.1672 52.2501C89.0232 52.5381 88.9512 52.8701 88.9512 53.2461C88.9512 53.6221 89.0232 53.9541 89.1672 54.2421C89.3192 54.5221 89.5232 54.7461 89.7792 54.9141C90.0432 55.0741 90.3432 55.1541 90.6792 55.1541ZM95.2518 56.2461V49.6101C95.2518 48.9781 95.4078 48.4941 95.7198 48.1581C96.0398 47.8141 96.5198 47.6421 97.1598 47.6421C97.3678 47.6421 97.5878 47.6781 97.8198 47.7501C98.0598 47.8141 98.2878 47.9021 98.5038 48.0141L98.0118 49.0101C97.8598 48.9381 97.7238 48.8861 97.6038 48.8541C97.4918 48.8221 97.3918 48.8061 97.3038 48.8061C97.0638 48.8061 96.8838 48.8861 96.7638 49.0461C96.6518 49.1981 96.5958 49.4501 96.5958 49.8021V56.2461H95.2518ZM94.2198 51.3501V50.2461H98.1678V51.3501H94.2198ZM101.588 56.3901C101.004 56.3901 100.484 56.2581 100.028 55.9941C99.5798 55.7221 99.2238 55.3501 98.9598 54.8781C98.7038 54.4061 98.5758 53.8621 98.5758 53.2461C98.5758 52.6301 98.7078 52.0861 98.9718 51.6141C99.2358 51.1421 99.5958 50.7741 100.052 50.5101C100.516 50.2381 101.044 50.1021 101.636 50.1021C102.172 50.1021 102.656 50.2421 103.088 50.5221C103.52 50.7941 103.86 51.1901 104.108 51.7101C104.364 52.2301 104.492 52.8501 104.492 53.5701H99.7758L99.9558 53.4021C99.9558 53.7701 100.036 54.0901 100.196 54.3621C100.356 54.6261 100.568 54.8301 100.832 54.9741C101.096 55.1181 101.388 55.1901 101.708 55.1901C102.076 55.1901 102.38 55.1101 102.62 54.9501C102.86 54.7821 103.048 54.5661 103.184 54.3021L104.372 54.8061C104.204 55.1261 103.988 55.4061 103.724 55.6461C103.468 55.8861 103.16 56.0701 102.8 56.1981C102.448 56.3261 102.044 56.3901 101.588 56.3901ZM100.04 52.7061L99.8478 52.5381H103.232L103.052 52.7061C103.052 52.3781 102.98 52.1101 102.836 51.9021C102.692 51.6861 102.508 51.5261 102.284 51.4221C102.068 51.3101 101.84 51.2541 101.6 51.2541C101.36 51.2541 101.12 51.3101 100.88 51.4221C100.64 51.5261 100.44 51.6861 100.28 51.9021C100.12 52.1101 100.04 52.3781 100.04 52.7061ZM107.465 56.3901C107.065 56.3901 106.697 56.3301 106.361 56.2101C106.025 56.0901 105.737 55.9221 105.497 55.7061C105.257 55.4821 105.073 55.2221 104.945 54.9261L106.109 54.4101C106.229 54.6341 106.405 54.8221 106.637 54.9741C106.877 55.1261 107.141 55.2021 107.429 55.2021C107.741 55.2021 107.989 55.1501 108.173 55.0461C108.365 54.9341 108.461 54.7821 108.461 54.5901C108.461 54.4061 108.389 54.2661 108.245 54.1701C108.101 54.0661 107.897 53.9821 107.633 53.9181L107.069 53.7621C106.501 53.6181 106.057 53.3901 105.737 53.0781C105.417 52.7581 105.257 52.3941 105.257 51.9861C105.257 51.3861 105.449 50.9221 105.833 50.5941C106.225 50.2661 106.785 50.1021 107.513 50.1021C107.881 50.1021 108.217 50.1581 108.521 50.2701C108.833 50.3741 109.101 50.5261 109.325 50.7261C109.549 50.9181 109.705 51.1461 109.793 51.4101L108.677 51.9141C108.597 51.7141 108.445 51.5621 108.221 51.4581C107.997 51.3461 107.749 51.2901 107.477 51.2901C107.205 51.2901 106.993 51.3501 106.841 51.4701C106.689 51.5821 106.613 51.7421 106.613 51.9501C106.613 52.0701 106.681 52.1821 106.817 52.2861C106.953 52.3821 107.149 52.4621 107.405 52.5261L108.113 52.6941C108.505 52.7901 108.825 52.9421 109.073 53.1501C109.321 53.3501 109.505 53.5781 109.625 53.8341C109.745 54.0821 109.805 54.3341 109.805 54.5901C109.805 54.9501 109.701 55.2661 109.493 55.5381C109.293 55.8101 109.017 56.0221 108.665 56.1741C108.313 56.3181 107.913 56.3901 107.465 56.3901ZM112.803 56.3901C112.403 56.3901 112.035 56.3301 111.699 56.2101C111.363 56.0901 111.075 55.9221 110.835 55.7061C110.595 55.4821 110.411 55.2221 110.283 54.9261L111.447 54.4101C111.567 54.6341 111.743 54.8221 111.975 54.9741C112.215 55.1261 112.479 55.2021 112.767 55.2021C113.079 55.2021 113.327 55.1501 113.511 55.0461C113.703 54.9341 113.799 54.7821 113.799 54.5901C113.799 54.4061 113.727 54.2661 113.583 54.1701C113.439 54.0661 113.235 53.9821 112.971 53.9181L112.407 53.7621C111.839 53.6181 111.395 53.3901 111.075 53.0781C110.755 52.7581 110.595 52.3941 110.595 51.9861C110.595 51.3861 110.787 50.9221 111.171 50.5941C111.563 50.2661 112.123 50.1021 112.851 50.1021C113.219 50.1021 113.555 50.1581 113.859 50.2701C114.171 50.3741 114.439 50.5261 114.663 50.7261C114.887 50.9181 115.043 51.1461 115.131 51.4101L114.015 51.9141C113.935 51.7141 113.783 51.5621 113.559 51.4581C113.335 51.3461 113.087 51.2901 112.815 51.2901C112.543 51.2901 112.331 51.3501 112.179 51.4701C112.027 51.5821 111.951 51.7421 111.951 51.9501C111.951 52.0701 112.019 52.1821 112.155 52.2861C112.291 52.3821 112.487 52.4621 112.743 52.5261L113.451 52.6941C113.843 52.7901 114.163 52.9421 114.411 53.1501C114.659 53.3501 114.843 53.5781 114.963 53.8341C115.083 54.0821 115.143 54.3341 115.143 54.5901C115.143 54.9501 115.039 55.2661 114.831 55.5381C114.631 55.8101 114.355 56.0221 114.003 56.1741C113.651 56.3181 113.251 56.3901 112.803 56.3901ZM116.053 56.2461V50.2461H117.385V56.2461H116.053ZM116.725 49.1061C116.509 49.1061 116.321 49.0301 116.161 48.8781C116.009 48.7181 115.933 48.5301 115.933 48.3141C115.933 48.0981 116.009 47.9141 116.161 47.7621C116.321 47.6101 116.509 47.5341 116.725 47.5341C116.941 47.5341 117.125 47.6101 117.277 47.7621C117.437 47.9141 117.517 48.0981 117.517 48.3141C117.517 48.5301 117.437 48.7181 117.277 48.8781C117.125 49.0301 116.941 49.1061 116.725 49.1061ZM121.489 56.3901C120.889 56.3901 120.353 56.2581 119.881 55.9941C119.417 55.7221 119.053 55.3501 118.789 54.8781C118.525 54.4061 118.393 53.8621 118.393 53.2461C118.393 52.6301 118.521 52.0861 118.777 51.6141C119.041 51.1421 119.405 50.7741 119.869 50.5101C120.333 50.2381 120.865 50.1021 121.465 50.1021C122.065 50.1021 122.597 50.2381 123.061 50.5101C123.525 50.7741 123.885 51.1421 124.141 51.6141C124.405 52.0861 124.537 52.6301 124.537 53.2461C124.537 53.8621 124.409 54.4061 124.153 54.8781C123.897 55.3501 123.537 55.7221 123.073 55.9941C122.609 56.2581 122.081 56.3901 121.489 56.3901ZM121.489 55.1541C121.817 55.1541 122.109 55.0741 122.365 54.9141C122.621 54.7461 122.821 54.5221 122.965 54.2421C123.109 53.9541 123.181 53.6221 123.181 53.2461C123.181 52.8701 123.105 52.5421 122.953 52.2621C122.809 51.9741 122.609 51.7501 122.353 51.5901C122.097 51.4221 121.801 51.3381 121.465 51.3381C121.129 51.3381 120.833 51.4181 120.577 51.5781C120.321 51.7381 120.121 51.9621 119.977 52.2501C119.833 52.5381 119.761 52.8701 119.761 53.2461C119.761 53.6221 119.833 53.9541 119.977 54.2421C120.129 54.5221 120.333 54.7461 120.589 54.9141C120.853 55.0741 121.153 55.1541 121.489 55.1541ZM125.462 56.2461V50.2461H126.722L126.806 51.3501V56.2461H125.462ZM129.53 56.2461V53.1741H130.874V56.2461H129.53ZM129.53 53.1741C129.53 52.6941 129.474 52.3261 129.362 52.0701C129.258 51.8061 129.106 51.6221 128.906 51.5181C128.714 51.4141 128.486 51.3621 128.222 51.3621C127.774 51.3541 127.426 51.5021 127.178 51.8061C126.93 52.1101 126.806 52.5461 126.806 53.1141H126.302C126.302 52.4821 126.394 51.9421 126.578 51.4941C126.762 51.0381 127.026 50.6941 127.37 50.4621C127.714 50.2221 128.122 50.1021 128.594 50.1021C129.074 50.1021 129.482 50.1981 129.818 50.3901C130.162 50.5821 130.422 50.8821 130.598 51.2901C130.782 51.6901 130.874 52.2141 130.874 52.8621V53.1741H129.53ZM135.655 56.2461L135.595 55.1181V53.1621C135.595 52.7541 135.551 52.4141 135.463 52.1421C135.383 51.8621 135.247 51.6501 135.055 51.5061C134.871 51.3541 134.623 51.2781 134.311 51.2781C134.023 51.2781 133.771 51.3381 133.555 51.4581C133.339 51.5781 133.155 51.7661 133.003 52.0221L131.827 51.5901C131.955 51.3261 132.123 51.0821 132.331 50.8581C132.547 50.6261 132.815 50.4421 133.135 50.3061C133.463 50.1701 133.855 50.1021 134.311 50.1021C134.895 50.1021 135.383 50.2181 135.775 50.4501C136.167 50.6741 136.455 50.9981 136.639 51.4221C136.831 51.8461 136.927 52.3581 136.927 52.9581L136.891 56.2461H135.655ZM133.927 56.3901C133.207 56.3901 132.647 56.2301 132.247 55.9101C131.855 55.5901 131.659 55.1381 131.659 54.5541C131.659 53.9301 131.867 53.4541 132.283 53.1261C132.707 52.7981 133.295 52.6341 134.047 52.6341H135.655V53.6661H134.479C133.943 53.6661 133.567 53.7421 133.351 53.8941C133.135 54.0381 133.027 54.2461 133.027 54.5181C133.027 54.7501 133.119 54.9341 133.303 55.0701C133.495 55.1981 133.759 55.2621 134.095 55.2621C134.399 55.2621 134.663 55.1941 134.887 55.0581C135.111 54.9221 135.283 54.7421 135.403 54.5181C135.531 54.2941 135.595 54.0421 135.595 53.7621H135.991C135.991 54.5781 135.827 55.2221 135.499 55.6941C135.171 56.1581 134.647 56.3901 133.927 56.3901ZM138.048 56.2461V47.8461H139.392V56.2461H138.048ZM9.881 69.3901C9.441 69.3901 9.037 69.3381 8.669 69.2341C8.309 69.1301 7.989 68.9861 7.709 68.8021C7.437 68.6181 7.209 68.4141 7.025 68.1901C6.849 67.9581 6.725 67.7181 6.653 67.4701L8.021 67.0501C8.125 67.3461 8.329 67.6061 8.633 67.8301C8.937 68.0541 9.313 68.1701 9.761 68.1781C10.281 68.1781 10.693 68.0701 10.997 67.8541C11.301 67.6381 11.453 67.3541 11.453 67.0021C11.453 66.6821 11.325 66.4221 11.069 66.2221C10.813 66.0141 10.469 65.8541 10.037 65.7421L9.005 65.4781C8.613 65.3741 8.257 65.2221 7.937 65.0221C7.625 64.8221 7.377 64.5701 7.193 64.2661C7.017 63.9621 6.929 63.6021 6.929 63.1861C6.929 62.4021 7.185 61.7941 7.697 61.3621C8.209 60.9221 8.941 60.7021 9.893 60.7021C10.429 60.7021 10.897 60.7861 11.297 60.9541C11.705 61.1141 12.041 61.3381 12.305 61.6261C12.569 61.9061 12.765 62.2261 12.893 62.5861L11.549 63.0181C11.429 62.6981 11.221 62.4341 10.925 62.2261C10.629 62.0181 10.261 61.9141 9.821 61.9141C9.365 61.9141 9.005 62.0221 8.741 62.2381C8.485 62.4541 8.357 62.7541 8.357 63.1381C8.357 63.4501 8.457 63.6941 8.657 63.8701C8.865 64.0381 9.145 64.1661 9.497 64.2541L10.529 64.5061C11.281 64.6901 11.865 65.0061 12.281 65.4541C12.697 65.9021 12.905 66.3981 12.905 66.9421C12.905 67.4221 12.789 67.8461 12.557 68.2141C12.325 68.5821 11.981 68.8701 11.525 69.0781C11.077 69.2861 10.529 69.3901 9.881 69.3901ZM16.6292 69.3901C16.0452 69.3901 15.5252 69.2581 15.0692 68.9941C14.6212 68.7221 14.2652 68.3501 14.0012 67.8781C13.7452 67.4061 13.6172 66.8621 13.6172 66.2461C13.6172 65.6301 13.7492 65.0861 14.0132 64.6141C14.2772 64.1421 14.6372 63.7741 15.0932 63.5101C15.5572 63.2381 16.0852 63.1021 16.6772 63.1021C17.2132 63.1021 17.6972 63.2421 18.1292 63.5221C18.5612 63.7941 18.9012 64.1901 19.1492 64.7101C19.4052 65.2301 19.5332 65.8501 19.5332 66.5701H14.8172L14.9972 66.4021C14.9972 66.7701 15.0772 67.0901 15.2372 67.3621C15.3972 67.6261 15.6092 67.8301 15.8732 67.9741C16.1372 68.1181 16.4292 68.1901 16.7492 68.1901C17.1172 68.1901 17.4212 68.1101 17.6612 67.9501C17.9012 67.7821 18.0892 67.5661 18.2252 67.3021L19.4132 67.8061C19.2452 68.1261 19.0292 68.4061 18.7652 68.6461C18.5092 68.8861 18.2012 69.0701 17.8412 69.1981C17.4892 69.3261 17.0852 69.3901 16.6292 69.3901ZM15.0812 65.7061L14.8892 65.5381H18.2732L18.0932 65.7061C18.0932 65.3781 18.0212 65.1101 17.8772 64.9021C17.7332 64.6861 17.5492 64.5261 17.3252 64.4221C17.1092 64.3101 16.8812 64.2541 16.6412 64.2541C16.4012 64.2541 16.1612 64.3101 15.9212 64.4221C15.6812 64.5261 15.4812 64.6861 15.3212 64.9021C15.1612 65.1101 15.0812 65.3781 15.0812 65.7061ZM21.2106 66.0541C21.2106 65.4061 21.3346 64.8741 21.5826 64.4581C21.8306 64.0421 22.1506 63.7341 22.5426 63.5341C22.9426 63.3261 23.3586 63.2221 23.7906 63.2221V64.5061C23.4226 64.5061 23.0746 64.5581 22.7466 64.6621C22.4266 64.7581 22.1666 64.9181 21.9666 65.1421C21.7666 65.3661 21.6666 65.6621 21.6666 66.0301L21.2106 66.0541ZM20.3226 69.2461V63.2461H21.6666V69.2461H20.3226ZM26.374 69.2461L28.714 63.2461H30.106L27.634 69.2461H26.374ZM26.278 69.2461L23.794 63.2461H25.174L27.526 69.2461H26.278ZM30.7899 69.2461V63.2461H32.1219V69.2461H30.7899ZM31.4619 62.1061C31.2459 62.1061 31.0579 62.0301 30.8979 61.8781C30.7459 61.7181 30.6699 61.5301 30.6699 61.3141C30.6699 61.0981 30.7459 60.9141 30.8979 60.7621C31.0579 60.6101 31.2459 60.5341 31.4619 60.5341C31.6779 60.5341 31.8619 60.6101 32.0139 60.7621C32.1739 60.9141 32.2539 61.0981 32.2539 61.3141C32.2539 61.5301 32.1739 61.7181 32.0139 61.8781C31.8619 62.0301 31.6779 62.1061 31.4619 62.1061ZM36.2739 69.3901C35.6579 69.3901 35.1139 69.2581 34.6419 68.9941C34.1699 68.7221 33.7979 68.3501 33.5259 67.8781C33.2619 67.4061 33.1299 66.8621 33.1299 66.2461C33.1299 65.6301 33.2619 65.0861 33.5259 64.6141C33.7979 64.1421 34.1659 63.7741 34.6299 63.5101C35.1019 63.2381 35.6419 63.1021 36.2499 63.1021C36.8419 63.1021 37.3779 63.2461 37.8579 63.5341C38.3379 63.8141 38.6939 64.2181 38.9259 64.7461L37.6779 65.2261C37.5499 64.9621 37.3539 64.7501 37.0899 64.5901C36.8259 64.4301 36.5259 64.3501 36.1899 64.3501C35.8619 64.3501 35.5699 64.4341 35.3139 64.6021C35.0579 64.7621 34.8579 64.9861 34.7139 65.2741C34.5699 65.5541 34.4979 65.8781 34.4979 66.2461C34.4979 66.6141 34.5699 66.9421 34.7139 67.2301C34.8659 67.5101 35.0699 67.7341 35.3259 67.9021C35.5899 68.0621 35.8859 68.1421 36.2139 68.1421C36.5499 68.1421 36.8499 68.0581 37.1139 67.8901C37.3779 67.7141 37.5739 67.4781 37.7019 67.1821L38.9499 67.6621C38.7179 68.2061 38.3619 68.6301 37.8819 68.9341C37.4099 69.2381 36.8739 69.3901 36.2739 69.3901ZM42.4292 69.3901C41.8452 69.3901 41.3252 69.2581 40.8692 68.9941C40.4212 68.7221 40.0652 68.3501 39.8012 67.8781C39.5452 67.4061 39.4172 66.8621 39.4172 66.2461C39.4172 65.6301 39.5492 65.0861 39.8132 64.6141C40.0772 64.1421 40.4372 63.7741 40.8932 63.5101C41.3572 63.2381 41.8852 63.1021 42.4772 63.1021C43.0132 63.1021 43.4972 63.2421 43.9292 63.5221C44.3612 63.7941 44.7012 64.1901 44.9492 64.7101C45.2052 65.2301 45.3332 65.8501 45.3332 66.5701H40.6172L40.7972 66.4021C40.7972 66.7701 40.8772 67.0901 41.0372 67.3621C41.1972 67.6261 41.4092 67.8301 41.6732 67.9741C41.9372 68.1181 42.2292 68.1901 42.5492 68.1901C42.9172 68.1901 43.2212 68.1101 43.4612 67.9501C43.7012 67.7821 43.8892 67.5661 44.0252 67.3021L45.2132 67.8061C45.0452 68.1261 44.8292 68.4061 44.5652 68.6461C44.3092 68.8861 44.0012 69.0701 43.6412 69.1981C43.2892 69.3261 42.8852 69.3901 42.4292 69.3901ZM40.8812 65.7061L40.6892 65.5381H44.0732L43.8932 65.7061C43.8932 65.3781 43.8212 65.1101 43.6772 64.9021C43.5332 64.6861 43.3492 64.5261 43.1252 64.4221C42.9092 64.3101 42.6812 64.2541 42.4412 64.2541C42.2012 64.2541 41.9612 64.3101 41.7212 64.4221C41.4812 64.5261 41.2812 64.6861 41.1212 64.9021C40.9612 65.1101 40.8812 65.3781 40.8812 65.7061ZM48.3066 69.3901C47.9066 69.3901 47.5386 69.3301 47.2026 69.2101C46.8666 69.0901 46.5786 68.9221 46.3386 68.7061C46.0986 68.4821 45.9146 68.2221 45.7866 67.9261L46.9506 67.4101C47.0706 67.6341 47.2466 67.8221 47.4786 67.9741C47.7186 68.1261 47.9826 68.2021 48.2706 68.2021C48.5826 68.2021 48.8306 68.1501 49.0146 68.0461C49.2066 67.9341 49.3026 67.7821 49.3026 67.5901C49.3026 67.4061 49.2306 67.2661 49.0866 67.1701C48.9426 67.0661 48.7386 66.9821 48.4746 66.9181L47.9106 66.7621C47.3426 66.6181 46.8986 66.3901 46.5786 66.0781C46.2586 65.7581 46.0986 65.3941 46.0986 64.9861C46.0986 64.3861 46.2906 63.9221 46.6746 63.5941C47.0666 63.2661 47.6266 63.1021 48.3546 63.1021C48.7226 63.1021 49.0586 63.1581 49.3626 63.2701C49.6746 63.3741 49.9426 63.5261 50.1666 63.7261C50.3906 63.9181 50.5466 64.1461 50.6346 64.4101L49.5186 64.9141C49.4386 64.7141 49.2866 64.5621 49.0626 64.4581C48.8386 64.3461 48.5906 64.2901 48.3186 64.2901C48.0466 64.2901 47.8346 64.3501 47.6826 64.4701C47.5306 64.5821 47.4546 64.7421 47.4546 64.9501C47.4546 65.0701 47.5226 65.1821 47.6586 65.2861C47.7946 65.3821 47.9906 65.4621 48.2466 65.5261L48.9546 65.6941C49.3466 65.7901 49.6666 65.9421 49.9146 66.1501C50.1626 66.3501 50.3466 66.5781 50.4666 66.8341C50.5866 67.0821 50.6466 67.3341 50.6466 67.5901C50.6466 67.9501 50.5426 68.2661 50.3346 68.5381C50.1346 68.8101 49.8586 69.0221 49.5066 69.1741C49.1546 69.3181 48.7546 69.3901 48.3066 69.3901ZM52.5644 70.4461H51.2204C51.5964 69.9261 51.9324 69.3781 52.2284 68.8021C52.5324 68.2181 52.7724 67.6101 52.9484 66.9781C53.1244 66.3461 53.2124 65.7021 53.2124 65.0461C53.2124 64.3821 53.1244 63.7381 52.9484 63.1141C52.7724 62.4821 52.5324 61.8741 52.2284 61.2901C51.9324 60.7061 51.5964 60.1581 51.2204 59.6461H52.5644C52.9404 60.1341 53.2764 60.6661 53.5724 61.2421C53.8764 61.8101 54.1164 62.4141 54.2924 63.0541C54.4684 63.6861 54.5564 64.3501 54.5564 65.0461C54.5564 65.7341 54.4684 66.3981 54.2924 67.0381C54.1164 67.6781 53.8764 68.2861 53.5724 68.8621C53.2764 69.4301 52.9404 69.9581 52.5644 70.4461Z" fill="#292929"/>
<path d="M12.125 79.2461L13.4721 83.392H17.8313L14.3046 85.9543L15.6517 90.1002L12.125 87.5379L8.59829 90.1002L9.94537 85.9543L6.41866 83.392H10.7779L12.125 79.2461Z" fill="#FABD05"/>
<path d="M27.125 79.2461L28.4721 83.392H32.8313L29.3046 85.9543L30.6517 90.1002L27.125 87.5379L23.5983 90.1002L24.9454 85.9543L21.4187 83.392H25.7779L27.125 79.2461Z" fill="#FABD05"/>
<path d="M42.125 79.2461L43.4721 83.392H47.8313L44.3046 85.9543L45.6517 90.1002L42.125 87.5379L38.5983 90.1002L39.9454 85.9543L36.4187 83.392H40.7779L42.125 79.2461Z" fill="#FABD05"/>
<path d="M57.125 79.2461L58.4721 83.392H62.8313L59.3046 85.9543L60.6517 90.1002L57.125 87.5379L53.5983 90.1002L54.9454 85.9543L51.4187 83.392H55.7779L57.125 79.2461Z" fill="#FABD05"/>
<path d="M72.125 79.2461L73.4721 83.392H77.8313L74.3046 85.9543L75.6517 90.1002L72.125 87.5379L68.5983 90.1002L69.9454 85.9543L66.4187 83.392H70.7779L72.125 79.2461Z" fill="#FABD05"/>
</g>
<defs>
<filter id="filter0_b_2499_760" x="-5" y="-5" width="203.594" height="111.047" filterUnits="userSpaceOnUse" color-interpolation-filters="sRGB">
<feFlood flood-opacity="0" result="BackgroundImageFix"/>
<feGaussianBlur in="BackgroundImageFix" stdDeviation="2.5"/>
<feComposite in2="SourceAlpha" operator="in" result="effect1_backgroundBlur_2499_760"/>
<feBlend mode="normal" in="SourceGraphic" in2="effect1_backgroundBlur_2499_760" result="shape"/>
</filter>
</defs>
</svg>
