<svg viewBox="0 0 248 113" fill="none" xmlns="http://www.w3.org/2000/svg">
<rect x="32.1992" y="61.5" width="183.6" height="51" rx="15.1699" fill="white"/>
<rect x="32.1992" y="61.5" width="183.6" height="51" rx="15.1699" stroke="#E6E6E6"/>
<path d="M105.521 93.1986C104.373 93.1986 103.358 92.9448 102.476 92.4373C101.593 91.9298 100.898 91.2236 100.39 90.3189C99.8937 89.4142 99.6455 88.377 99.6455 87.2075C99.6455 86.038 99.8937 85.0063 100.39 84.1126C100.898 83.2079 101.587 82.5018 102.459 81.9942C103.331 81.4757 104.335 81.2164 105.471 81.2164C106.619 81.2164 107.628 81.4757 108.5 81.9942C109.382 82.5018 110.066 83.2079 110.552 84.1126C111.048 85.0063 111.297 86.038 111.297 87.2075C111.297 88.377 111.048 89.4142 110.552 90.3189C110.066 91.2236 109.388 91.9298 108.516 92.4373C107.656 92.9448 106.657 93.1986 105.521 93.1986ZM105.521 91.4443C106.271 91.4443 106.933 91.2622 107.507 90.8981C108.08 90.534 108.527 90.0375 108.847 89.4086C109.178 88.7687 109.344 88.035 109.344 87.2075C109.344 86.391 109.178 85.6628 108.847 85.0229C108.516 84.383 108.058 83.8865 107.474 83.5334C106.9 83.1693 106.232 82.9872 105.471 82.9872C104.721 82.9872 104.053 83.1693 103.469 83.5334C102.895 83.8865 102.437 84.383 102.095 85.0229C101.764 85.6518 101.598 86.38 101.598 87.2075C101.598 88.035 101.764 88.7687 102.095 89.4086C102.437 90.0375 102.9 90.534 103.485 90.8981C104.081 91.2622 104.759 91.4443 105.521 91.4443ZM115.951 93.1986C115.079 93.1986 114.411 92.9834 113.948 92.5531C113.496 92.1118 113.269 91.4829 113.269 90.6664V82.1432H115.107V90.3189C115.107 90.7051 115.195 90.9974 115.371 91.196C115.559 91.3946 115.829 91.4939 116.182 91.4939C116.293 91.4939 116.414 91.4719 116.546 91.4277C116.679 91.3836 116.828 91.3009 116.993 91.1795L117.672 92.5862C117.385 92.7848 117.098 92.9338 116.811 93.0331C116.524 93.1434 116.237 93.1986 115.951 93.1986ZM111.896 86.3138V84.725H117.341V86.3138H111.896ZM118.84 93V81.415H120.693V93H118.84ZM124.45 93V88.7632H126.304V93H124.45ZM124.45 88.7632C124.45 88.1012 124.373 87.5937 124.219 87.2406C124.064 86.8765 123.849 86.6227 123.573 86.4793C123.308 86.3359 122.999 86.2641 122.646 86.2641C122.017 86.2531 121.532 86.4572 121.19 86.8765C120.859 87.2958 120.693 87.8971 120.693 88.6804H119.982C119.982 87.8088 120.109 87.0641 120.362 86.4462C120.627 85.8173 120.997 85.3429 121.471 85.0229C121.946 84.6919 122.508 84.5264 123.159 84.5264C123.81 84.5264 124.373 84.6588 124.847 84.9236C125.322 85.1884 125.68 85.6021 125.923 86.1648C126.177 86.7165 126.304 87.4392 126.304 88.3329V88.7632H124.45ZM131.541 93.1986C130.735 93.1986 130.018 93.0165 129.389 92.6524C128.771 92.2773 128.28 91.7643 127.916 91.1133C127.563 90.4623 127.387 89.7121 127.387 88.8625C127.387 88.0129 127.569 87.2627 127.933 86.6117C128.297 85.9607 128.793 85.4532 129.422 85.0891C130.062 84.714 130.791 84.5264 131.607 84.5264C132.346 84.5264 133.014 84.7195 133.61 85.1056C134.205 85.4808 134.674 86.0269 135.016 86.7441C135.369 87.4613 135.546 88.3163 135.546 89.3093H129.042L129.29 89.0776C129.29 89.5852 129.4 90.0265 129.621 90.4016C129.842 90.7657 130.134 91.0471 130.498 91.2457C130.862 91.4443 131.265 91.5436 131.706 91.5436C132.214 91.5436 132.633 91.4333 132.964 91.2126C133.295 90.9809 133.554 90.683 133.742 90.3189L135.38 91.014C135.149 91.4553 134.851 91.8415 134.487 92.1725C134.134 92.5035 133.709 92.7573 133.212 92.9338C132.727 93.1103 132.17 93.1986 131.541 93.1986ZM129.406 88.1177L129.141 87.886H133.808L133.56 88.1177C133.56 87.6654 133.461 87.2958 133.262 87.0089C133.063 86.711 132.81 86.4903 132.501 86.3469C132.203 86.1924 131.888 86.1152 131.557 86.1152C131.226 86.1152 130.895 86.1924 130.564 86.3469C130.233 86.4903 129.958 86.711 129.737 87.0089C129.516 87.2958 129.406 87.6654 129.406 88.1177ZM137.859 88.5977C137.859 87.704 138.03 86.9703 138.372 86.3965C138.714 85.8228 139.156 85.398 139.696 85.1222C140.248 84.8353 140.822 84.6919 141.418 84.6919V86.4627C140.91 86.4627 140.43 86.5345 139.978 86.6779C139.536 86.8103 139.178 87.031 138.902 87.3399C138.626 87.6488 138.488 88.0571 138.488 88.5646L137.859 88.5977ZM136.635 93V84.725H138.488V93H136.635ZM145.328 93.1986C144.776 93.1986 144.269 93.1159 143.805 92.9503C143.342 92.7848 142.945 92.5531 142.614 92.2552C142.283 91.9463 142.029 91.5877 141.852 91.1795L143.458 90.4678C143.623 90.7768 143.866 91.0361 144.186 91.2457C144.517 91.4553 144.881 91.5601 145.278 91.5601C145.709 91.5601 146.051 91.4884 146.304 91.345C146.569 91.1905 146.702 90.9809 146.702 90.7161C146.702 90.4623 146.602 90.2692 146.404 90.1368C146.205 89.9934 145.924 89.8776 145.56 89.7893L144.782 89.5741C143.998 89.3755 143.386 89.0611 142.945 88.6308C142.503 88.1895 142.283 87.6874 142.283 87.1247C142.283 86.2972 142.548 85.6573 143.077 85.2049C143.618 84.7526 144.39 84.5264 145.394 84.5264C145.902 84.5264 146.365 84.6036 146.784 84.7581C147.215 84.9015 147.584 85.1112 147.893 85.387C148.202 85.6518 148.417 85.9662 148.539 86.3303L147 87.0254C146.889 86.7496 146.68 86.54 146.371 86.3965C146.062 86.2421 145.72 86.1648 145.345 86.1648C144.969 86.1648 144.677 86.2476 144.467 86.4131C144.258 86.5676 144.153 86.7882 144.153 87.0751C144.153 87.2406 144.247 87.3951 144.434 87.5385C144.622 87.6709 144.892 87.7812 145.245 87.8695L146.222 88.1012C146.762 88.2336 147.204 88.4432 147.546 88.7301C147.888 89.0059 148.141 89.3204 148.307 89.6734C148.472 90.0155 148.555 90.363 148.555 90.7161C148.555 91.2126 148.412 91.6484 148.125 92.0235C147.849 92.3987 147.468 92.6911 146.983 92.9007C146.498 93.0993 145.946 93.1986 145.328 93.1986Z" fill="black"/>
<rect x="0.5" y="0.5" width="247" height="69" rx="15.5717" fill="#FFF1F3"/>
<rect x="0.5" y="0.5" width="247" height="69" rx="15.5717" stroke="#E6E6E6"/>
<path d="M78.6953 41.8232V44.7226H85.8828V47.5351H68.6328V44.7226H75.8203V41.8232C70.1475 41.1312 65.7578 36.3972 65.7578 30.6602V22.2227H88.7578V30.6602C88.7578 36.3972 84.3681 41.1312 78.6953 41.8232ZM61.4453 25.0352H64.3203V30.6602H61.4453V25.0352ZM90.1953 25.0352H93.0703V30.6602H90.1953V25.0352Z" fill="#F59D06"/>
<path d="M109.16 36.155L107.234 35.543L111.302 28.775H113.696L109.16 36.155ZM107.126 41.375V35.327H109.214V41.375H107.126ZM107.18 36.155L102.644 28.775H105.038L109.106 35.543L107.18 36.155ZM117.38 41.591C116.48 41.591 115.676 41.393 114.968 40.997C114.272 40.589 113.726 40.031 113.33 39.323C112.934 38.615 112.736 37.799 112.736 36.875C112.736 35.951 112.928 35.135 113.312 34.427C113.708 33.719 114.254 33.167 114.95 32.771C115.646 32.363 116.444 32.159 117.344 32.159C118.244 32.159 119.042 32.363 119.738 32.771C120.434 33.167 120.974 33.719 121.358 34.427C121.754 35.135 121.952 35.951 121.952 36.875C121.952 37.799 121.76 38.615 121.376 39.323C120.992 40.031 120.452 40.589 119.756 40.997C119.06 41.393 118.268 41.591 117.38 41.591ZM117.38 39.737C117.872 39.737 118.31 39.617 118.694 39.377C119.078 39.125 119.378 38.789 119.594 38.369C119.81 37.937 119.918 37.439 119.918 36.875C119.918 36.311 119.804 35.819 119.576 35.399C119.36 34.967 119.06 34.631 118.676 34.391C118.292 34.139 117.848 34.013 117.344 34.013C116.84 34.013 116.396 34.133 116.012 34.373C115.628 34.613 115.328 34.949 115.112 35.381C114.896 35.813 114.788 36.311 114.788 36.875C114.788 37.439 114.896 37.937 115.112 38.369C115.34 38.789 115.646 39.125 116.03 39.377C116.426 39.617 116.876 39.737 117.38 39.737ZM129.369 41.375L129.261 39.719V32.375H131.259V41.375H129.369ZM123.141 36.983V32.375H125.157V36.983H123.141ZM125.157 36.983C125.157 37.691 125.241 38.243 125.409 38.639C125.577 39.035 125.805 39.311 126.093 39.467C126.393 39.623 126.735 39.701 127.119 39.701C127.803 39.713 128.331 39.491 128.703 39.035C129.075 38.579 129.261 37.925 129.261 37.073H130.017C130.017 38.021 129.873 38.837 129.585 39.521C129.309 40.193 128.913 40.709 128.397 41.069C127.893 41.417 127.281 41.591 126.561 41.591C125.853 41.591 125.241 41.447 124.725 41.159C124.221 40.871 123.831 40.421 123.555 39.809C123.279 39.197 123.141 38.411 123.141 37.451V36.983H125.157ZM134.472 36.587C134.472 35.615 134.658 34.817 135.03 34.193C135.402 33.569 135.882 33.107 136.47 32.807C137.07 32.495 137.694 32.339 138.342 32.339V34.265C137.79 34.265 137.268 34.343 136.776 34.499C136.296 34.643 135.906 34.883 135.606 35.219C135.306 35.555 135.156 35.999 135.156 36.551L134.472 36.587ZM133.14 41.375V32.375H135.156V41.375H133.14ZM143.3 41.375V28.775H145.316V39.701L145.208 41.375H143.3ZM148.16 41.591C147.404 41.591 146.75 41.399 146.198 41.015C145.658 40.619 145.244 40.067 144.956 39.359C144.668 38.651 144.524 37.823 144.524 36.875C144.524 35.915 144.668 35.087 144.956 34.391C145.244 33.683 145.658 33.137 146.198 32.753C146.75 32.357 147.404 32.159 148.16 32.159C148.976 32.159 149.684 32.357 150.284 32.753C150.896 33.137 151.37 33.683 151.706 34.391C152.054 35.087 152.228 35.915 152.228 36.875C152.228 37.823 152.054 38.651 151.706 39.359C151.37 40.067 150.896 40.619 150.284 41.015C149.684 41.399 148.976 41.591 148.16 41.591ZM147.656 39.755C148.136 39.755 148.562 39.635 148.934 39.395C149.306 39.143 149.6 38.801 149.816 38.369C150.044 37.937 150.158 37.439 150.158 36.875C150.158 36.311 150.05 35.813 149.834 35.381C149.63 34.949 149.342 34.613 148.97 34.373C148.598 34.133 148.166 34.013 147.674 34.013C147.218 34.013 146.81 34.133 146.45 34.373C146.09 34.613 145.808 34.949 145.604 35.381C145.412 35.813 145.316 36.311 145.316 36.875C145.316 37.439 145.412 37.937 145.604 38.369C145.808 38.801 146.084 39.143 146.432 39.395C146.792 39.635 147.2 39.755 147.656 39.755ZM154.925 36.587C154.925 35.615 155.111 34.817 155.483 34.193C155.855 33.569 156.335 33.107 156.923 32.807C157.523 32.495 158.147 32.339 158.795 32.339V34.265C158.243 34.265 157.721 34.343 157.229 34.499C156.749 34.643 156.359 34.883 156.059 35.219C155.759 35.555 155.609 35.999 155.609 36.551L154.925 36.587ZM153.593 41.375V32.375H155.609V41.375H153.593ZM165.262 41.375L165.172 39.683V36.749C165.172 36.137 165.106 35.627 164.974 35.219C164.854 34.799 164.65 34.481 164.362 34.265C164.086 34.037 163.714 33.923 163.246 33.923C162.814 33.923 162.436 34.013 162.112 34.193C161.788 34.373 161.512 34.655 161.284 35.039L159.52 34.391C159.712 33.995 159.964 33.629 160.276 33.293C160.6 32.945 161.002 32.669 161.482 32.465C161.974 32.261 162.562 32.159 163.246 32.159C164.122 32.159 164.854 32.333 165.442 32.681C166.03 33.017 166.462 33.503 166.738 34.139C167.026 34.775 167.17 35.543 167.17 36.443L167.116 41.375H165.262ZM162.67 41.591C161.59 41.591 160.75 41.351 160.15 40.871C159.562 40.391 159.268 39.713 159.268 38.837C159.268 37.901 159.58 37.187 160.204 36.695C160.84 36.203 161.722 35.957 162.85 35.957H165.262V37.505H163.498C162.694 37.505 162.13 37.619 161.806 37.847C161.482 38.063 161.32 38.375 161.32 38.783C161.32 39.131 161.458 39.407 161.734 39.611C162.022 39.803 162.418 39.899 162.922 39.899C163.378 39.899 163.774 39.797 164.11 39.593C164.446 39.389 164.704 39.119 164.884 38.783C165.076 38.447 165.172 38.069 165.172 37.649H165.766C165.766 38.873 165.52 39.839 165.028 40.547C164.536 41.243 163.75 41.591 162.67 41.591ZM168.851 41.375V32.375H170.741L170.867 34.031V41.375H168.851ZM174.953 41.375V36.767H176.969V41.375H174.953ZM174.953 36.767C174.953 36.047 174.869 35.495 174.701 35.111C174.545 34.715 174.317 34.439 174.017 34.283C173.729 34.127 173.387 34.049 172.991 34.049C172.319 34.037 171.797 34.259 171.425 34.715C171.053 35.171 170.867 35.825 170.867 36.677H170.111C170.111 35.729 170.249 34.919 170.525 34.247C170.801 33.563 171.197 33.047 171.713 32.699C172.229 32.339 172.841 32.159 173.549 32.159C174.269 32.159 174.881 32.303 175.385 32.591C175.901 32.879 176.291 33.329 176.555 33.941C176.831 34.541 176.969 35.327 176.969 36.299V36.767H174.953ZM185.149 41.375L185.059 39.701V28.775H187.057V41.375H185.149ZM182.215 41.591C181.399 41.591 180.685 41.399 180.073 41.015C179.473 40.619 178.999 40.067 178.651 39.359C178.315 38.651 178.147 37.823 178.147 36.875C178.147 35.915 178.315 35.087 178.651 34.391C178.999 33.683 179.473 33.137 180.073 32.753C180.685 32.357 181.399 32.159 182.215 32.159C182.971 32.159 183.619 32.357 184.159 32.753C184.711 33.137 185.131 33.683 185.419 34.391C185.707 35.087 185.851 35.915 185.851 36.875C185.851 37.823 185.707 38.651 185.419 39.359C185.131 40.067 184.711 40.619 184.159 41.015C183.619 41.399 182.971 41.591 182.215 41.591ZM182.719 39.755C183.175 39.755 183.577 39.635 183.925 39.395C184.285 39.143 184.561 38.801 184.753 38.369C184.957 37.937 185.059 37.439 185.059 36.875C185.059 36.311 184.957 35.813 184.753 35.381C184.561 34.949 184.285 34.613 183.925 34.373C183.577 34.133 183.169 34.013 182.701 34.013C182.221 34.013 181.795 34.133 181.423 34.373C181.051 34.613 180.757 34.949 180.541 35.381C180.337 35.813 180.229 36.311 180.217 36.875C180.229 37.439 180.337 37.937 180.541 38.369C180.757 38.801 181.051 39.143 181.423 39.395C181.807 39.635 182.239 39.755 182.719 39.755Z" fill="black"/>
</svg>
