<svg viewBox="0 0 26 27" fill="none" xmlns="http://www.w3.org/2000/svg">
<g id="Frame">
<path id="Vector" d="M11.9375 8.1875V5C11.9375 4.4132 12.4132 3.9375 13 3.9375H22.5625C23.1493 3.9375 23.625 4.4132 23.625 5V22C23.625 22.5868 23.1493 23.0625 22.5625 23.0625H3.4375C2.8507 23.0625 2.375 22.5868 2.375 22V9.25C2.375 8.6632 2.8507 8.1875 3.4375 8.1875H11.9375ZM5.5625 17.75V19.875H10.875V17.75H5.5625ZM15.125 17.75V19.875H20.4375V17.75H15.125ZM15.125 14.5625V16.6875H20.4375V14.5625H15.125ZM15.125 11.375V13.5H20.4375V11.375H15.125ZM5.5625 14.5625V16.6875H10.875V14.5625H5.5625Z" fill="#FF1A35"/>
</g>
</svg>
