<svg viewBox="0 0 248 114" fill="none" xmlns="http://www.w3.org/2000/svg">
<rect x="0.5" y="0.5" width="247" height="112.162" rx="15.5717" fill="white" stroke="#E6E6E6"/>
<path d="M29.1333 25.0145L32.3027 28.2989L31.2562 29.3835L28.0867 26.099C26.9471 27.0439 25.5019 27.6091 23.93 27.6091C20.2534 27.6091 17.2695 24.5169 17.2695 20.7069C17.2695 16.8969 20.2534 13.8047 23.93 13.8047C27.6066 13.8047 30.5905 16.8969 30.5905 20.7069C30.5905 22.3358 30.0451 23.8335 29.1333 25.0145ZM27.6486 24.4454C28.5535 23.4789 29.1104 22.1606 29.1104 20.7069C29.1104 17.7409 26.7922 15.3385 23.93 15.3385C21.0679 15.3385 18.7496 17.7409 18.7496 20.7069C18.7496 23.6729 21.0679 26.0752 23.93 26.0752C25.3329 26.0752 26.605 25.4981 27.5376 24.5604L27.6486 24.4454Z" fill="black"/>
<path d="M39.9375 26.4727V16.5082H44.2233C45.2546 16.5082 46.0448 16.7894 46.6073 17.352C47.0225 17.7805 47.2769 18.3564 47.2769 19.0797C47.2769 20.1645 46.6609 20.8609 45.5894 21.169V21.2092C46.8082 21.4904 47.6787 22.294 47.6787 23.6065C47.6787 24.3967 47.3975 25.0664 46.9153 25.5485C46.3528 26.1378 45.4957 26.4727 44.4242 26.4727H39.9375ZM41.3036 20.7538H44.0358C45.201 20.7538 45.8974 20.1779 45.8974 19.1734C45.8974 18.2359 45.268 17.6868 44.1965 17.6868H41.3036V20.7538ZM41.3036 25.2673H44.3438C45.0269 25.2673 45.5224 25.0932 45.8439 24.7717C46.1251 24.5039 46.2858 24.1155 46.2858 23.6467C46.2858 22.4547 45.4421 21.8654 44.2635 21.8654H41.3036V25.2673ZM54.5816 26.4727H53.3495V25.4682H53.3227C52.8137 26.178 52.1843 26.6334 51.153 26.6334C49.6663 26.6334 48.7154 25.736 48.7154 24.236V19.2806H49.961V24.169C49.961 25.0798 50.5369 25.6155 51.528 25.6155C52.6262 25.6155 53.3361 24.7717 53.3361 23.6601V19.2806H54.5816V26.4727ZM58.8065 26.6869C56.8243 26.6869 55.6993 25.7494 55.5922 24.2896H56.8511C56.9984 25.3342 57.802 25.6825 58.8333 25.6825C59.9717 25.6825 60.4539 25.1869 60.4539 24.544C60.4539 23.7539 59.8512 23.553 58.5788 23.2985C57.1726 23.0038 55.9002 22.7092 55.9002 21.1288C55.9002 19.8966 56.8645 19.1198 58.5386 19.1198C60.3467 19.1198 61.2441 19.9636 61.4048 21.2092H60.1592C60.0521 20.4725 59.5431 20.0574 58.5119 20.0574C57.5342 20.0574 57.119 20.5127 57.119 21.0618C57.119 21.8119 57.8154 21.9592 59.0342 22.2003C60.4673 22.4815 61.6994 22.8029 61.6994 24.4771C61.6994 25.9369 60.494 26.6869 58.8065 26.6869ZM62.7503 17.9546V16.5082H64.0494V17.9546H62.7503ZM62.777 26.4727V19.2806H64.0226V26.4727H62.777ZM66.6972 19.2806V20.2984H66.7374C67.2598 19.5752 67.9696 19.1065 69.0143 19.1065C70.5143 19.1065 71.4384 19.9502 71.4384 21.4502V26.4727H70.2062V21.5976C70.2062 20.6734 69.6035 20.1511 68.6259 20.1511C67.5142 20.1511 66.7106 20.9413 66.7106 22.0931V26.4727H65.4651V19.2806H66.6972ZM75.9691 26.6736C73.7593 26.6736 72.4601 24.986 72.4601 22.8833C72.4601 20.794 73.8396 19.1065 75.9022 19.1065C76.9736 19.1065 77.804 19.5216 78.3665 20.2181C78.9558 20.9279 79.2505 21.9592 79.2505 23.178H73.7325C73.8262 24.5842 74.5897 25.6557 75.9825 25.6557C76.9736 25.6557 77.6567 25.1869 77.8844 24.4235H79.1031C78.7817 25.7628 77.6299 26.6736 75.9691 26.6736ZM75.9022 20.0708C74.603 20.0708 73.92 21.0083 73.7593 22.2806H77.9245C77.8576 20.9011 77.1477 20.0708 75.9022 20.0708ZM83.0695 26.6869C81.0873 26.6869 79.9623 25.7494 79.8551 24.2896H81.1141C81.2614 25.3342 82.065 25.6825 83.0963 25.6825C84.2347 25.6825 84.7168 25.1869 84.7168 24.544C84.7168 23.7539 84.1141 23.553 82.8418 23.2985C81.4355 23.0038 80.1632 22.7092 80.1632 21.1288C80.1632 19.8966 81.1275 19.1198 82.8016 19.1198C84.6097 19.1198 85.507 19.9636 85.6677 21.2092H84.4222C84.315 20.4725 83.8061 20.0574 82.7748 20.0574C81.7971 20.0574 81.3819 20.5127 81.3819 21.0618C81.3819 21.8119 82.0784 21.9592 83.2972 22.2003C84.7302 22.4815 85.9624 22.8029 85.9624 24.4771C85.9624 25.9369 84.757 26.6869 83.0695 26.6869ZM89.799 26.6869C87.8168 26.6869 86.6918 25.7494 86.5846 24.2896H87.8436C87.9909 25.3342 88.7945 25.6825 89.8258 25.6825C90.9642 25.6825 91.4463 25.1869 91.4463 24.544C91.4463 23.7539 90.8436 23.553 89.5713 23.2985C88.165 23.0038 86.8927 22.7092 86.8927 21.1288C86.8927 19.8966 87.857 19.1198 89.5311 19.1198C91.3392 19.1198 92.2365 19.9636 92.3972 21.2092H91.1517C91.0445 20.4725 90.5356 20.0574 89.5043 20.0574C88.5266 20.0574 88.1114 20.5127 88.1114 21.0618C88.1114 21.8119 88.8079 21.9592 90.0267 22.2003C91.4597 22.4815 92.6919 22.8029 92.6919 24.4771C92.6919 25.9369 91.4865 26.6869 89.799 26.6869ZM97.2333 26.4727V16.5082H98.6664L102.751 22.7494C103.233 23.486 103.863 24.7316 103.863 24.7316H103.903C103.903 24.7316 103.809 23.4324 103.809 22.6021V16.5082H105.095V26.4727H103.675L99.6039 20.2315C99.1217 19.4815 98.4655 18.2627 98.4655 18.2627H98.4387C98.4387 18.2627 98.519 19.5618 98.519 20.3654V26.4727H97.2333ZM108.861 26.62C107.495 26.62 106.424 25.9503 106.424 24.5708C106.424 22.8967 107.656 22.5351 109.518 22.3074C110.576 22.1869 111.259 22.0128 111.259 21.2761C111.259 20.4993 110.71 20.0172 109.718 20.0172C108.58 20.0172 108.031 20.5529 107.991 21.4101H106.785C106.839 20.1913 107.763 19.1065 109.705 19.1065C110.388 19.1065 110.991 19.227 111.446 19.4949C112.049 19.8565 112.411 20.4859 112.411 21.4502V24.8119C112.411 25.3878 112.544 25.6959 113.174 25.5619H113.227V26.4325C113.053 26.486 112.852 26.5396 112.558 26.5396C111.794 26.5396 111.419 26.178 111.285 25.4146H111.272C110.817 26.0441 110.08 26.62 108.861 26.62ZM109.169 25.7092C110.602 25.7092 111.272 24.6512 111.272 23.8208V22.6422C110.91 22.8699 110.281 23.044 109.692 23.1512C108.513 23.3521 107.736 23.5664 107.736 24.5574C107.736 25.4816 108.446 25.7092 109.169 25.7092ZM113.971 26.4727V19.2806H115.203V20.352H115.243C115.685 19.5752 116.449 19.1065 117.373 19.1065C118.244 19.1065 118.94 19.5618 119.235 20.4458H119.261C119.77 19.5484 120.614 19.1065 121.485 19.1065C122.797 19.1065 123.708 19.9502 123.708 21.4502V26.4727H122.462V21.5574C122.462 20.6734 121.886 20.1511 121.163 20.1511C120.252 20.1511 119.462 20.9413 119.462 22.0395V26.4727H118.23V21.5574C118.23 20.6734 117.735 20.1511 116.998 20.1511C116.141 20.1511 115.217 20.9413 115.217 22.0395V26.4727H113.971ZM128.229 26.6736C126.019 26.6736 124.72 24.986 124.72 22.8833C124.72 20.794 126.099 19.1065 128.162 19.1065C129.233 19.1065 130.064 19.5216 130.626 20.2181C131.216 20.9279 131.51 21.9592 131.51 23.178H125.992C126.086 24.5842 126.849 25.6557 128.242 25.6557C129.233 25.6557 129.916 25.1869 130.144 24.4235H131.363C131.041 25.7628 129.89 26.6736 128.229 26.6736ZM128.162 20.0708C126.863 20.0708 126.18 21.0083 126.019 22.2806H130.184C130.117 20.9011 129.408 20.0708 128.162 20.0708Z" fill="black"/>
<rect x="15.7891" y="40.2188" width="180.244" height="5.45358" rx="2.00896" fill="url(#paint0_linear_2350_1546)"/>
<rect x="15.7891" y="51.1289" width="129.592" height="5.45358" rx="2.00896" fill="url(#paint1_linear_2350_1546)"/>
<rect x="15.7891" y="62.0352" width="105.91" height="5.45358" rx="2.00896" fill="url(#paint2_linear_2350_1546)"/>
<rect x="15.7891" y="72.9414" width="77.6233" height="5.45358" rx="2.00896" fill="url(#paint3_linear_2350_1546)"/>
<rect x="15.7891" y="93.3906" width="53.2838" height="5.45358" rx="2.00896" fill="url(#paint4_linear_2350_1546)"/>
<rect x="78.2812" y="93.3906" width="53.2838" height="5.45358" rx="2.00896" fill="url(#paint5_linear_2350_1546)"/>
<rect x="139.457" y="93.3906" width="53.2838" height="5.45358" rx="2.00896" fill="url(#paint6_linear_2350_1546)"/>
<defs>
<linearGradient id="paint0_linear_2350_1546" x1="15.7891" y1="42.9455" x2="196.033" y2="42.9455" gradientUnits="userSpaceOnUse">
<stop stop-color="#EDEDED"/>
<stop offset="1" stop-color="#CBCBCB" stop-opacity="0"/>
</linearGradient>
<linearGradient id="paint1_linear_2350_1546" x1="15.7891" y1="53.8557" x2="145.381" y2="53.8557" gradientUnits="userSpaceOnUse">
<stop stop-color="#EDEDED"/>
<stop offset="1" stop-color="#CBCBCB" stop-opacity="0"/>
</linearGradient>
<linearGradient id="paint2_linear_2350_1546" x1="15.7891" y1="64.7619" x2="121.699" y2="64.7619" gradientUnits="userSpaceOnUse">
<stop stop-color="#EDEDED"/>
<stop offset="1" stop-color="#CBCBCB" stop-opacity="0"/>
</linearGradient>
<linearGradient id="paint3_linear_2350_1546" x1="15.7891" y1="75.6682" x2="93.4124" y2="75.6682" gradientUnits="userSpaceOnUse">
<stop stop-color="#EDEDED"/>
<stop offset="1" stop-color="#CBCBCB" stop-opacity="0"/>
</linearGradient>
<linearGradient id="paint4_linear_2350_1546" x1="15.7891" y1="96.1174" x2="69.0729" y2="96.1174" gradientUnits="userSpaceOnUse">
<stop stop-color="#FF1A35" stop-opacity="0.17"/>
<stop offset="1" stop-color="#FF1A35" stop-opacity="0"/>
</linearGradient>
<linearGradient id="paint5_linear_2350_1546" x1="78.2812" y1="96.1174" x2="131.565" y2="96.1174" gradientUnits="userSpaceOnUse">
<stop stop-color="#FF1A35" stop-opacity="0.17"/>
<stop offset="1" stop-color="#FF1A35" stop-opacity="0"/>
</linearGradient>
<linearGradient id="paint6_linear_2350_1546" x1="139.457" y1="96.1174" x2="192.741" y2="96.1174" gradientUnits="userSpaceOnUse">
<stop stop-color="#FF1A35" stop-opacity="0.17"/>
<stop offset="1" stop-color="#FF1A35" stop-opacity="0"/>
</linearGradient>
</defs>
</svg>
