<svg viewBox="0 0 280 127" fill="none" xmlns="http://www.w3.org/2000/svg">
<rect x="15.5" y="13.5" width="249" height="113" rx="9.58101" fill="white"/>
<rect x="15.5" y="13.5" width="249" height="113" rx="9.58101" stroke="#E6E6E6"/>
<g filter="url(#filter0_d_2350_1562)">
<rect x="24" y="34" width="233" height="43" rx="3.027" fill="white"/>
</g>
<g filter="url(#filter1_d_2350_1562)">
<path d="M16 23.081C16 18.0657 20.0657 14 25.081 14H254.919C259.934 14 264 18.0657 264 23.081V29H16V23.081Z" fill="white"/>
<path d="M16.1892 23.081C16.1892 18.1702 20.1702 14.1892 25.081 14.1892H254.919C259.83 14.1892 263.811 18.1702 263.811 23.081V28.8108H16.1892V23.081Z" stroke="#F7F7F7" stroke-width="0.378375"/>
</g>
<g filter="url(#filter2_d_2350_1562)">
<rect x="92.4609" y="16.6484" width="101.404" height="9.83784" rx="4.91892" fill="white"/>
<rect x="92.3432" y="16.5307" width="101.639" height="10.0734" rx="5.03668" stroke="url(#paint0_linear_2350_1562)" stroke-width="0.235529"/>
<g clip-path="url(#clip0_2350_1562)">
<path d="M99.7079 22.2392L99.4404 21.9717L99.7079 21.7041C100.077 21.3347 100.077 20.7358 99.7079 20.3664C99.3385 19.997 98.7396 19.997 98.3702 20.3664L98.1026 20.6339L97.8351 20.3664L98.1026 20.0988C98.6198 19.5816 99.4583 19.5816 99.9755 20.0988C100.493 20.616 100.493 21.4545 99.9755 21.9717L99.7079 22.2392ZM99.1728 22.7744L98.9053 23.0419C98.3881 23.5591 97.5496 23.5591 97.0324 23.0419C96.5152 22.5247 96.5152 21.6862 97.0324 21.169L97.3 20.9015L97.5675 21.169L97.3 21.4366C96.9306 21.806 96.9306 22.4049 97.3 22.7744C97.6694 23.1438 98.2683 23.1438 98.6377 22.7744L98.9053 22.5068L99.1728 22.7744ZM99.039 20.7677L99.3066 21.0353L97.9688 22.373L97.7013 22.1055L99.039 20.7677Z" fill="black"/>
</g>
<rect x="103.125" y="20.4336" width="63.9449" height="2.27027" rx="1.13513" fill="url(#paint1_linear_2350_1562)"/>
</g>
<ellipse cx="26.9739" cy="21.5638" rx="1.89186" ry="1.89189" fill="#EFEFEF"/>
<ellipse cx="33.4075" cy="21.5638" rx="1.89186" ry="1.89189" fill="#EFEFEF"/>
<rect x="24" y="102" width="167" height="5" rx="1.13513" fill="url(#paint2_linear_2350_1562)"/>
<rect x="24" y="81" width="167" height="6" rx="1.13513" fill="#E81831"/>
<rect x="198" y="102" width="59" height="5" rx="1.13513" fill="url(#paint3_linear_2350_1562)"/>
<rect x="198" y="81" width="59" height="6" rx="1.13513" fill="url(#paint4_linear_2350_1562)"/>
<rect x="24" y="112" width="100" height="5" rx="1.13513" fill="url(#paint5_linear_2350_1562)"/>
<rect x="24" y="92" width="100" height="5" rx="1.13513" fill="url(#paint6_linear_2350_1562)"/>
<rect x="131" y="112" width="126" height="5" rx="1.13513" fill="url(#paint7_linear_2350_1562)"/>
<rect x="131" y="92" width="126" height="5" rx="1.13513" fill="url(#paint8_linear_2350_1562)"/>
<path d="M142.002 56.1076L143.78 60.9929L142.158 61.5831L140.38 56.6978L137.98 58.513L138.838 49.9375L145.007 55.9555L142.002 56.1076Z" fill="black"/>
<defs>
<filter id="filter0_d_2350_1562" x="8.86498" y="20.3785" width="263.27" height="73.27" filterUnits="userSpaceOnUse" color-interpolation-filters="sRGB">
<feFlood flood-opacity="0" result="BackgroundImageFix"/>
<feColorMatrix in="SourceAlpha" type="matrix" values="0 0 0 0 0 0 0 0 0 0 0 0 0 0 0 0 0 0 127 0" result="hardAlpha"/>
<feOffset dy="1.5135"/>
<feGaussianBlur stdDeviation="7.56751"/>
<feComposite in2="hardAlpha" operator="out"/>
<feColorMatrix type="matrix" values="0 0 0 0 0.714388 0 0 0 0 0.714388 0 0 0 0 0.714388 0 0 0 0.25 0"/>
<feBlend mode="normal" in2="BackgroundImageFix" result="effect1_dropShadow_2350_1562"/>
<feBlend mode="normal" in="SourceGraphic" in2="effect1_dropShadow_2350_1562" result="shape"/>
</filter>
<filter id="filter1_d_2350_1562" x="0.864985" y="0.378486" width="278.27" height="45.27" filterUnits="userSpaceOnUse" color-interpolation-filters="sRGB">
<feFlood flood-opacity="0" result="BackgroundImageFix"/>
<feColorMatrix in="SourceAlpha" type="matrix" values="0 0 0 0 0 0 0 0 0 0 0 0 0 0 0 0 0 0 127 0" result="hardAlpha"/>
<feOffset dy="1.5135"/>
<feGaussianBlur stdDeviation="7.56751"/>
<feComposite in2="hardAlpha" operator="out"/>
<feColorMatrix type="matrix" values="0 0 0 0 0.714388 0 0 0 0 0.714388 0 0 0 0 0.714388 0 0 0 0.25 0"/>
<feBlend mode="normal" in2="BackgroundImageFix" result="effect1_dropShadow_2350_1562"/>
<feBlend mode="normal" in="SourceGraphic" in2="effect1_dropShadow_2350_1562" result="shape"/>
</filter>
<filter id="filter2_d_2350_1562" x="87.83" y="10.1333" width="115.693" height="24.1263" filterUnits="userSpaceOnUse" color-interpolation-filters="sRGB">
<feFlood flood-opacity="0" result="BackgroundImageFix"/>
<feColorMatrix in="SourceAlpha" type="matrix" values="0 0 0 0 0 0 0 0 0 0 0 0 0 0 0 0 0 0 127 0" result="hardAlpha"/>
<feMorphology radius="1.25616" operator="erode" in="SourceAlpha" result="effect1_dropShadow_2350_1562"/>
<feOffset dx="2.51231" dy="0.628078"/>
<feGaussianBlur stdDeviation="4.08251"/>
<feComposite in2="hardAlpha" operator="out"/>
<feColorMatrix type="matrix" values="0 0 0 0 1 0 0 0 0 0.790088 0 0 0 0 0.790088 0 0 0 1 0"/>
<feBlend mode="normal" in2="BackgroundImageFix" result="effect1_dropShadow_2350_1562"/>
<feBlend mode="normal" in="SourceGraphic" in2="effect1_dropShadow_2350_1562" result="shape"/>
</filter>
<linearGradient id="paint0_linear_2350_1562" x1="92.4609" y1="21.5674" x2="193.865" y2="21.5674" gradientUnits="userSpaceOnUse">
<stop stop-color="#EDEDED"/>
<stop offset="0.383369" stop-color="#FFDEE2"/>
<stop offset="0.684977" stop-color="#FFD4D9"/>
<stop offset="1" stop-color="#FF6D7F"/>
</linearGradient>
<linearGradient id="paint1_linear_2350_1562" x1="103.125" y1="21.5687" x2="167.07" y2="21.5687" gradientUnits="userSpaceOnUse">
<stop stop-color="#EDEDED"/>
<stop offset="1" stop-color="#CBCBCB" stop-opacity="0"/>
</linearGradient>
<linearGradient id="paint2_linear_2350_1562" x1="24" y1="104.5" x2="191" y2="104.5" gradientUnits="userSpaceOnUse">
<stop stop-color="#EDEDED"/>
<stop offset="1" stop-color="#CBCBCB" stop-opacity="0"/>
</linearGradient>
<linearGradient id="paint3_linear_2350_1562" x1="198" y1="104.5" x2="257" y2="104.5" gradientUnits="userSpaceOnUse">
<stop stop-color="#EDEDED"/>
<stop offset="1" stop-color="#CBCBCB" stop-opacity="0"/>
</linearGradient>
<linearGradient id="paint4_linear_2350_1562" x1="198" y1="84" x2="257" y2="84" gradientUnits="userSpaceOnUse">
<stop stop-color="#EDEDED"/>
<stop offset="1" stop-color="#CBCBCB" stop-opacity="0"/>
</linearGradient>
<linearGradient id="paint5_linear_2350_1562" x1="24" y1="114.5" x2="124" y2="114.5" gradientUnits="userSpaceOnUse">
<stop stop-color="#EDEDED"/>
<stop offset="1" stop-color="#CBCBCB" stop-opacity="0"/>
</linearGradient>
<linearGradient id="paint6_linear_2350_1562" x1="24" y1="94.5" x2="124" y2="94.5" gradientUnits="userSpaceOnUse">
<stop stop-color="#EDEDED"/>
<stop offset="1" stop-color="#CBCBCB" stop-opacity="0"/>
</linearGradient>
<linearGradient id="paint7_linear_2350_1562" x1="131" y1="114.5" x2="257" y2="114.5" gradientUnits="userSpaceOnUse">
<stop stop-color="#EDEDED"/>
<stop offset="1" stop-color="#CBCBCB" stop-opacity="0"/>
</linearGradient>
<linearGradient id="paint8_linear_2350_1562" x1="131" y1="94.5" x2="257" y2="94.5" gradientUnits="userSpaceOnUse">
<stop stop-color="#EDEDED"/>
<stop offset="1" stop-color="#CBCBCB" stop-opacity="0"/>
</linearGradient>
<clipPath id="clip0_2350_1562">
<rect width="4.54047" height="4.54054" fill="white" transform="translate(96.2305 19.2969)"/>
</clipPath>
</defs>
</svg>
