<svg viewBox="0 0 24 25" fill="none" xmlns="http://www.w3.org/2000/svg">
<g id="Frame">
<path id="Vector" d="M13.0042 21.5004H18.0042V23.5004H6.00422V21.5004H11.0042V20.451C7.71079 20.124 4.88741 18.1991 3.32031 15.4626L5.05709 14.4701C6.43598 16.878 9.03064 18.5004 12.0042 18.5004C16.4225 18.5004 20.0042 14.9186 20.0042 10.5003C20.0042 7.52674 18.3819 4.93208 15.974 3.55319L16.9665 1.81641C19.9763 3.54002 22.0042 6.78334 22.0042 10.5003C22.0042 15.6857 18.0575 19.9493 13.0042 20.451V21.5004ZM12.0042 17.5004C8.13823 17.5004 5.00422 14.3663 5.00422 10.5003C5.00422 6.63433 8.13823 3.50032 12.0042 3.50032C15.8702 3.50032 19.0042 6.63433 19.0042 10.5003C19.0042 14.3663 15.8702 17.5004 12.0042 17.5004Z" fill="#FF1A35"/>
</g>
</svg>
