<svg viewBox="0 0 24 25" fill="none" xmlns="http://www.w3.org/2000/svg">
<g id="Frame">
<path id="Vector" d="M9.95596 2.70913C11.2896 2.42997 12.6827 2.42116 14.0469 2.70638C14.2239 3.86593 14.9067 4.93745 16.0016 5.56956C17.0964 6.20166 18.3659 6.25737 19.4585 5.83083C20.3877 6.86971 21.0767 8.08056 21.5016 9.37505C20.5872 10.1081 20.0016 11.2345 20.0016 12.4977C20.0016 13.7617 20.5879 14.8887 21.5033 15.6217C21.292 16.2621 21.0124 16.8907 20.6618 17.4977C20.3113 18.1048 19.9068 18.6612 19.4578 19.1644C18.3653 18.7381 17.0962 18.794 16.0016 19.4259C14.9076 20.0575 14.2249 21.1279 14.0472 22.2864C12.7137 22.5655 11.3207 22.5743 9.95638 22.2891C9.77943 21.1296 9.09646 20.058 8.00162 19.4259C6.90679 18.7938 5.63734 18.7381 4.54467 19.1647C3.61552 18.1258 2.92661 16.9149 2.50159 15.6204C3.41607 14.8874 4.00163 13.7609 4.00163 12.4977C4.00163 11.2338 3.41539 10.1068 2.5 9.37377C2.71128 8.73335 2.99089 8.10482 3.34137 7.49776C3.69186 6.8907 4.09638 6.33429 4.54536 5.8311C5.63788 6.25734 6.90702 6.20153 8.00162 5.56956C9.09559 4.93795 9.77835 3.86763 9.95596 2.70913ZM12.0016 15.4977C13.6585 15.4977 15.0016 14.1546 15.0016 12.4977C15.0016 10.8409 13.6585 9.49776 12.0016 9.49776C10.3447 9.49776 9.00162 10.8409 9.00162 12.4977C9.00162 14.1546 10.3447 15.4977 12.0016 15.4977Z" fill="#FF1A35"/>
</g>
</svg>
