<svg viewBox="0 0 250 114" fill="none" xmlns="http://www.w3.org/2000/svg">
<g clip-path="url(#clip0_2350_1597)">
<rect x="1" y="1" width="248" height="112" rx="9.08101" fill="white"/>
<g filter="url(#filter0_d_2350_1597)">
<g clip-path="url(#clip1_2350_1597)">
<rect x="-17.3008" y="1.06641" width="285.301" height="112.55" rx="7.92299" fill="white"/>
<path fill-rule="evenodd" clip-rule="evenodd" d="M200.5 18C200.776 18 201 18.2239 201 18.5L201 90.5C201 90.7761 200.776 91 200.5 91C200.224 91 200 90.7761 200 90.5L200 18.5C200 18.2239 200.224 18 200.5 18Z" fill="#E81831"/>
<g filter="url(#filter1_d_2350_1597)">
<path d="M-17.3008 59.9515L-6.83103 61.2602L2.33 63.8776L14.1085 69.1125L24.5782 70.4212L44.209 61.2602L58.6049 59.9515L76.927 57.334L90.0142 56.0253L105.719 57.334L121.423 59.9515L138.437 58.6428L151.524 54.7166L161.994 53.4079L179.007 52.0992L199.947 50.7904L207.799 45.5556L215.651 40.3207L223.504 37.7033L232.665 36.3945L240.517 37.7033L247.06 40.3207L256.221 54.7166L262.765 58.6428L268 59.9515V113.609H-17.3008V59.9515Z" fill="url(#paint0_linear_2350_1597)" shape-rendering="crispEdges"/>
</g>
<path fill-rule="evenodd" clip-rule="evenodd" d="M204.653 49.6685C202.346 51.0652 199.973 52.1071 197.329 52.1071C193.444 52.1071 189.317 52.5877 184.531 53.145C183.792 53.2311 183.036 53.3191 182.264 53.4074C176.522 54.0636 169.921 54.7245 161.994 54.7245C154.658 54.7245 150.299 56.181 145.624 57.7434C145.439 57.8052 145.253 57.8671 145.067 57.9292C140.094 59.5868 134.709 61.2681 125.35 61.2681C116.062 61.2681 111.381 60.2681 106.907 59.2739L106.651 59.2169C102.368 58.2643 98.2201 57.342 90.0142 57.342C81.7239 57.342 77.2514 58.2837 72.6736 59.2476L72.5343 59.277C67.8286 60.2677 62.9857 61.2681 54.0244 61.2681C45.5171 61.2681 40.6804 63.7645 36.2787 66.3255C35.9382 66.5236 35.5989 66.7231 35.2597 66.9226C31.1689 69.3286 27.0725 71.7379 20.6521 71.7379C14.6255 71.7379 10.6265 69.6062 6.42886 67.3687C5.79655 67.0316 5.15973 66.6922 4.5108 66.3572C-0.424774 63.8098 -6.43521 61.2681 -17.3008 61.2681V58.6507C-5.91813 58.6507 0.504267 61.3438 5.71127 64.0313C6.39985 64.3867 7.06051 64.7375 7.70293 65.0785C11.8986 67.306 15.3163 69.1204 20.6521 69.1204C26.3396 69.1204 29.87 67.0492 33.9815 64.637C34.3044 64.4475 34.631 64.2559 34.9624 64.0631C39.5582 61.3892 44.864 58.6507 54.0244 58.6507C62.7309 58.6507 67.3762 57.6881 71.9951 56.7157L72.1198 56.6894C76.7761 55.709 81.4517 54.7245 90.0142 54.7245C98.5064 54.7245 102.863 55.6932 107.24 56.6666L107.475 56.7188C111.835 57.6877 116.315 58.6507 125.35 58.6507C134.313 58.6507 139.397 57.0602 144.239 55.4461C144.431 55.3821 144.623 55.3181 144.814 55.2541C149.538 53.6752 154.23 52.1071 161.994 52.1071C169.772 52.1071 176.257 51.4593 181.967 50.8068C182.728 50.7199 183.477 50.6325 184.215 50.5465C188.983 49.9907 193.28 49.4897 197.329 49.4897C199.266 49.4897 201.146 48.7321 203.297 47.4295C204.594 46.6441 205.874 45.7394 207.279 44.7469C208.276 44.0423 209.336 43.2934 210.508 42.5115C216.03 38.8306 223.153 35.0938 233.973 35.0938C239.484 35.0938 243.451 36.6538 246.534 39.0498C249.573 41.4107 251.681 44.532 253.562 47.4763C253.757 47.7818 253.949 48.0847 254.14 48.3847C255.828 51.0421 257.367 53.4659 259.346 55.3247C261.475 57.3238 264.106 58.6507 268 58.6507V61.2681C263.388 61.2681 260.129 59.6504 257.555 57.2326C255.318 55.1321 253.594 52.4135 251.94 49.8036C251.744 49.4957 251.55 49.1892 251.356 48.8855C249.475 45.9406 247.575 43.1727 244.928 41.1167C242.327 39.0957 238.933 37.7112 233.973 37.7112C223.854 37.7112 217.236 41.1723 211.96 44.6893C210.931 45.3752 209.915 46.0917 208.923 46.7914C207.433 47.8419 205.997 48.8545 204.653 49.6685Z" fill="#E81831"/>
<circle cx="200.5" cy="48.5" r="5.25" fill="white" stroke="#E81831" stroke-width="2"/>
</g>
</g>
<rect x="13" y="23" width="56" height="9" rx="1.13513" fill="url(#paint1_linear_2350_1597)"/>
</g>
<rect x="0.5" y="0.5" width="249" height="113" rx="9.58101" stroke="#E6E6E6"/>
<defs>
<filter id="filter0_d_2350_1597" x="-56.9157" y="-34.5871" width="364.531" height="191.781" filterUnits="userSpaceOnUse" color-interpolation-filters="sRGB">
<feFlood flood-opacity="0" result="BackgroundImageFix"/>
<feColorMatrix in="SourceAlpha" type="matrix" values="0 0 0 0 0 0 0 0 0 0 0 0 0 0 0 0 0 0 127 0" result="hardAlpha"/>
<feOffset dy="3.9615"/>
<feGaussianBlur stdDeviation="19.8075"/>
<feComposite in2="hardAlpha" operator="out"/>
<feColorMatrix type="matrix" values="0 0 0 0 0.714388 0 0 0 0 0.714388 0 0 0 0 0.714388 0 0 0 0.25 0"/>
<feBlend mode="normal" in2="BackgroundImageFix" result="effect1_dropShadow_2350_1597"/>
<feBlend mode="normal" in="SourceGraphic" in2="effect1_dropShadow_2350_1597" result="shape"/>
</filter>
<filter id="filter1_d_2350_1597" x="-56.9157" y="0.741064" width="364.531" height="156.445" filterUnits="userSpaceOnUse" color-interpolation-filters="sRGB">
<feFlood flood-opacity="0" result="BackgroundImageFix"/>
<feColorMatrix in="SourceAlpha" type="matrix" values="0 0 0 0 0 0 0 0 0 0 0 0 0 0 0 0 0 0 127 0" result="hardAlpha"/>
<feOffset dy="3.9615"/>
<feGaussianBlur stdDeviation="19.8075"/>
<feComposite in2="hardAlpha" operator="out"/>
<feColorMatrix type="matrix" values="0 0 0 0 0.714388 0 0 0 0 0.714388 0 0 0 0 0.714388 0 0 0 0.25 0"/>
<feBlend mode="normal" in2="BackgroundImageFix" result="effect1_dropShadow_2350_1597"/>
<feBlend mode="normal" in="SourceGraphic" in2="effect1_dropShadow_2350_1597" result="shape"/>
</filter>
<linearGradient id="paint0_linear_2350_1597" x1="127.967" y1="-201.5" x2="127.967" y2="128.005" gradientUnits="userSpaceOnUse">
<stop stop-color="#FF1A35"/>
<stop offset="1" stop-color="#FF1A35" stop-opacity="0"/>
</linearGradient>
<linearGradient id="paint1_linear_2350_1597" x1="13" y1="27.5" x2="73" y2="27.5" gradientUnits="userSpaceOnUse">
<stop stop-color="#EDEDED"/>
<stop offset="0.61365" stop-color="#D1D1D1" stop-opacity="0.195236"/>
<stop offset="1" stop-color="#CBCBCB" stop-opacity="0"/>
</linearGradient>
<clipPath id="clip0_2350_1597">
<rect x="1" y="1" width="248" height="112" rx="9.08101" fill="white"/>
</clipPath>
<clipPath id="clip1_2350_1597">
<rect x="-17.3008" y="1.06641" width="285.301" height="112.55" rx="7.92299" fill="white"/>
</clipPath>
</defs>
</svg>
